<?xml version="1.0" standalone="no"?>
<!DOCTYPE svg PUBLIC "-//W3C//DTD SVG 1.1//EN" "http://www.w3.org/Graphics/SVG/1.1/DTD/svg11.dtd" >
<svg xmlns="http://www.w3.org/2000/svg">
<metadata>
Created by FontPrep 20130207 at Thu Jun 29 09:38:39 2017
 By Martin Greenwood
(C)2007 House Industries/Brand Design Co., Inc. All Rights Reserved.
</metadata>
<defs>
<font id="fe34e88c41ca2ea5940f1b1f88f22a2f" horiz-adv-x='1024' >
  <font-face 
    font-family="Neutraface2Display-Medium"
    font-weight="600"
    font-stretch="normal"
    units-per-em="2048"
    panose-1="2 0 6 3 4 0 0 2 0 4"
    ascent="1597"
    descent="-451"
    x-height="674"
    cap-height="1393"
    bbox="-88 -457.014 2263 1817"
    underline-thickness="40"
    underline-position="-231"
    unicode-range="U+0020-FB04"
  />
<missing-glyph horiz-adv-x="1024" 
 />
    <glyph glyph-name="ff" unicode="ff" horiz-adv-x="897" 
d="M670 567v-567h-125v567h-279v-567h-125v567h-88v107h88v579q-1 105 51 161t145 56t150 -57l-69 -84q-27 31 -74 31q-78 0 -78 -111v-575h279v577q0 107 53 163t150 56t157 -71l-76 -80q-31 41 -79 41q-80 0 -80 -111v-575h170v-107h-170z" />
    <glyph glyph-name="fi" unicode="fi" horiz-adv-x="776" 
d="M266 567v-567h-125v567h-88v107h88v577q1 109 53 164t149 55t157 -71l-74 -80q-31 41 -82 41q-78 0 -78 -111v-575h400v-674h-125v567h-275zM604 920q-34 0 -60 24t-26 62t26 62t60 24t61 -25q25 -25 25 -61t-25 -62q-26 -24 -61 -24z" />
    <glyph glyph-name="fl" unicode="fl" horiz-adv-x="776" 
d="M541 0v1454h125v-1454h-125zM266 567v-567h-125v567h-88v107h88v583q0 101 50 157q51 56 143 56t141 -53l-63 -86q-20 29 -72 29q-74 0 -74 -107v-579h152v-107h-152z" />
    <glyph glyph-name="ffi" unicode="ffi" horiz-adv-x="1185" 
d="M545 674v577q0 107 53 163t150 56t157 -71l-76 -80q-31 41 -79 41q-80 0 -80 -111v-575h405v-674h-125v567h-280v-567h-125v567h-279v-567h-125v567h-88v107h88v579q-1 105 51 161t145 56t150 -57l-69 -84q-27 31 -74 31q-78 0 -78 -111v-575h279zM1014 920q-35 0 -61 24
t-25 62q0 38 26 62t60 24t60 -25t26 -61t-26 -62q-26 -24 -60 -24z" />
    <glyph glyph-name="ffl" unicode="ffl" horiz-adv-x="1181" 
d="M946 0v1454h125v-1454h-125zM547 567h-281v-567h-125v567h-88v107h88v579q-1 105 51 161t145 56t150 -57l-69 -84q-27 31 -74 31q-78 0 -78 -111v-575h281v583q0 101 50 157t142 56t142 -53l-64 -86q-20 29 -72 29q-74 0 -73 -107v-579h151v-107h-151v-567h-125v567z" />
    <glyph glyph-name="f_b" unicode="fb" horiz-adv-x="1302" 
d="M885 94q100 0 164 68q63 68 63 176t-63 174q-63 68 -163 68t-162 -68t-62 -175t62 -175t161 -68zM909 -16q-170 0 -243 131v-115h-125v1454h125v-895q74 131 243 131q141 0 237 -101t95 -252q1 -151 -95 -252t-237 -101zM266 567v-567h-125v567h-88v107h88v583
q0 101 50 157q51 56 143 56t141 -53l-63 -86q-20 29 -72 29q-74 0 -74 -107v-579h152v-107h-152z" />
    <glyph glyph-name="f_f_b" unicode="ffb" horiz-adv-x="1708" 
d="M1290 94q100 0 164 68t64 176t-64 174q-64 68 -164 68t-162 -68t-61 -175q-1 -107 61 -175t162 -68zM1315 -16q-170 0 -244 131v-115h-125v1454h125v-895q74 131 244 131q141 0 236 -101t95 -252t-94 -252q-96 -101 -237 -101zM547 567h-281v-567h-125v567h-88v107h88
v579q-1 105 51 161t145 56t150 -57l-69 -84q-27 31 -74 31q-78 0 -78 -111v-575h281v583q0 101 50 157t142 56t142 -53l-64 -86q-20 29 -72 29q-74 0 -73 -107v-579h151v-107h-151v-567h-125v567z" />
    <glyph glyph-name="f_f_f" unicode="fff" horiz-adv-x="1300" 
d="M266 567v-567h-125v567h-88v107h88v579q-1 105 51 161t145 56t150 -57l-69 -84q-27 31 -74 31q-78 0 -78 -111v-575h279v579q0 105 51 161t144 56t151 -57l-70 -84q-27 31 -73 31q-78 0 -78 -111v-575h278v577q0 107 53 163t151 56t157 -71l-76 -80q-31 41 -80 41
q-80 0 -80 -111v-575h170v-107h-170v-567h-125v567h-278v-567h-125v567h-279z" />
    <glyph glyph-name="f_f_h" unicode="ffh" horiz-adv-x="1654" 
d="M946 0v1454h125v-889q76 125 232 125q115 0 187 -72t71 -204v-414h-125v401q0 176 -164 177q-92 0 -146 -54t-55 -151v-373h-125zM547 567h-281v-567h-125v567h-88v107h88v579q-1 105 51 161t145 56t150 -57l-69 -84q-27 31 -74 31q-78 0 -78 -111v-575h281v583
q0 101 50 157t142 56t142 -53l-64 -86q-20 29 -72 29q-74 0 -73 -107v-579h151v-107h-151v-567h-125v567z" />
    <glyph glyph-name="f_f_j" unicode="ffj" horiz-adv-x="1185" 
d="M670 567v-567h-125v567h-279v-567h-125v567h-88v107h88v579q-1 105 51 161t145 56t150 -57l-69 -84q-27 31 -74 31q-78 0 -78 -111v-575h279v577q0 107 53 163t150 56t157 -71l-76 -80q-31 41 -79 41q-80 0 -80 -111v-575h405v-924q0 -98 -48 -150t-132 -52t-141 53
l63 82q29 -25 62 -25q72 0 71 92v817h-280zM1014 920q-35 0 -61 24t-25 62q0 38 26 62t60 24t60 -25t26 -61t-26 -62q-26 -24 -60 -24z" />
    <glyph glyph-name="f_f_k" unicode="ffk" horiz-adv-x="1570" 
d="M1071 0h-125v1454h125v-1112l287 332h147l-252 -289l295 -385h-153l-226 291l-98 -111v-180zM672 567v-567h-127v567h-279v-567h-125v567h-88v107h88v579q-1 105 51 161t143 56t148 -57l-61 -90q-31 37 -78 37q-78 0 -78 -111v-575h279v583q0 101 51 157t136 56t136 -51
l-51 -90q-27 31 -72 31q-74 0 -73 -107v-579h151v-107h-151z" />
    <glyph glyph-name="f_h" unicode="fh" horiz-adv-x="1249" 
d="M541 0v1454h125v-889q76 125 231 125q115 0 187 -72t71 -204v-414h-125v401q0 176 -164 177q-92 0 -146 -54t-54 -151v-373h-125zM266 567v-567h-125v567h-88v107h88v583q0 101 50 157q51 56 143 56t141 -53l-63 -86q-20 29 -72 29q-74 0 -74 -107v-579h152v-107h-152z
" />
    <glyph glyph-name="f_j" unicode="fj" horiz-adv-x="776" 
d="M266 567v-567h-125v567h-88v107h88v577q1 109 53 164t149 55t157 -71l-74 -80q-31 41 -82 41q-78 0 -78 -111v-575h402v-924q0 -98 -50 -150t-133 -52q-84 0 -141 53l64 82q28 -25 64 -25t56 24t13 68v817h-275zM604 920q-34 0 -60 24t-26 62t26 62t60 24t61 -25
q25 -25 25 -61t-25 -62q-26 -24 -61 -24z" />
    <glyph glyph-name="f_k" unicode="fk" horiz-adv-x="1165" 
d="M668 0h-127v1454h127v-1112l286 332h146l-252 -289l295 -385h-152l-227 291l-96 -111v-180zM266 567v-567h-125v567h-88v107h88v583q-1 105 51 159t138 54t133 -51l-49 -90q-27 31 -72 31q-76 0 -76 -107v-579h152v-107h-152z" />
    <glyph glyph-name=".notdef" horiz-adv-x="1024" 
 />
    <glyph glyph-name=".null" horiz-adv-x="0" 
 />
    <glyph glyph-name="nonmarkingreturn" horiz-adv-x="681" 
 />
    <glyph glyph-name="space" unicode=" " horiz-adv-x="372" 
 />
    <glyph glyph-name="exclam" unicode="!" horiz-adv-x="438" 
d="M219 -12q-39 0 -67 28t-29 68q0 41 29 69q30 27 68 27t67 -28t29 -68q0 -41 -29 -69q-29 -27 -68 -27zM164 373l-14 1020h141l-15 -1020h-112z" />
    <glyph glyph-name="quotedbl" unicode="&#x22;" horiz-adv-x="536" 
d="M92 1042l-16 351h139l-16 -351h-107zM338 1042l-19 351h142l-17 -351h-106z" />
    <glyph glyph-name="numbersign" unicode="#" horiz-adv-x="890" 
d="M573 727h-202l-56 -219h203zM113 727v104h174l55 220h111l-56 -220h203l55 220h111l-55 -220h139v-104h-166l-55 -219h153l-2 -105h-178l-53 -208h-111l54 208h-203l-51 -208h-111l53 208h-139v105h164l55 219h-147z" />
    <glyph glyph-name="dollar" unicode="$" horiz-adv-x="868" 
d="M678 274q0 78 -43 119t-156 76v-373q95 8 147 54t52 124zM215 809q0 -72 36 -112t128 -68v327q-164 -14 -164 -147zM92 800q0 116 80 186t207 79v186h100v-188q180 -23 262 -170l-94 -62q-31 53 -68 83q-38 30 -100 40v-356l23 -6q156 -49 228 -123t71 -198
q0 -123 -85 -199t-237 -86v-224h-100v224q-125 12 -214 73t-130 156l104 61q72 -160 240 -180v404q-153 51 -220 118q-67 66 -67 182z" />
    <glyph glyph-name="percent" unicode="%" horiz-adv-x="1265" 
d="M945 88q62 0 106 43q43 43 43 110t-43 109t-107 43q-64 0 -105 -43q-42 -44 -42 -110t43 -109t105 -43zM944 -16q-106 0 -184 74t-78 183q0 111 77 185t184 74t185 -75t78 -183t-78 -183t-184 -75zM314 657q62 0 105 43q42 43 42 110t-42 110q-43 43 -105 43t-105 -43
t-43 -110t43 -110t105 -43zM315 553q-106 0 -184 75q-78 76 -78 184t77 182t184 73q106 0 184 -74q78 -75 78 -183t-78 -182q-77 -74 -183 -75zM250 0l633 1051h127l-633 -1051h-127z" />
    <glyph glyph-name="ampersand" unicode="&#x26;" horiz-adv-x="1308" 
d="M213 372q0 -124 88 -198t227 -74q226 1 351 183l-371 454q-152 -86 -224 -164q-72 -77 -71 -201zM745 1131q-1 71 -41 117t-112 46t-117 -46t-45 -129t82 -185l37 -45q98 59 147 115t49 127zM999 758h123q0 -264 -94 -457l244 -301h-164l-152 186q-162 -203 -428 -202
q-200 0 -326 106t-126 277t109 278q55 55 109 92t142 88l-24 31q-111 135 -111 264t81 209t210 80t205 -78t75 -198q1 -174 -251 -330l321 -397q57 150 57 352z" />
    <glyph glyph-name="quotesingle" unicode="'" horiz-adv-x="290" 
d="M92 1042l-16 351h139l-16 -351h-107z" />
    <glyph glyph-name="parenleft" unicode="(" horiz-adv-x="565" 
d="M86 596q0 512 346 874l82 -67q-293 -338 -293 -807t293 -807l-82 -68q-346 363 -346 875z" />
    <glyph glyph-name="parenright" unicode=")" horiz-adv-x="565" 
d="M344 596q0 465 -293 807l80 67q348 -360 348 -874t-348 -875l-80 68q293 342 293 807z" />
    <glyph glyph-name="asterisk" unicode="*" horiz-adv-x="733" 
d="M313 881l17 192l-154 -108l-53 92l174 80l-174 77l53 95l154 -109l-17 193h109l-16 -193l151 109l53 -95l-174 -77l174 -80l-53 -92l-151 108l16 -192h-109z" />
    <glyph glyph-name="plus" unicode="+" horiz-adv-x="679" 
d="M399 455v-224h-118v224h-205v114h205v224h118v-224h205v-114h-205z" />
    <glyph glyph-name="comma" unicode="," horiz-adv-x="358" 
d="M86 84q0 41 29 69q29 27 67 27t68 -28q29 -28 29 -63q0 -36 -29 -83l-98 -174h-72l63 164q-57 23 -57 88z" />
    <glyph glyph-name="hyphen" unicode="-" horiz-adv-x="479" 
d="M74 332v112h332v-112h-332z" />
    <glyph glyph-name="period" unicode="." horiz-adv-x="352" 
d="M176 -12q-40 0 -68 28t-28 68q0 41 29 69q29 27 67 27t68 -28q28 -28 28 -68q0 -41 -28 -69q-29 -27 -68 -27z" />
    <glyph glyph-name="slash" unicode="/" horiz-adv-x="833" 
d="M12 -262l613 1716h131l-613 -1716h-131z" />
    <glyph glyph-name="zero" unicode="0" horiz-adv-x="1034" 
d="M207 526q0 -192 83 -310t227 -118t227 118t83 310t-83 310q-83 116 -227 116t-227 -116t-83 -310zM517 -16q-197 0 -321 152t-124 390q0 240 124 390t320 151q196 0 322 -151q125 -150 125 -390t-125 -391t-321 -151z" />
    <glyph glyph-name="one" unicode="1" horiz-adv-x="546" 
d="M244 0v940h-176v111h307v-1051h-131z" />
    <glyph glyph-name="two" unicode="2" horiz-adv-x="866" 
d="M25 0v8l370 377q84 86 122 127t79 114q41 74 41 152t-55 126q-54 48 -140 48t-149 -53t-90 -143l-115 43q39 127 133 197t228 71q133 0 227 -81t94 -224q0 -102 -74 -206t-200 -230l-217 -215h514v-111h-768z" />
    <glyph glyph-name="three" unicode="3" horiz-adv-x="892" 
d="M426 -16q-137 0 -244 69q-106 70 -151 174l110 56q88 -186 285 -187q118 0 188 64t70 176q0 113 -75 174t-176 61t-179 -28l-8 16l319 381h-456v111h673v-9l-315 -378q152 -2 252 -92t100 -244q-1 -152 -107 -248t-286 -96z" />
    <glyph glyph-name="four" unicode="4" horiz-adv-x="937" 
d="M610 330v467l-387 -467h387zM737 330h142v-103h-142v-227h-127v227h-583v25l688 821h22v-743z" />
    <glyph glyph-name="five" unicode="5" horiz-adv-x="878" 
d="M420 -16q-131 0 -230 58q-98 58 -141 142l109 62q78 -150 262 -150q114 0 182 67t68 177t-70 173q-70 62 -212 62t-249 -88l-8 5v559h594v-111h-479v-291q70 39 180 39q168 0 273 -98t105 -255t-102 -254q-104 -97 -282 -97z" />
    <glyph glyph-name="six" unicode="6" horiz-adv-x="897" 
d="M451 96q111 0 179 70t66 178q0 108 -66 178t-178 70t-180 -72t-68 -178t68 -176t179 -70zM451 -16q-162 0 -271 99q-108 99 -108 245t121 313l296 410h142l-281 -387q53 33 127 32q150 0 251 -100t101 -255t-108 -256t-270 -101z" />
    <glyph glyph-name="seven" unicode="7" horiz-adv-x="870" 
d="M63 940v111h766v-9l-518 -1042h-139l471 940h-580z" />
    <glyph glyph-name="eight" unicode="8" horiz-adv-x="878" 
d="M439 635q75 0 124 46t49 117q0 72 -49 116t-124 44t-124 -45t-49 -115t49 -116q49 -47 124 -47zM678 313q0 97 -66 157t-174 60t-174 -60q-64 -60 -64 -156t68 -158q66 -62 171 -62t172 62t67 157zM811 303q-1 -137 -105 -228t-267 -91t-267 91t-104 228q0 100 57 174
t151 109q-141 70 -141 217q0 109 85 187t219 77q134 0 219 -78t85 -186q0 -150 -143 -217q96 -35 154 -109t57 -174z" />
    <glyph glyph-name="nine" unicode="9" horiz-adv-x="897" 
d="M447 954q-113 0 -179 -68t-66 -178t68 -179q66 -69 178 -69t179 72t67 179t-67 175q-68 68 -180 68zM447 1069q161 0 271 -100q110 -101 110 -245t-121 -314l-297 -410h-144l283 391q-53 -37 -127 -37q-150 0 -251 100t-101 256q0 155 108 257t269 102z" />
    <glyph glyph-name="colon" unicode=":" horiz-adv-x="368" 
d="M184 -12q-40 0 -68 28t-28 68q0 41 29 69q29 27 67 27t68 -28q29 -28 29 -68t-29 -68t-68 -28zM184 430q-40 0 -68 28t-28 68t29 69q29 28 67 28t68 -28q29 -28 29 -69q0 -40 -29 -68t-68 -28z" />
    <glyph glyph-name="semicolon" unicode=";" horiz-adv-x="374" 
d="M287 90q0 -35 -27 -84l-100 -174h-72l64 164q-57 23 -58 88q0 41 29 69q29 27 67 27t68 -28q29 -28 29 -62zM190 430q-40 0 -68 28t-28 68t29 69q29 28 67 28t68 -28q29 -28 29 -69q0 -40 -29 -68t-68 -28z" />
    <glyph glyph-name="less" unicode="&#x3c;" horiz-adv-x="649" 
d="M573 217l-514 279v8l514 274v-116l-309 -164l309 -164v-117z" />
    <glyph glyph-name="equal" unicode="=" horiz-adv-x="679" 
d="M76 334v115h528v-115h-528zM76 571v115h528v-115h-528z" />
    <glyph glyph-name="greater" unicode="&#x3e;" horiz-adv-x="649" 
d="M76 217v117l309 164l-309 164v116l514 -278v-8z" />
    <glyph glyph-name="question" unicode="?" horiz-adv-x="907" 
d="M401 -12q-39 0 -67 28t-29 68q0 41 29 69q30 27 68 27t67 -28t29 -68t-29 -68t-68 -28zM342 367v393h59q133 0 209 78t76 196t-71 189q-71 72 -187 71q-176 0 -276 -180l-103 60q51 106 149 171t230 64q178 0 284 -105q106 -106 107 -268q0 -162 -96 -266t-260 -119v-284
h-121z" />
    <glyph glyph-name="at" unicode="@" horiz-adv-x="1511" 
d="M739 92q89 0 145 64t56 160q0 97 -56 163t-144 66t-143 -66q-54 -66 -54 -163q0 -96 54 -160t142 -64zM774 -367q-305 0 -506 198q-200 198 -200 495q0 296 202 496t496 200t486 -188t192 -467q0 -187 -76 -289t-194 -103q-168 0 -211 152q-76 -143 -246 -143
q-129 0 -218 95t-89 236t89 239t231 99q142 0 208 -127v111h127v-420q0 -139 111 -139q66 0 110 74t43 213q-1 245 -155 399t-409 154t-415 -168t-160 -423t161 -422t421 -167q162 0 287 69l51 -92q-139 -82 -336 -82z" />
    <glyph glyph-name="A" unicode="A" horiz-adv-x="1306" 
d="M649 1124l-266 -661h532zM1104 0l-139 344h-631l-137 -344h-136l586 1425h10l588 -1425h-141z" />
    <glyph glyph-name="B" unicode="B" horiz-adv-x="1204" 
d="M311 117h353q156 -1 236 73t79 201q0 127 -82 202t-238 75h-348v-551zM311 778h348q127 0 191 68q63 68 63 182q1 114 -69 180q-70 68 -209 68h-324v-498zM178 0v1393h469q193 -1 295 -101t102 -256q0 -242 -206 -307q276 -70 276 -346q0 -171 -115 -277t-323 -106h-498z
" />
    <glyph glyph-name="C" unicode="C" horiz-adv-x="1449" 
d="M795 -16q-301 0 -506 202t-203 510q0 307 203 510t502 203q348 0 546 -260l-102 -74q-164 213 -447 213q-242 0 -402 -169t-161 -424q0 -255 163 -423t411 -168q299 0 473 232l104 -74q-212 -278 -581 -278z" />
    <glyph glyph-name="D" unicode="D" horiz-adv-x="1353" 
d="M311 121h203q299 -1 454 155t154 420q0 264 -154 420q-155 156 -454 156h-203v-1151zM178 0v1393h348q340 1 538 -191t198 -506t-197 -504q-197 -192 -539 -192h-348z" />
    <glyph glyph-name="E" unicode="E" horiz-adv-x="1150" 
d="M178 0v1393h840v-119h-707v-514h631v-117h-631v-524h736v-119h-869z" />
    <glyph glyph-name="F" unicode="F" horiz-adv-x="1103" 
d="M178 0v1393h832v-119h-699v-555h635v-119h-635v-600h-133z" />
    <glyph glyph-name="G" unicode="G" horiz-adv-x="1478" 
d="M824 -16q-320 0 -529 202t-209 509q0 306 205 510t517 204t509 -217l-94 -88q-165 184 -421 184t-416 -169t-161 -423q0 -254 166 -423t426 -169t420 136v319h-420v119h547v-500q-220 -194 -540 -194z" />
    <glyph glyph-name="H" unicode="H" horiz-adv-x="1382" 
d="M1071 750v643h133v-1393h-133v631h-760v-631h-133v1393h133v-643h760z" />
    <glyph glyph-name="I" unicode="I" horiz-adv-x="507" 
d="M186 0v1393h136v-1393h-136z" />
    <glyph glyph-name="J" unicode="J" horiz-adv-x="942" 
d="M412 -16q-246 0 -357 204l109 68q82 -152 244 -152q106 0 169 65q62 65 62 198v1026h135v-1031q0 -182 -100 -280t-262 -98z" />
    <glyph glyph-name="K" unicode="K" horiz-adv-x="1210" 
d="M311 0h-133v1393h133v-766l639 766h152l-514 -613l573 -780h-164l-495 680l-191 -221v-459z" />
    <glyph glyph-name="L" unicode="L" horiz-adv-x="1028" 
d="M178 0v1393h133v-1274h647v-119h-780z" />
    <glyph glyph-name="M" unicode="M" horiz-adv-x="1681" 
d="M178 0v1421h8l656 -811l651 811h10v-1421h-127v1094l-534 -672h-8l-529 672v-1094h-127z" />
    <glyph glyph-name="N" unicode="N" horiz-adv-x="1431" 
d="M303 0h-125v1421h12l938 -1124v1096h125v-1422h-12l-938 1125v-1096z" />
    <glyph glyph-name="O" unicode="O" horiz-adv-x="1601" 
d="M801 104q247 0 411 169t164 423t-164 423t-412 169t-411 -169q-164 -169 -164 -423t164 -423t412 -169zM801 -16q-299 0 -507 204t-208 508q0 305 208 509t507 204t507 -204t208 -509q0 -304 -208 -508t-507 -204z" />
    <glyph glyph-name="P" unicode="P" horiz-adv-x="1134" 
d="M311 674h269q166 0 250 80t83 220q0 140 -85 220t-248 80h-269v-600zM311 555v-555h-133v1393h410q219 0 342 -117t123 -303t-123 -302t-342 -116h-277z" />
    <glyph glyph-name="Q" unicode="Q" horiz-adv-x="1601" 
d="M737 360h127v-254q225 23 369 187q143 165 143 411t-164 414t-412 168t-411 -168q-164 -168 -164 -415q-1 -247 143 -411t369 -186v254zM864 -254h-127v240q-276 23 -464 222q-187 200 -187 496t208 501q208 204 507 204t507 -204t208 -501t-188 -496t-464 -222v-240z
" />
    <glyph glyph-name="R" unicode="R" horiz-adv-x="1185" 
d="M311 686h275q166 0 250 77t84 215t-84 217t-250 79h-275v-588zM311 569v-569h-133v1393h416q219 0 342 -117t123 -299q0 -143 -79 -245t-222 -142l366 -590h-149l-352 569h-312z" />
    <glyph glyph-name="S" unicode="S" horiz-adv-x="1071" 
d="M842 344q0 110 -62 172q-62 63 -200 127l-113 53q-166 78 -245 161t-79 225q-1 142 103 234t262 93q258 0 385 -205l-102 -65q-90 154 -281 153q-104 0 -170 -59t-66 -153t54 -145q54 -52 192 -118l111 -53q180 -84 262 -175t82 -251t-119 -257t-315 -97
q-330 -1 -480 280l113 60q117 -219 365 -220q141 0 222 65t81 175z" />
    <glyph glyph-name="T" unicode="T" horiz-adv-x="1097" 
d="M483 0v1274h-432v119h996v-119h-431v-1274h-133z" />
    <glyph glyph-name="U" unicode="U" horiz-adv-x="1318" 
d="M659 -16q-219 0 -355 127t-136 362v920h133v-910q0 -184 96 -281q96 -98 263 -98q166 0 262 98t96 281v910h133v-920q-1 -237 -137 -363t-355 -126z" />
    <glyph glyph-name="V" unicode="V" horiz-adv-x="1306" 
d="M649 -29l-588 1422h144l450 -1121l453 1121h137l-588 -1422h-8z" />
    <glyph glyph-name="W" unicode="W" horiz-adv-x="1916" 
d="M520 -27l-463 1420h140l340 -1084l419 1116h11l422 -1116l337 1084h132l-459 -1420h-10l-426 1133l-435 -1133h-8z" />
    <glyph glyph-name="X" unicode="X" horiz-adv-x="1273" 
d="M561 754l-409 639h151l334 -521l334 521h143l-405 -631l489 -762h-151l-414 643l-414 -643h-143z" />
    <glyph glyph-name="Y" unicode="Y" horiz-adv-x="1198" 
d="M670 0h-135v557l-488 836h150l405 -701l406 701h143l-481 -834v-559z" />
    <glyph glyph-name="Z" unicode="Z" horiz-adv-x="1175" 
d="M66 0v8l811 1266h-711v119h928v-9l-811 -1265h815v-119h-1032z" />
    <glyph glyph-name="bracketleft" unicode="[" horiz-adv-x="577" 
d="M162 -262v1716h342v-111h-213v-1495h213v-110h-342z" />
    <glyph glyph-name="backslash" unicode="\" horiz-adv-x="833" 
d="M690 -262l-612 1716h129l614 -1716h-131z" />
    <glyph glyph-name="bracketright" unicode="]" horiz-adv-x="579" 
d="M74 -262v110h215v1495h-215v111h344v-1716h-344z" />
    <glyph glyph-name="asciicircum" unicode="^" horiz-adv-x="761" 
d="M381 1233l-217 -342h-127l340 530h10l338 -530h-127z" />
    <glyph glyph-name="underscore" unicode="_" horiz-adv-x="518" 
d="M-4 -262v112h526v-112h-526z" />
    <glyph glyph-name="grave" unicode="`" horiz-adv-x="1019" 
d="M465 811l-156 289h142l114 -289h-100z" />
    <glyph glyph-name="a" unicode="a" horiz-adv-x="755" 
d="M530 307h-194q-147 0 -148 -106q0 -115 152 -115q80 0 135 40t55 107v74zM530 408v6q0 170 -157 170q-119 0 -191 -97l-80 70q100 133 275 133q131 0 205 -70t73 -206v-414h-125v76q-72 -92 -198 -92t-198 55t-71 157q0 102 76 157q76 54 189 55h202z" />
    <glyph glyph-name="b" unicode="b" horiz-adv-x="868" 
d="M451 94q100 0 163 68q64 68 64 176t-64 174q-64 68 -163 68t-161 -68t-62 -175t61 -175q62 -68 162 -68zM475 -16q-170 0 -244 131v-115h-125v1454h125v-895q74 131 244 131q141 0 237 -101t95 -252q1 -151 -95 -252t-237 -101z" />
    <glyph glyph-name="c" unicode="c" horiz-adv-x="739" 
d="M410 -16q-147 0 -248 101q-100 101 -100 252t100 252t258 101t256 -108l-84 -76q-70 76 -174 76t-164 -70t-61 -175q0 -105 60 -175t170 -70t185 84l84 -74q-100 -118 -282 -118z" />
    <glyph glyph-name="d" unicode="d" horiz-adv-x="872" 
d="M418 94q100 0 163 68q62 68 62 176t-62 174q-63 68 -163 68t-162 -68t-63 -175q1 -107 63 -175t162 -68zM408 -16q-154 0 -250 101t-96 252t96 252t250 101t231 -131v895h125v-1454h-125v115q-77 -131 -231 -131z" />
    <glyph glyph-name="e" unicode="e" horiz-adv-x="819" 
d="M197 395h430q-13 84 -67 136q-54 53 -142 53t-146 -52t-75 -137zM421 690q155 0 248 -112t89 -287h-565q30 -201 252 -201q116 0 194 88l78 -76q-97 -118 -273 -118t-279 100t-104 252q1 152 103 253t257 101z" />
    <glyph glyph-name="f" unicode="f" horiz-adv-x="491" 
d="M266 567v-567h-125v567h-88v107h88v577q1 109 53 164t149 55t157 -71l-74 -80q-31 41 -82 41q-78 0 -78 -111v-575h170v-107h-170z" />
    <glyph glyph-name="g" unicode="g" horiz-adv-x="872" 
d="M418 94q100 0 163 68q62 68 62 176t-62 174q-63 68 -163 68t-162 -68t-63 -175q1 -107 63 -175t162 -68zM424 -455q-240 0 -342 203l104 53q70 -145 234 -145q104 0 162 61q57 61 57 174v224q-77 -131 -231 -131t-250 101t-96 252t96 252t250 101t231 -131v115h125v-785
q0 -160 -90 -252t-250 -92z" />
    <glyph glyph-name="h" unicode="h" 
d="M104 0v1454h125v-889q76 125 232 125q115 0 187 -72t71 -204v-414h-125v401q0 176 -164 177q-92 0 -146 -54t-55 -151v-373h-125z" />
    <glyph glyph-name="i" unicode="i" horiz-adv-x="344" 
d="M109 0v674h127v-674h-127zM172 858q-34 0 -60 25t-26 61t26 62q26 24 60 24t60 -24t26 -62t-26 -62t-60 -24z" />
    <glyph glyph-name="j" unicode="j" horiz-adv-x="344" 
d="M236 -250q0 -98 -50 -150t-133 -53q-84 0 -141 54l63 82q29 -25 62 -25q72 0 72 92v924h127v-924zM172 858q-34 0 -60 25t-26 61t26 62q26 24 60 24t60 -24t26 -62t-26 -62t-60 -24z" />
    <glyph glyph-name="k" unicode="k" horiz-adv-x="729" 
d="M229 0h-125v1454h125v-1112l287 332h148l-254 -289l297 -385h-156l-223 291l-99 -111v-180z" />
    <glyph glyph-name="l" unicode="l" horiz-adv-x="348" 
d="M111 0v1454h127v-1454h-127z" />
    <glyph glyph-name="m" unicode="m" horiz-adv-x="1208" 
d="M104 0v674h125v-92q57 108 199 108t205 -125q80 125 237 125q109 0 177 -70t67 -190v-430h-125v416q0 162 -143 162q-84 0 -129 -48t-45 -139v-391h-125v414q0 164 -144 164q-84 0 -129 -50t-45 -141v-387h-125z" />
    <glyph glyph-name="n" unicode="n" 
d="M104 0v674h125v-109q66 125 232 125q115 0 187 -72t71 -204v-414h-125v401q0 176 -164 177q-92 0 -146 -54t-55 -151v-373h-125z" />
    <glyph glyph-name="o" unicode="o" horiz-adv-x="837" 
d="M420 90q100 0 164 70q63 70 63 176t-63 177q-64 71 -164 71t-164 -71t-63 -177q-1 -106 63 -176t164 -70zM419 -16q-151 0 -254 101t-103 252t102 252q104 101 255 101t254 -101t103 -252t-103 -252t-254 -101z" />
    <glyph glyph-name="p" unicode="p" horiz-adv-x="868" 
d="M451 94q100 0 163 68q64 68 64 176t-64 174q-64 68 -163 68t-161 -68t-62 -175t61 -175q62 -68 162 -68zM106 -434v1108h125v-115q74 131 244 131q141 0 237 -101t95 -252q0 -151 -95 -252t-237 -101q-170 0 -244 131v-549h-125z" />
    <glyph glyph-name="q" unicode="q" horiz-adv-x="872" 
d="M418 94q100 0 163 68q62 68 62 176t-62 174q-63 68 -163 68t-162 -68t-63 -175q1 -107 63 -175t162 -68zM639 -434v549q-77 -131 -231 -131t-250 101t-96 252t96 252t250 101t231 -131v115h125v-1108h-125z" />
    <glyph glyph-name="r" unicode="r" horiz-adv-x="557" 
d="M104 0v674h125v-113q63 129 197 129q61 0 106 -26l-43 -107q-33 18 -97 18t-113 -59t-50 -160v-356h-125z" />
    <glyph glyph-name="s" unicode="s" horiz-adv-x="651" 
d="M334 -16q-195 0 -293 147l94 68q66 -109 200 -109t134 90q0 43 -35 66q-36 24 -138 52t-154 75t-52 131t62 135t163 51q154 0 238 -108l-88 -74q-53 76 -150 76q-51 0 -79 -22t-29 -58q0 -36 31 -55q31 -18 135 -47q105 -29 161 -77q56 -49 56 -141t-68 -146t-188 -54z
" />
    <glyph glyph-name="t" unicode="t" horiz-adv-x="503" 
d="M139 567h-88v107h88v260h125v-260h168v-107h-168v-379q0 -96 72 -96q37 0 74 29l53 -88q-53 -49 -141 -49q-182 0 -183 198v385z" />
    <glyph glyph-name="u" unicode="u" 
d="M352 -16q-118 0 -188 70t-70 206v414h125v-402q0 -176 164 -176q92 0 146 54t55 149v375h125v-674h-125v109q-70 -125 -232 -125z" />
    <glyph glyph-name="v" unicode="v" horiz-adv-x="720" 
d="M362 -23l-342 697h140l211 -453l200 453h129l-329 -697h-9z" />
    <glyph glyph-name="w" unicode="w" horiz-adv-x="1083" 
d="M309 -23l-289 697h140l170 -434l211 454h6l217 -454l172 434h127l-291 -697h-8l-221 476l-226 -476h-8z" />
    <glyph glyph-name="x" unicode="x" horiz-adv-x="747" 
d="M303 360l-225 314h145l154 -215l158 215h135l-228 -307l265 -367h-146l-190 266l-195 -266h-135z" />
    <glyph glyph-name="y" unicode="y" horiz-adv-x="714" 
d="M303 55l-283 619h142l205 -471l198 471h129l-469 -1108h-129z" />
    <glyph glyph-name="z" unicode="z" horiz-adv-x="673" 
d="M45 0v6l379 561h-332v107h531v-8l-379 -560h368v-106h-567z" />
    <glyph glyph-name="braceleft" unicode="{" horiz-adv-x="665" 
d="M520 -262q-262 0 -262 289v366q0 78 -29 109t-88 30h-94v111h94q59 0 88 31t29 108v383q0 289 262 289h74v-111h-70q-68 -1 -102 -39t-33 -137v-403q0 -147 -121 -174q121 -27 121 -176v-389q0 -97 34 -137t101 -40h70v-110h-74z" />
    <glyph glyph-name="bar" unicode="|" horiz-adv-x="464" 
d="M168 -262v1716h129v-1716h-129z" />
    <glyph glyph-name="braceright" unicode="}" horiz-adv-x="665" 
d="M72 -262v110h69q68 0 103 39t35 138v389q0 150 118 174q-119 25 -118 176v403q0 97 -35 137t-103 39h-69v111h73q262 0 263 -289v-381q0 -78 28 -110t88 -31h94v-111h-94q-59 0 -88 -30t-28 -109v-366q0 -289 -263 -289h-73z" />
    <glyph glyph-name="asciitilde" unicode="~" horiz-adv-x="698" 
d="M466 455q-56 0 -124 39t-92 38q-51 0 -70 -73l-102 14q14 84 58 131t100 47t124 -38q66 -38 93 -38q47 0 69 72l99 -14q-11 -82 -55 -130t-100 -48z" />
    <glyph glyph-name="uni00A0" unicode="&#xa0;" horiz-adv-x="372" 
 />
    <glyph glyph-name="exclamdown" unicode="&#xa1;" horiz-adv-x="438" 
d="M150 0l14 1020h112l15 -1020h-141zM219 1212q-39 0 -67 28t-29 69q0 41 29 69q30 28 68 27q38 0 67 -28q29 -29 29 -69t-30 -68q-28 -28 -67 -28z" />
    <glyph glyph-name="cent" unicode="&#xa2;" horiz-adv-x="739" 
d="M356 575q-76 -20 -120 -85q-44 -64 -46 -154q0 -90 46 -154t120 -86v479zM61 336q0 134 83 231q83 96 212 119v199h101v-197q137 -10 227 -110l-84 -74q-57 68 -143 76v-488q96 14 157 82l84 -72q-88 -104 -241 -116v-203h-101v205q-129 22 -212 118t-83 230z" />
    <glyph glyph-name="sterling" unicode="&#xa3;" horiz-adv-x="940" 
d="M219 207q-80 0 -82 -66q0 -31 22 -48t54 -17q86 0 106 86q-59 45 -100 45zM92 467v102h115q-45 109 -45 193q0 129 93 217t247 88q229 0 344 -197l-107 -61q-78 143 -235 143q-98 0 -154 -55t-55 -139q0 -84 43 -189h319v-102h-274q61 -139 61 -252q0 -18 -2 -27
q121 -90 215 -90t168 84l84 -82q-107 -116 -243 -116t-260 104q-68 -104 -193 -104q-80 0 -131 45t-51 115t49 112q50 43 118 43t126 -31q-11 78 -70 199h-162z" />
    <glyph glyph-name="yen" unicode="&#xa5;" horiz-adv-x="970" 
d="M74 643h200l-235 408h145l305 -541l308 541h135l-238 -408h195v-98h-252l-78 -133h330v-99h-338v-313h-131v313h-346v99h336l-78 133h-258v98z" />
    <glyph glyph-name="section" unicode="&#xa7;" horiz-adv-x="993" 
d="M817 190q0 68 -36 109t-128 76l-239 90q-90 35 -154 86q-84 -49 -84 -152q0 -71 36 -111t120 -73l229 -86q93 -33 154 -80q102 41 102 141zM158 774q0 131 90 212t235 81q231 0 346 -186l-102 -64q-78 137 -244 137q-90 0 -144 -48t-54 -125t38 -117t130 -78l239 -92
q250 -96 250 -297q0 -143 -160 -213q51 -68 52 -156q0 -123 -90 -199t-257 -75q-252 0 -381 180l95 73q104 -139 286 -139q106 0 161 42q54 42 54 112t-42 110t-138 78l-225 86q-125 47 -184 116t-60 175q0 145 150 229q-45 68 -45 158z" />
    <glyph glyph-name="dieresis" unicode="&#xa8;" horiz-adv-x="1019" 
d="M377 864q-31 0 -55 23t-25 55q0 32 25 56q26 24 56 24t54 -24t25 -56q-1 -32 -25 -56q-24 -22 -55 -22zM643 864q-31 0 -55 23t-25 55q0 32 25 56q26 24 56 24t54 -24t25 -56q-1 -32 -25 -56q-24 -22 -55 -22z" />
    <glyph glyph-name="copyright" unicode="&#xa9;" horiz-adv-x="1236" 
d="M636 188q-156 0 -252 98t-97 241q0 143 95 241q94 98 246 98t244 -104l-81 -76q-66 72 -164 72q-97 0 -155 -66t-58 -166t57 -166t159 -66t177 81l82 -74q-97 -113 -253 -113zM618 61q195 -1 328 133t133 334t-133 331q-133 132 -328 132q-196 0 -328 -132t-132 -332
t132 -333t328 -133zM618 -14q-225 0 -384 154t-158 386q0 231 158 386q159 155 384 155t384 -155t159 -386q0 -232 -159 -386t-384 -154z" />
    <glyph glyph-name="ordfeminine" unicode="&#xaa;" horiz-adv-x="684" 
d="M483 721h-174q-57 0 -93 -24t-36 -70q0 -98 131 -99q74 0 123 34t49 93v66zM483 811v6q0 86 -34 119q-35 33 -105 33q-102 0 -174 -88l-72 63q84 123 254 123q113 0 182 -60t68 -188v-373h-119v70q-61 -84 -175 -84t-181 49q-66 49 -66 143t68 140q68 47 172 47h182z" />
    <glyph glyph-name="guillemotleft" unicode="&#xab;" horiz-adv-x="681" 
d="M219 66l-158 266v8l158 260h135l-157 -264l157 -270h-135zM487 66l-157 266v8l157 260h134l-158 -264l158 -270h-134z" />
    <glyph glyph-name="registered" unicode="&#xae;" horiz-adv-x="778" 
d="M338 1096h49q70 0 70 57t-70 57h-49v-114zM338 1036v-127h-76v365h129q68 0 106 -33t38 -88q0 -78 -72 -104l82 -140h-82l-74 127h-51zM386 1356q-116 0 -190 -75t-73 -193q-1 -118 73 -190t190 -73q116 0 191 73q75 72 75 190t-75 193t-191 75zM386 768q-136 0 -230 91
t-95 228q1 137 95 229t230 93q136 0 231 -92q95 -91 95 -229t-94 -229q-96 -91 -232 -91z" />
    <glyph glyph-name="macron" unicode="&#xaf;" horiz-adv-x="1019" 
d="M324 893v98h372v-98h-372z" />
    <glyph glyph-name="degree" unicode="&#xb0;" horiz-adv-x="614" 
d="M309 725q53 0 88 36t35 90t-35 91t-88 37t-88 -37t-35 -91t35 -90t88 -36zM309 637q-89 0 -155 63q-66 62 -66 152t65 152t157 61q92 0 154 -61q64 -60 64 -150t-64 -154q-65 -63 -155 -63z" />
    <glyph glyph-name="two.superior" unicode="&#xb2;" horiz-adv-x="598" 
d="M63 815v10l203 211q46 50 64 70q58 65 59 113q1 47 -25 69t-67 23q-84 0 -115 -97l-94 35q53 156 213 156q88 0 144 -47q57 -47 57 -120t-73 -162q-24 -28 -77 -83l-94 -90h256v-88h-451z" />
    <glyph glyph-name="three.superior" unicode="&#xb3;" horiz-adv-x="614" 
d="M318 799q-93 0 -153 38t-87 97l82 43q45 -92 143 -92q55 0 90 33t35 89t-37 86q-37 29 -92 29t-92 -16l-6 12l155 191h-235v84h399v-9l-162 -194q72 -4 122 -54t50 -136t-59 -144q-60 -57 -153 -57z" />
    <glyph glyph-name="acute" unicode="&#xb4;" horiz-adv-x="1019" 
d="M455 811l114 289h142l-156 -289h-100z" />
    <glyph glyph-name="paragraph" unicode="&#xb6;" horiz-adv-x="1007" 
d="M469 750h-43q-154 0 -248 93t-94 229t94 228t248 93h438v-1393h-121v1284h-153v-1284h-121v750z" />
    <glyph glyph-name="periodcentered" unicode="&#xb7;" horiz-adv-x="350" 
d="M176 346q-40 0 -68 28t-28 68t29 69q29 28 67 28t68 -28q28 -28 28 -69q0 -40 -28 -68t-68 -28z" />
    <glyph glyph-name="cedilla" unicode="&#xb8;" horiz-adv-x="1028" 
d="M512 -309q66 0 68 65q0 72 -80 72h-39v172h86v-100q57 -6 94 -46t37 -106t-46 -104t-112 -39q-121 0 -170 94l78 45q25 -53 84 -53z" />
    <glyph glyph-name="one.superior" unicode="&#xb9;" horiz-adv-x="524" 
d="M229 815v488h-116v90h223v-578h-107z" />
    <glyph glyph-name="ordmasculine" unicode="&#xba;" horiz-adv-x="761" 
d="M382 530q89 0 145 62q57 62 57 158t-56 157t-146 61q-89 0 -144 -60q-56 -62 -56 -158t56 -158t144 -62zM383 432q-135 0 -229 91t-94 227t94 226q94 91 229 91t229 -91t94 -226q0 -134 -94 -226t-229 -92z" />
    <glyph glyph-name="guillemotright" unicode="&#xbb;" horiz-adv-x="681" 
d="M61 66l158 266l-158 268h136l157 -264v-8l-157 -262h-136zM330 66l157 266l-157 268h133l158 -264v-8l-158 -262h-133z" />
    <glyph glyph-name="onequarter" unicode="&#xbc;" horiz-adv-x="712" 
d="M637 655h-563v84h563v-84zM297 815v488h-117v90h223v-578h-106zM420 186v207l-180 -207h180zM514 186h80v-73h-80v-113h-96v113h-322v26l404 459h14v-412z" />
    <glyph glyph-name="onehalf" unicode="&#xbd;" horiz-adv-x="692" 
d="M627 655h-564v84h564v-84zM109 0v12l204 209q47 51 65 71q58 65 58 112q0 48 -26 70t-66 22q-84 0 -115 -95l-94 35q23 72 79 113t139 41t139 -47t57 -122q0 -75 -73 -159q-26 -29 -77 -82l-94 -92h254v-88h-450zM289 815v488h-119v90h225v-578h-106z" />
    <glyph glyph-name="threequarters" unicode="&#xbe;" horiz-adv-x="712" 
d="M420 186v207l-180 -207h180zM514 186h80v-73h-80v-113h-96v113h-322v26l404 459h14v-412zM361 799q-93 0 -153 38t-87 97l82 43q47 -92 143 -92q55 0 90 33t35 89t-37 86q-37 29 -92 29t-92 -16l-6 12l155 191h-235v84h399v-9l-162 -194q72 -4 122 -54t50 -136t-59 -144
q-60 -57 -153 -57zM647 655h-581v84h581v-84z" />
    <glyph glyph-name="questiondown" unicode="&#xbf;" horiz-adv-x="907" 
d="M479 -16q-178 0 -284 106q-107 106 -107 267t96 265t260 119v285h121v-393h-59q-133 0 -209 -78t-76 -196q0 -117 71 -189t187 -72q176 0 277 181l102 -60q-53 -106 -149 -171q-97 -64 -230 -64zM506 1212q-39 0 -68 28t-28 69q0 41 28 69t68 27q40 0 68 -28
q28 -29 28 -69t-28 -68t-68 -28z" />
    <glyph glyph-name="Agrave" unicode="&#xc0;" horiz-adv-x="1306" 
d="M604 1509l-155 289h141l115 -289h-101zM649 1124l-266 -661h532zM1104 0l-139 344h-631l-137 -344h-136l586 1425h10l588 -1425h-141z" />
    <glyph glyph-name="Aacute" unicode="&#xc1;" horiz-adv-x="1306" 
d="M600 1509l115 289h141l-156 -289h-100zM649 1124l-266 -661h532zM1104 0l-139 344h-631l-137 -344h-136l586 1425h10l588 -1425h-141z" />
    <glyph glyph-name="Acircumflex" unicode="&#xc2;" horiz-adv-x="1306" 
d="M426 1513l223 267h6l224 -267h-103l-123 119l-125 -119h-102zM649 1124l-266 -661h532zM1104 0l-139 344h-631l-137 -344h-136l586 1425h10l588 -1425h-141z" />
    <glyph glyph-name="Atilde" unicode="&#xc3;" horiz-adv-x="1306" 
d="M771 1511q-54 0 -127 32t-99 32q-47 0 -66 -72l-90 13q12 78 51 122q38 44 94 43q56 1 129 -31t97 -32q47 0 65 72l90 -13q-10 -76 -50 -121t-94 -45zM649 1124l-266 -661h532zM1104 0l-139 344h-631l-137 -344h-136l586 1425h10l588 -1425h-141z" />
    <glyph glyph-name="Adieresis" unicode="&#xc4;" horiz-adv-x="1306" 
d="M518 1520q-32 0 -56 22t-24 56q0 32 25 56t55 24t56 -24q24 -24 24 -57t-24 -55t-56 -22zM784 1520q-32 0 -56 22t-24 56q0 32 25 56t55 24t56 -24q24 -24 24 -57t-24 -55t-56 -22zM649 1124l-266 -661h532zM1104 0l-139 344h-631l-137 -344h-136l586 1425h10l588 -1425
h-141z" />
    <glyph glyph-name="Aring" unicode="&#xc5;" horiz-adv-x="1306" 
d="M651 1565q37 -1 60 23t22 63q1 39 -23 63t-59 23q-35 0 -59 -24q-24 -25 -23 -63t23 -62t59 -23zM651 1487q-70 0 -119 49t-49 115q0 67 49 115t119 48t119 -48q49 -50 49 -116t-49 -114q-49 -49 -119 -49zM649 1124l-266 -661h532zM1104 0l-139 344h-631l-137 -344h-136
l586 1425h10l588 -1425h-141z" />
    <glyph glyph-name="AE" unicode="&#xc6;" horiz-adv-x="1906" 
d="M934 463v682l-451 -682h451zM1804 0h-870v344h-528l-228 -344h-139l924 1393h813v-119h-707v-514h631v-117h-631v-524h735v-119z" />
    <glyph glyph-name="Ccedilla" unicode="&#xc7;" horiz-adv-x="1449" 
d="M786 -309q68 0 68 65q0 72 -80 72h-39v158q-281 24 -466 222t-184 496t204 502q203 203 502 203q348 0 546 -260l-102 -74q-164 213 -447 213q-242 0 -402 -169t-161 -424q0 -255 163 -423t411 -168q299 0 473 232l104 -74q-207 -270 -555 -278v-84q57 -6 94 -46t37 -106
t-46 -104t-111 -39q-121 0 -170 94l77 45q25 -53 84 -53z" />
    <glyph glyph-name="Egrave" unicode="&#xc8;" horiz-adv-x="1150" 
d="M569 1509l-155 289h141l115 -289h-101zM178 0v1393h840v-119h-707v-514h631v-117h-631v-524h736v-119h-869z" />
    <glyph glyph-name="Eacute" unicode="&#xc9;" horiz-adv-x="1150" 
d="M178 0v1393h840v-119h-707v-514h631v-117h-631v-524h736v-119h-869zM565 1509l115 289h141l-155 -289h-101z" />
    <glyph glyph-name="Ecircumflex" unicode="&#xca;" horiz-adv-x="1150" 
d="M178 0v1393h840v-119h-707v-514h631v-117h-631v-524h736v-119h-869zM393 1509l223 267h7l223 -267h-103l-122 119l-125 -119h-103z" />
    <glyph glyph-name="Edieresis" unicode="&#xcb;" horiz-adv-x="1150" 
d="M178 0v1393h840v-119h-707v-514h631v-117h-631v-524h736v-119h-869zM485 1520q-31 0 -55 22t-24 56q0 32 24 56q26 24 56 24t55 -24t25 -57t-26 -55q-24 -22 -55 -22zM752 1520q-31 0 -56 22q-24 22 -24 56q0 32 24 56q25 24 56 24q32 0 56 -24t24 -57t-25 -55
q-24 -22 -55 -22z" />
    <glyph glyph-name="Igrave" unicode="&#xcc;" horiz-adv-x="507" 
d="M205 1509l-156 289h141l115 -289h-100zM186 0v1393h136v-1393h-136z" />
    <glyph glyph-name="Iacute" unicode="&#xcd;" horiz-adv-x="507" 
d="M201 1509l114 289h142l-156 -289h-100zM186 0v1393h136v-1393h-136z" />
    <glyph glyph-name="Icircumflex" unicode="&#xce;" horiz-adv-x="507" 
d="M27 1513l223 267h6l223 -267h-102l-123 119l-125 -119h-102zM186 0v1393h136v-1393h-136z" />
    <glyph glyph-name="Idieresis" unicode="&#xcf;" horiz-adv-x="507" 
d="M119 1520q-31 0 -56 22t-25 56q0 32 25 56t56 24t55 -24t25 -57q-1 -33 -25 -55t-55 -22zM385 1520q-31 0 -55 22t-25 56q0 32 25 56q26 24 56 24t54 -24t25 -57q-1 -33 -25 -55t-55 -22zM186 0v1393h136v-1393h-136z" />
    <glyph glyph-name="Eth" unicode="&#xd0;" horiz-adv-x="1345" 
d="M311 760h365v-117h-365v-522h203q299 -1 454 155t154 420q0 264 -154 420q-155 156 -454 156h-203v-512zM178 643h-145v117h145v633h348q340 1 538 -191t198 -506t-197 -504q-197 -192 -539 -192h-348v643z" />
    <glyph glyph-name="Ntilde" unicode="&#xd1;" horiz-adv-x="1431" 
d="M303 0h-125v1421h12l938 -1124v1096h125v-1422h-12l-938 1125v-1096zM847 1511q-54 0 -127 32t-99 32q-47 0 -66 -72l-90 13q12 78 51 122t93 43q54 1 127 -31t100 -32q47 0 65 72l90 -13q-12 -78 -51 -122t-93 -44z" />
    <glyph glyph-name="Ograve" unicode="&#xd2;" horiz-adv-x="1601" 
d="M752 1509l-156 289h141l115 -289h-100zM801 104q247 0 411 169t164 423t-164 423t-412 169t-411 -169q-164 -169 -164 -423t164 -423t412 -169zM801 -16q-299 0 -507 204t-208 508q0 305 208 509t507 204t507 -204t208 -509q0 -304 -208 -508t-507 -204z" />
    <glyph glyph-name="Oacute" unicode="&#xd3;" horiz-adv-x="1601" 
d="M801 104q247 0 411 169t164 423t-164 423t-412 169t-411 -169q-164 -169 -164 -423t164 -423t412 -169zM801 -16q-299 0 -507 204t-208 508q0 305 208 509t507 204t507 -204t208 -509q0 -304 -208 -508t-507 -204zM748 1509l114 289h142l-156 -289h-100z" />
    <glyph glyph-name="Ocircumflex" unicode="&#xd4;" horiz-adv-x="1601" 
d="M801 104q247 0 411 169t164 423t-164 423t-412 169t-411 -169q-164 -169 -164 -423t164 -423t412 -169zM801 -16q-299 0 -507 204t-208 508q0 305 208 509t507 204t507 -204t208 -509q0 -304 -208 -508t-507 -204zM575 1513l224 267h6l223 -267h-102l-123 119l-125 -119
h-103z" />
    <glyph glyph-name="Otilde" unicode="&#xd5;" horiz-adv-x="1601" 
d="M801 104q247 0 411 169t164 423t-164 423t-412 169t-411 -169q-164 -169 -164 -423t164 -423t412 -169zM801 -16q-299 0 -507 204t-208 508q0 305 208 509t507 204t507 -204t208 -509q0 -304 -208 -508t-507 -204zM915 1511q-55 0 -127 32t-98 32q-47 0 -65 -72l-90 13
q10 76 50 120t94 45t127 -31t99 -32q47 0 66 72l90 -13q-11 -78 -51 -122t-95 -44z" />
    <glyph glyph-name="Odieresis" unicode="&#xd6;" horiz-adv-x="1601" 
d="M801 104q247 0 411 169t164 423t-164 423t-412 169t-411 -169q-164 -169 -164 -423t164 -423t412 -169zM801 -16q-299 0 -507 204t-208 508q0 305 208 509t507 204t507 -204t208 -509q0 -304 -208 -508t-507 -204zM668 1520q-31 0 -56 22q-24 22 -24 56q0 32 24 56
q25 24 56 24q32 0 56 -24t24 -57t-24 -55t-56 -22zM934 1520q-32 0 -56 22t-24 56q0 32 25 56t55 24t56 -24q24 -24 24 -57t-24 -55t-56 -22z" />
    <glyph glyph-name="multiply" unicode="&#xd7;" horiz-adv-x="620" 
d="M385 496l170 -170l-76 -74l-170 168l-170 -168l-73 74l167 170l-167 170l73 73l170 -168l170 168l74 -73z" />
    <glyph glyph-name="Oslash" unicode="&#xd8;" horiz-adv-x="1601" 
d="M1378 678q0 236 -123 395l-833 -833q158 -136 392 -136t400 169q164 169 164 405zM788 1288q-234 0 -400 -169q-165 -169 -165 -407t123 -395l834 834q-158 137 -392 137zM1516 680q0 -288 -208 -493q-208 -203 -492 -203t-482 168l-172 -172l-78 75l172 172
q-170 197 -170 485t208 493q208 204 492 204t484 -168l170 170l78 -76l-170 -170q168 -197 168 -485z" />
    <glyph glyph-name="Ugrave" unicode="&#xd9;" horiz-adv-x="1318" 
d="M608 1509l-155 289h141l115 -289h-101zM659 -16q-219 0 -355 127t-136 362v920h133v-910q0 -184 96 -281q96 -98 263 -98q166 0 262 98t96 281v910h133v-920q-1 -237 -137 -363t-355 -126z" />
    <glyph glyph-name="Uacute" unicode="&#xda;" horiz-adv-x="1318" 
d="M659 -16q-219 0 -355 127t-136 362v920h133v-910q0 -184 96 -281q96 -98 263 -98q166 0 262 98t96 281v910h133v-920q-1 -237 -137 -363t-355 -126zM604 1509l115 289h141l-155 -289h-101z" />
    <glyph glyph-name="Ucircumflex" unicode="&#xdb;" horiz-adv-x="1318" 
d="M659 -16q-219 0 -355 127t-136 362v920h133v-910q0 -184 96 -281q96 -98 263 -98q166 0 262 98t96 281v910h133v-920q-1 -237 -137 -363t-355 -126zM432 1513l223 267h7l223 -267h-103l-123 119l-124 -119h-103z" />
    <glyph glyph-name="Udieresis" unicode="&#xdc;" horiz-adv-x="1318" 
d="M659 -16q-219 0 -355 127t-136 362v920h133v-910q0 -184 96 -281q96 -98 263 -98q166 0 262 98t96 281v910h133v-920q-1 -237 -137 -363t-355 -126zM524 1520q-32 0 -56 22t-24 56q0 32 25 56t55 24t56 -24q24 -24 24 -57t-24 -55t-56 -22zM791 1520q-31 0 -56 22t-25 56
q0 32 25 56t56 24t55 -24t24 -57t-24 -55t-55 -22z" />
    <glyph glyph-name="Yacute" unicode="&#xdd;" horiz-adv-x="1198" 
d="M549 1509l115 289h141l-156 -289h-100zM670 0h-135v557l-488 836h150l405 -701l406 701h143l-481 -834v-559z" />
    <glyph glyph-name="Thorn" unicode="&#xde;" horiz-adv-x="1128" 
d="M311 410h269q166 0 250 78t83 220q0 140 -85 220t-248 80h-269v-598zM311 289v-289h-133v1393h133v-267h277q219 0 342 -116t123 -303t-123 -303t-342 -115h-277z" />
    <glyph glyph-name="germandbls" unicode="&#xdf;" horiz-adv-x="858" 
d="M571 -16q-172 0 -256 133l84 67q68 -98 172 -98q57 0 87 26t30 72t-29 70q-29 22 -117 54t-133 79q-80 81 -26 254l147 477q18 61 18 116q0 56 -41 92q-42 36 -114 36t-118 -46t-46 -142v-1174h-125v1182q0 141 88 215q88 73 210 73t195 -66t73 -181q0 -55 -25 -131
l-147 -480q-16 -53 -16 -90q-1 -71 128 -110q100 -35 150 -83q50 -49 49 -143t-59 -148t-179 -54z" />
    <glyph glyph-name="agrave" unicode="&#xe0;" horiz-adv-x="755" 
d="M332 811l-156 289h141l115 -289h-100zM530 307h-194q-147 0 -148 -106q0 -115 152 -115q80 0 135 40t55 107v74zM530 408v6q0 170 -157 170q-119 0 -191 -97l-80 70q100 133 275 133q131 0 205 -70t73 -206v-414h-125v76q-72 -92 -198 -92t-198 55t-71 157q0 102 76 157
q76 54 189 55h202z" />
    <glyph glyph-name="aacute" unicode="&#xe1;" horiz-adv-x="755" 
d="M328 811l114 289h142l-156 -289h-100zM530 307h-194q-147 0 -148 -106q0 -115 152 -115q80 0 135 40t55 107v74zM530 408v6q0 170 -157 170q-119 0 -191 -97l-80 70q100 133 275 133q131 0 205 -70t73 -206v-414h-125v76q-72 -92 -198 -92t-198 55t-71 157q0 102 76 157
q76 54 189 55h202z" />
    <glyph glyph-name="acircumflex" unicode="&#xe2;" horiz-adv-x="755" 
d="M156 834l223 266h6l223 -266h-102l-123 118l-125 -118h-102zM530 307h-194q-147 0 -148 -106q0 -115 152 -115q80 0 135 40t55 107v74zM530 408v6q0 170 -157 170q-119 0 -191 -97l-80 70q100 133 275 133q131 0 205 -70t73 -206v-414h-125v76q-72 -92 -198 -92t-198 55
t-71 157q0 102 76 157q76 54 189 55h202z" />
    <glyph glyph-name="atilde" unicode="&#xe3;" horiz-adv-x="755" 
d="M473 850q-47 0 -102 37t-76 37q-39 0 -57 -72l-91 14q27 162 142 162q47 0 102 -36t77 -36t34 16t22 54l90 -14q-26 -162 -141 -162zM530 307h-194q-147 0 -148 -106q0 -115 152 -115q80 0 135 40t55 107v74zM530 408v6q0 170 -157 170q-119 0 -191 -97l-80 70
q100 133 275 133q131 0 205 -70t73 -206v-414h-125v76q-72 -92 -198 -92t-198 55t-71 157q0 102 76 157q76 54 189 55h202z" />
    <glyph glyph-name="adieresis" unicode="&#xe4;" horiz-adv-x="755" 
d="M248 864q-32 0 -56 23t-24 55t25 56t55 24t56 -24q24 -24 24 -56t-24 -56q-24 -22 -56 -22zM514 864q-32 0 -56 23t-24 55t25 56t55 24t56 -24q24 -24 24 -56t-24 -56q-24 -22 -56 -22zM530 307h-194q-147 0 -148 -106q0 -115 152 -115q80 0 135 40t55 107v74zM530 408v6
q0 170 -157 170q-119 0 -191 -97l-80 70q100 133 275 133q131 0 205 -70t73 -206v-414h-125v76q-72 -92 -198 -92t-198 55t-71 157q0 102 76 157q76 54 189 55h202z" />
    <glyph glyph-name="aring" unicode="&#xe5;" horiz-adv-x="751" 
d="M381 866q37 0 59 24t23 62q0 38 -24 63q-25 23 -59 23t-58 -24t-23 -62t23 -62t59 -24zM381 788q-70 0 -119 50t-49 114q0 66 49 115t119 49t119 -49t49 -115t-49 -115t-119 -49zM530 307h-194q-147 0 -148 -106q0 -115 152 -115q80 0 135 40t55 107v74zM530 408v6
q0 170 -157 170q-119 0 -191 -97l-80 70q100 133 275 133q131 0 205 -70t73 -206v-414h-125v76q-72 -92 -198 -92t-198 55t-71 157q0 102 76 157q76 54 189 55h202z" />
    <glyph glyph-name="ae" unicode="&#xe6;" horiz-adv-x="1277" 
d="M530 299h-196q-145 0 -146 -104q0 -51 40 -80t115 -29t131 41t56 109v63zM655 401h428q-14 80 -65 131q-50 52 -140 52t-148 -50t-75 -133zM865 690q169 0 261 -108t91 -283h-566q9 -97 73 -153t181 -56t195 88l78 -76q-98 -118 -293 -118t-285 153q-68 -154 -281 -153
q-113 0 -185 55t-71 157q0 102 74 153q74 52 189 52h204v13q0 170 -157 170q-119 0 -191 -97l-80 70q100 133 276 133t230 -141q88 141 257 141z" />
    <glyph glyph-name="ccedilla" unicode="&#xe7;" horiz-adv-x="739" 
d="M395 -309q66 0 68 65q0 72 -80 72h-39v162q-125 23 -204 118q-79 96 -79 238q1 142 101 243t258 101t256 -108l-84 -76q-70 76 -174 76t-164 -70t-61 -175q0 -105 60 -175t170 -70t185 84l84 -74q-94 -113 -262 -118v-84q57 -6 94 -46t37 -106t-46 -104t-112 -39
q-121 0 -170 94l78 45q25 -53 84 -53z" />
    <glyph glyph-name="egrave" unicode="&#xe8;" horiz-adv-x="819" 
d="M365 811l-156 289h141l115 -289h-100zM197 395h430q-13 84 -67 136q-54 53 -142 53t-146 -52t-75 -137zM421 690q155 0 248 -112t89 -287h-565q30 -201 252 -201q116 0 194 88l78 -76q-97 -118 -273 -118t-279 100t-104 252q1 152 103 253t257 101z" />
    <glyph glyph-name="eacute" unicode="&#xe9;" horiz-adv-x="819" 
d="M197 395h430q-13 84 -67 136q-54 53 -142 53t-146 -52t-75 -137zM421 690q155 0 248 -112t89 -287h-565q30 -201 252 -201q116 0 194 88l78 -76q-97 -118 -273 -118t-279 100t-104 252q1 152 103 253t257 101zM360 811l115 289h141l-155 -289h-101z" />
    <glyph glyph-name="ecircumflex" unicode="&#xea;" horiz-adv-x="819" 
d="M197 395h430q-13 84 -67 136q-54 53 -142 53t-146 -52t-75 -137zM421 690q155 0 248 -112t89 -287h-565q30 -201 252 -201q116 0 194 88l78 -76q-97 -118 -273 -118t-279 100t-104 252q1 152 103 253t257 101zM188 834l224 266h6l223 -266h-102l-123 118l-125 -118h-103z
" />
    <glyph glyph-name="edieresis" unicode="&#xeb;" horiz-adv-x="819" 
d="M197 395h430q-13 84 -67 136q-54 53 -142 53t-146 -52t-75 -137zM421 690q155 0 248 -112t89 -287h-565q30 -201 252 -201q116 0 194 88l78 -76q-97 -118 -273 -118t-279 100t-104 252q1 152 103 253t257 101zM281 864q-31 0 -56 23t-25 55t26 56q24 24 55 24t55 -24
t24 -56t-24 -56q-24 -22 -55 -22zM547 864q-31 0 -55 23t-25 55q0 32 25 56q26 24 56 24t54 -24t25 -56q-1 -32 -25 -56q-24 -22 -55 -22z" />
    <glyph glyph-name="igrave" unicode="&#xec;" horiz-adv-x="344" 
d="M125 811l-156 289h142l114 -289h-100zM111 0v674h127v-674h-127z" />
    <glyph glyph-name="iacute" unicode="&#xed;" horiz-adv-x="344" 
d="M111 0v674h127v-674h-127zM121 811l115 289h141l-156 -289h-100z" />
    <glyph glyph-name="icircumflex" unicode="&#xee;" horiz-adv-x="344" 
d="M111 0v674h127v-674h-127zM-53 834l223 266h6l223 -266h-102l-123 118l-125 -118h-102z" />
    <glyph glyph-name="idieresis" unicode="&#xef;" horiz-adv-x="344" 
d="M111 0v674h127v-674h-127zM39 864q-31 0 -55 23t-25 55q0 32 25 56q26 24 56 24t54 -24t25 -56q-1 -32 -25 -56q-24 -22 -55 -22zM305 864q-31 0 -55 23t-25 55q0 32 25 56q26 24 56 24t54 -24t25 -56q-1 -32 -25 -56q-24 -22 -55 -22z" />
    <glyph glyph-name="eth" unicode="&#xf0;" horiz-adv-x="837" 
d="M420 90q100 0 164 70q63 70 63 176t-63 177q-64 71 -164 71t-164 -71t-63 -177q-1 -106 63 -176t164 -70zM776 401q0 -205 -99 -311t-254 -106t-258 101t-103 252t98 252q100 101 252 101t227 -133q-35 305 -215 541l-115 -97l-59 68l117 98q-84 94 -185 185l62 82
q111 -84 209 -195l114 96l60 -67l-115 -97q264 -332 264 -770z" />
    <glyph glyph-name="ntilde" unicode="&#xf1;" 
d="M504 850q-44 0 -100 37t-78 37q-39 0 -58 -72l-90 14q27 162 141 162q45 0 101 -36t78 -36t34 16t23 54l90 -14q-26 -162 -141 -162zM104 0v674h125v-109q66 125 232 125q115 0 187 -72t71 -204v-414h-125v401q0 176 -164 177q-92 0 -146 -54t-55 -151v-373h-125z" />
    <glyph glyph-name="ograve" unicode="&#xf2;" horiz-adv-x="837" 
d="M369 811l-156 289h141l115 -289h-100zM420 90q100 0 164 70q63 70 63 176t-63 177q-64 71 -164 71t-164 -71t-63 -177q-1 -106 63 -176t164 -70zM419 -16q-151 0 -254 101t-103 252t102 252q104 101 255 101t254 -101t103 -252t-103 -252t-254 -101z" />
    <glyph glyph-name="oacute" unicode="&#xf3;" horiz-adv-x="837" 
d="M420 90q100 0 164 70q63 70 63 176t-63 177q-64 71 -164 71t-164 -71t-63 -177q-1 -106 63 -176t164 -70zM419 -16q-151 0 -254 101t-103 252t102 252q104 101 255 101t254 -101t103 -252t-103 -252t-254 -101zM367 811l114 289h142l-156 -289h-100z" />
    <glyph glyph-name="ocircumflex" unicode="&#xf4;" horiz-adv-x="837" 
d="M420 90q100 0 164 70q63 70 63 176t-63 177q-64 71 -164 71t-164 -71t-63 -177q-1 -106 63 -176t164 -70zM419 -16q-151 0 -254 101t-103 252t102 252q104 101 255 101t254 -101t103 -252t-103 -252t-254 -101zM193 834l223 266h6l223 -266h-102l-123 118l-125 -118h-102
z" />
    <glyph glyph-name="otilde" unicode="&#xf5;" horiz-adv-x="837" 
d="M510 850q-47 0 -102 37t-76 37q-39 0 -58 -72l-90 14q27 162 142 162q47 0 102 -36t77 -36t34 16t22 54l90 -14q-26 -162 -141 -162zM420 90q100 0 164 70q63 70 63 176t-63 177q-64 71 -164 71t-164 -71t-63 -177q-1 -106 63 -176t164 -70zM419 -16q-151 0 -254 101
t-103 252t102 252q104 101 255 101t254 -101t103 -252t-103 -252t-254 -101z" />
    <glyph glyph-name="odieresis" unicode="&#xf6;" horiz-adv-x="837" 
d="M420 90q100 0 164 70q63 70 63 176t-63 177q-64 71 -164 71t-164 -71t-63 -177q-1 -106 63 -176t164 -70zM419 -16q-151 0 -254 101t-103 252t102 252q104 101 255 101t254 -101t103 -252t-103 -252t-254 -101zM285 864q-31 0 -56 23t-25 55t26 56q24 24 55 24t55 -24
t25 -56q-1 -32 -25 -56q-24 -22 -55 -22zM551 864q-31 0 -55 23t-25 55q0 32 25 56q26 24 56 24t54 -24t25 -56q-1 -32 -25 -56q-24 -22 -55 -22z" />
    <glyph glyph-name="divide" unicode="&#xf7;" horiz-adv-x="698" 
d="M349 162q-37 0 -65 26t-28 67q0 40 29 67q29 26 65 26t65 -26q27 -26 27 -67q0 -40 -27 -67q-28 -26 -66 -26zM349 676q-37 0 -65 26t-28 67q0 40 29 67q29 26 65 26t65 -26q27 -26 27 -67q0 -40 -27 -67q-28 -26 -66 -26zM623 455h-547v114h547v-114z" />
    <glyph glyph-name="oslash" unicode="&#xf8;" horiz-adv-x="837" 
d="M424 88q98 0 163 71t64 177q1 68 -26 127l-359 -320q60 -55 158 -55zM188 355q0 -89 25 -144l358 321q-63 54 -158 54t-160 -71t-65 -160zM776 320q0 -134 -103 -235t-247 -101t-244 84l-98 -88l-57 63q51 45 98 88q-63 94 -64 205q-1 152 103 253t248 101t241 -84
l101 90l57 -65l-98 -88q63 -89 63 -223z" />
    <glyph glyph-name="ugrave" unicode="&#xf9;" 
d="M356 811l-155 289h141l115 -289h-101zM352 -16q-118 0 -188 70t-70 206v414h125v-402q0 -176 164 -176q92 0 146 54t55 149v375h125v-674h-125v109q-70 -125 -232 -125z" />
    <glyph glyph-name="uacute" unicode="&#xfa;" 
d="M352 -16q-118 0 -188 70t-70 206v414h125v-402q0 -176 164 -176q92 0 146 54t55 149v375h125v-674h-125v109q-70 -125 -232 -125zM352 811l115 289h141l-155 -289h-101z" />
    <glyph glyph-name="ucircumflex" unicode="&#xfb;" 
d="M352 -16q-118 0 -188 70t-70 206v414h125v-402q0 -176 164 -176q92 0 146 54t55 149v375h125v-674h-125v109q-70 -125 -232 -125zM178 834l223 266h7l223 -266h-103l-122 118l-125 -118h-103z" />
    <glyph glyph-name="udieresis" unicode="&#xfc;" 
d="M352 -16q-118 0 -188 70t-70 206v414h125v-402q0 -176 164 -176q92 0 146 54t55 149v375h125v-674h-125v109q-70 -125 -232 -125zM270 864q-32 0 -56 23t-24 55t25 56t55 24t56 -24q24 -24 24 -56t-24 -56q-24 -22 -56 -22zM537 864q-31 0 -56 23t-25 55t26 56
q24 24 55 24t55 -24t24 -56t-24 -56q-24 -22 -55 -22z" />
    <glyph glyph-name="yacute" unicode="&#xfd;" horiz-adv-x="714" 
d="M313 811l115 289h141l-155 -289h-101zM303 55l-283 619h142l205 -471l198 471h129l-469 -1108h-129z" />
    <glyph glyph-name="thorn" unicode="&#xfe;" horiz-adv-x="870" 
d="M453 94q100 0 163 68q64 68 64 176t-64 174q-64 68 -163 68t-161 -68t-62 -175t61 -175q62 -68 162 -68zM106 -434v1888h127v-895q74 131 244 131q141 0 237 -101t95 -252q0 -151 -95 -252t-237 -101q-170 0 -244 131v-549h-127z" />
    <glyph glyph-name="ydieresis" unicode="&#xff;" horiz-adv-x="714" 
d="M233 864q-31 0 -55 23t-24 55t24 56t56 24q30 0 55 -24t25 -56t-26 -56q-24 -22 -55 -22zM500 864q-31 0 -56 23q-24 23 -24 55t24 56t56 24t56 -24t24 -56t-24 -56q-24 -22 -56 -22zM303 55l-283 619h142l205 -471l198 471h129l-469 -1108h-129z" />
    <glyph glyph-name="Amacron" unicode="&#x100;" horiz-adv-x="1306" 
d="M430 1540v100h447v-100h-447zM649 1124l-266 -661h532zM1104 0l-139 344h-631l-137 -344h-136l586 1425h10l588 -1425h-141z" />
    <glyph glyph-name="amacron" unicode="&#x101;" horiz-adv-x="755" 
d="M195 893v98h372v-98h-372zM530 307h-194q-147 0 -148 -106q0 -115 152 -115q80 0 135 40t55 107v74zM530 408v6q0 170 -157 170q-119 0 -191 -97l-80 70q100 133 275 133q131 0 205 -70t73 -206v-414h-125v76q-72 -92 -198 -92t-198 55t-71 157q0 102 76 157
q76 54 189 55h202z" />
    <glyph glyph-name="Abreve" unicode="&#x102;" horiz-adv-x="1306" 
d="M650 1524q-85 0 -141 47t-75 123l103 20q29 -88 115 -88t114 88l104 -20q-18 -76 -76 -123t-144 -47zM649 1124l-266 -661h532zM1104 0l-139 344h-631l-137 -344h-136l586 1425h10l588 -1425h-141z" />
    <glyph glyph-name="abreve" unicode="&#x103;" horiz-adv-x="755" 
d="M380 825q-85 0 -141 47t-75 123l102 21q29 -88 115 -88t115 88l104 -21q-18 -76 -76 -123t-144 -47zM530 307h-194q-147 0 -148 -106q0 -115 152 -115q80 0 135 40t55 107v74zM530 408v6q0 170 -157 170q-119 0 -191 -97l-80 70q100 133 275 133q131 0 205 -70t73 -206
v-414h-125v76q-72 -92 -198 -92t-198 55t-71 157q0 102 76 157q76 54 189 55h202z" />
    <glyph glyph-name="Aogonek" unicode="&#x104;" horiz-adv-x="1306" 
d="M649 1124l-266 -661h532zM1077 -274q0 -76 62 -76q48 0 73 39l66 -64q-53 -70 -156 -69q-72 0 -118 41t-46 110q0 113 152 277l-145 360h-631l-137 -344h-136l586 1425h10l584 -1415q-94 -121 -129 -181q-35 -61 -35 -103z" />
    <glyph glyph-name="aogonek" unicode="&#x105;" horiz-adv-x="755" 
d="M530 307h-194q-147 0 -148 -106q0 -115 152 -115q80 0 135 40t55 107v74zM373 -292q0 70 40 134t117 146v88q-72 -92 -198 -92t-198 55t-71 157q0 102 76 157q76 54 189 55h202v6q0 170 -157 170q-119 0 -191 -97l-80 70q100 133 275 133q131 0 205 -70t73 -206v-406
q-94 -121 -129 -180q-34 -60 -34 -102q1 -76 61 -76q49 0 74 39l65 -64q-53 -70 -155 -69q-72 0 -118 41t-46 111z" />
    <glyph glyph-name="Cacute" unicode="&#x106;" horiz-adv-x="1449" 
d="M795 -16q-301 0 -506 202t-203 510q0 307 203 510t502 203q348 0 546 -260l-102 -74q-164 213 -447 213q-242 0 -402 -169t-161 -424q0 -255 163 -423t411 -168q299 0 473 232l104 -74q-212 -278 -581 -278zM717 1509l114 289h142l-156 -289h-100z" />
    <glyph glyph-name="cacute" unicode="&#x107;" horiz-adv-x="739" 
d="M410 -16q-147 0 -248 101q-100 101 -100 252t100 252t258 101t256 -108l-84 -76q-70 76 -174 76t-164 -70t-61 -175q0 -105 60 -175t170 -70t185 84l84 -74q-100 -118 -282 -118zM340 811l115 289h141l-156 -289h-100z" />
    <glyph glyph-name="Ccircumflex" unicode="&#x108;" horiz-adv-x="1449" 
d="M795 -16q-301 0 -506 202t-203 510q0 307 203 510t502 203q348 0 546 -260l-102 -74q-164 213 -447 213q-242 0 -402 -169t-161 -424q0 -255 163 -423t411 -168q299 0 473 232l104 -74q-212 -278 -581 -278zM545 1513l223 267h6l223 -267h-102l-123 119l-125 -119h-102z
" />
    <glyph glyph-name="ccircumflex" unicode="&#x109;" horiz-adv-x="739" 
d="M410 -16q-147 0 -248 101q-100 101 -100 252t100 252t258 101t256 -108l-84 -76q-70 76 -174 76t-164 -70t-61 -175q0 -105 60 -175t170 -70t185 84l84 -74q-100 -118 -282 -118zM168 834l223 266h6l224 -266h-103l-123 118l-125 -118h-102z" />
    <glyph glyph-name="Cdotaccent" unicode="&#x10a;" horiz-adv-x="1447" 
d="M770 1520q-34 0 -60 24t-26 62t26 62t60 24t60 -25t26 -61t-26 -62q-26 -24 -60 -24zM795 -16q-301 0 -506 202t-203 510q0 307 203 510t502 203q348 0 546 -260l-102 -74q-164 213 -447 213q-242 0 -402 -169t-161 -424q0 -255 163 -423t411 -168q299 0 473 232l104 -74
q-212 -278 -581 -278z" />
    <glyph glyph-name="cdotaccent" unicode="&#x10b;" horiz-adv-x="737" 
d="M393 858q-35 0 -61 25t-25 61q0 36 26 62q27 24 61 24t60 -24t26 -62t-26 -62t-61 -24zM410 -16q-147 0 -248 101q-100 101 -100 252t100 252t258 101t256 -108l-84 -76q-70 76 -174 76t-164 -70t-61 -175q0 -105 60 -175t170 -70t185 84l84 -74q-100 -118 -282 -118z
" />
    <glyph glyph-name="Ccaron" unicode="&#x10c;" horiz-adv-x="1447" 
d="M795 -16q-301 0 -506 202t-203 510q0 307 203 510t502 203q348 0 546 -260l-102 -74q-164 213 -447 213q-242 0 -402 -169t-161 -424q0 -255 163 -423t411 -168q299 0 473 232l104 -74q-212 -278 -581 -278zM768 1501l-223 266h102l123 -118l125 118h102l-223 -266h-6z
" />
    <glyph glyph-name="ccaron" unicode="&#x10d;" horiz-adv-x="737" 
d="M410 -16q-147 0 -248 101q-100 101 -100 252t100 252t258 101t256 -108l-84 -76q-70 76 -174 76t-164 -70t-61 -175q0 -105 60 -175t170 -70t185 84l84 -74q-100 -118 -282 -118zM391 825l-223 267h102l123 -119l125 119h103l-224 -267h-6z" />
    <glyph glyph-name="Dcaron" unicode="&#x10e;" horiz-adv-x="1351" 
d="M311 121h203q299 -1 454 155t154 420q0 264 -154 420q-155 156 -454 156h-203v-1151zM178 0v1393h348q340 1 538 -191t198 -506t-197 -504q-197 -192 -539 -192h-348zM623 1501l-224 266h103l123 -118l125 118h102l-223 -266h-6z" />
    <glyph glyph-name="dcaron" unicode="&#x10f;" horiz-adv-x="1038" 
d="M416 94q100 0 163 68q62 68 62 176t-62 174q-63 68 -163 68t-162 -68t-64 -175q0 -107 63 -175t163 -68zM406 -16q-154 0 -250 101t-96 252t96 252t250 101t231 -131v895h125v-1454h-125v115q-77 -131 -231 -131zM881 1320q1 34 29 60t65 27q37 0 65 -27q28 -28 29 -64
q0 -36 -25 -81l-86 -160h-67l51 154q-25 8 -43 32q-18 25 -18 59z" />
    <glyph glyph-name="Dcroat" unicode="&#x110;" horiz-adv-x="1345" 
d="M311 760h365v-117h-365v-522h203q299 -1 454 155t154 420q0 264 -154 420q-155 156 -454 156h-203v-512zM178 643h-145v117h145v633h348q340 1 538 -191t198 -506t-197 -504q-197 -192 -539 -192h-348v643z" />
    <glyph glyph-name="dcroat" unicode="&#x111;" horiz-adv-x="882" 
d="M418 94q100 0 163 68q62 68 62 176t-62 174q-63 68 -163 68t-162 -68t-63 -175q1 -107 63 -175t162 -68zM639 963h-197v104h197v387h125v-387h125v-104h-125v-963h-125v115q-77 -131 -231 -131t-250 101t-96 252t96 252t250 101t231 -131v404z" />
    <glyph glyph-name="Emacron" unicode="&#x112;" horiz-adv-x="1150" 
d="M178 0v1393h840v-119h-707v-514h631v-117h-631v-524h736v-119h-869zM385 1540v100h455v-100h-455z" />
    <glyph glyph-name="emacron" unicode="&#x113;" horiz-adv-x="819" 
d="M227 893v98h373v-98h-373zM197 395h430q-13 84 -67 136q-54 53 -142 53t-146 -52t-75 -137zM421 690q155 0 248 -112t89 -287h-565q30 -201 252 -201q116 0 194 88l78 -76q-97 -118 -273 -118t-279 100t-104 252q1 152 103 253t257 101z" />
    <glyph glyph-name="Edotaccent" unicode="&#x116;" horiz-adv-x="1150" 
d="M618 1513q-34 0 -60 25q-26 26 -26 62t26 61t60 25t61 -25q26 -25 26 -62t-26 -61t-61 -25zM178 0v1393h840v-119h-707v-514h631v-117h-631v-524h736v-119h-869z" />
    <glyph glyph-name="edotaccent" unicode="&#x117;" 
d="M414 858q-35 0 -61 25q-25 25 -25 61t25 62q26 24 61 24q34 0 60 -24t26 -62t-26 -62t-60 -24zM197 395h430q-13 84 -67 136q-54 53 -142 53t-146 -52t-75 -137zM421 690q155 0 248 -112t89 -287h-565q30 -201 252 -201q116 0 194 88l78 -76q-97 -118 -273 -118t-279 100
t-104 252q1 152 103 253t257 101z" />
    <glyph glyph-name="Eogonek" unicode="&#x118;" horiz-adv-x="1150" 
d="M178 0v1393h840v-119h-707v-514h631v-117h-631v-524h736v-119h-95q-90 -115 -124 -173q-34 -59 -34 -101q1 -76 62 -76q49 0 74 39l65 -64q-53 -70 -155 -69q-72 0 -118 41t-46 111t43 136t127 156h-668z" />
    <glyph glyph-name="eogonek" unicode="&#x119;" horiz-adv-x="819" 
d="M197 395h430q-13 84 -67 136q-54 53 -142 53t-146 -52t-75 -137zM442 -285q0 -65 73 -65q38 0 63 39l61 -64q-53 -69 -139 -69t-130 41q-46 41 -46 111t43 134t122 146q-37 -4 -59 -4q-162 0 -265 100t-104 252q1 152 103 253t257 101t248 -112t89 -287h-565
q30 -201 252 -201q116 0 194 88l78 -76q-14 -18 -70 -65t-130 -148q-73 -101 -75 -174z" />
    <glyph glyph-name="Ecaron" unicode="&#x11a;" horiz-adv-x="1150" 
d="M178 0v1393h840v-119h-707v-514h631v-117h-631v-524h736v-119h-869zM616 1501l-223 266h103l122 -118l125 118h103l-223 -266h-7z" />
    <glyph glyph-name="ecaron" unicode="&#x11b;" 
d="M197 395h430q-13 84 -67 136q-54 53 -142 53t-146 -52t-75 -137zM421 690q155 0 248 -112t89 -287h-565q30 -201 252 -201q116 0 194 88l78 -76q-97 -118 -273 -118t-279 100t-104 252q1 152 103 253t257 101zM412 825l-224 267h103l123 -119l125 119h102l-223 -267h-6z
" />
    <glyph glyph-name="Gcircumflex" unicode="&#x11c;" horiz-adv-x="1478" 
d="M824 -16q-320 0 -529 202t-209 509q0 306 205 510t517 204t509 -217l-94 -88q-165 184 -421 184t-416 -169t-161 -423q0 -254 166 -423t426 -169t420 136v319h-420v119h547v-500q-220 -194 -540 -194zM551 1513l223 267h6l224 -267h-103l-123 119l-125 -119h-102z" />
    <glyph glyph-name="gcircumflex" unicode="&#x11d;" horiz-adv-x="872" 
d="M418 94q100 0 163 68q62 68 62 176t-62 174q-63 68 -163 68t-162 -68t-63 -175q1 -107 63 -175t162 -68zM424 -455q-240 0 -342 203l104 53q70 -145 234 -145q104 0 162 61q57 61 57 174v224q-77 -131 -231 -131t-250 101t-96 252t96 252t250 101t231 -131v115h125v-785
q0 -160 -90 -252t-250 -92zM201 834l223 266h6l223 -266h-102l-123 118l-125 -118h-102z" />
    <glyph glyph-name="Gbreve" unicode="&#x11e;" horiz-adv-x="1478" 
d="M775 1524q-85 0 -141 47t-75 123l103 20q28 -88 114 -88t115 88l104 -20q-19 -76 -77 -123t-143 -47zM824 -16q-320 0 -529 202t-209 509q0 306 205 510t517 204t509 -217l-94 -88q-165 184 -421 184t-416 -169t-161 -423q0 -254 166 -423t426 -169t420 136v319h-420v119
h547v-500q-220 -194 -540 -194z" />
    <glyph glyph-name="gbreve" unicode="&#x11f;" horiz-adv-x="872" 
d="M425 825q-85 0 -141 47t-75 123l102 21q29 -88 115 -88t115 88l104 -21q-19 -76 -77 -123t-143 -47zM418 94q100 0 163 68q62 68 62 176t-62 174q-63 68 -163 68t-162 -68t-63 -175q1 -107 63 -175t162 -68zM424 -455q-240 0 -342 203l104 53q70 -145 234 -145
q104 0 162 61q57 61 57 174v224q-77 -131 -231 -131t-250 101t-96 252t96 252t250 101t231 -131v115h125v-785q0 -160 -90 -252t-250 -92z" />
    <glyph glyph-name="Gdotaccent" unicode="&#x120;" horiz-adv-x="1478" 
d="M776 1520q-34 0 -60 24t-26 62t26 62t60 24t61 -25q25 -25 25 -61t-25 -62q-26 -24 -61 -24zM824 -16q-320 0 -529 202t-209 509q0 306 205 510t517 204t509 -217l-94 -88q-165 184 -421 184t-416 -169t-161 -423q0 -254 166 -423t426 -169t420 136v319h-420v119h547
v-500q-220 -194 -540 -194z" />
    <glyph glyph-name="gdotaccent" unicode="&#x121;" horiz-adv-x="868" 
d="M426 858q-34 0 -60 25t-26 61t26 62q26 24 60 24t60 -24t26 -62t-26 -62t-60 -24zM418 94q100 0 163 68q62 68 62 176t-62 174q-63 68 -163 68t-162 -68t-63 -175q1 -107 63 -175t162 -68zM424 -455q-240 0 -342 203l104 53q70 -145 234 -145q104 0 162 61q57 61 57 174
v224q-77 -131 -231 -131t-250 101t-96 252t96 252t250 101t231 -131v115h125v-785q0 -160 -90 -252t-250 -92z" />
    <glyph glyph-name="Gcommaaccent" unicode="&#x122;" horiz-adv-x="1478" 
d="M824 -16q-320 0 -529 202t-209 509q0 306 205 510t517 204t509 -217l-94 -88q-165 184 -421 184t-416 -169t-161 -423q0 -254 166 -423t426 -169t420 136v319h-420v119h547v-500q-220 -194 -540 -194zM688 -176q0 38 27 64t61 26t62 -27q26 -27 26 -57t-24 -80l-82 -158
h-68l49 152q-51 18 -51 80z" />
    <glyph glyph-name="gcommaaccent" unicode="&#x123;" horiz-adv-x="868" 
d="M418 94q100 0 163 68q62 68 62 176t-62 174q-63 68 -163 68t-162 -68t-63 -175q1 -107 63 -175t162 -68zM424 -455q-240 0 -342 203l104 53q70 -145 234 -145q104 0 162 61q57 61 57 174v224q-77 -131 -231 -131t-250 101t-96 252t96 252t250 101t231 -131v115h125v-785
q0 -160 -90 -252t-250 -92zM514 936q0 -39 -26 -65q-26 -25 -62 -25t-62 26t-26 58q0 31 24 80l82 157h68l-49 -151q51 -18 51 -80z" />
    <glyph glyph-name="Hcircumflex" unicode="&#x124;" horiz-adv-x="1382" 
d="M1071 750v643h133v-1393h-133v631h-760v-631h-133v1393h133v-643h760zM465 1513l223 267h6l224 -267h-103l-123 119l-125 -119h-102z" />
    <glyph glyph-name="hcircumflex" unicode="&#x125;" 
d="M104 0v1454h125v-889q76 125 232 125q115 0 187 -72t71 -204v-414h-125v401q0 176 -164 177q-92 0 -146 -54t-55 -151v-373h-125zM166 1532l223 266h6l223 -266h-102l-123 119l-125 -119h-102z" />
    <glyph glyph-name="Hbar" unicode="&#x126;" horiz-adv-x="1382" 
d="M1071 750v208h-760v-208h760zM33 958v109h145v326h133v-326h760v326h133v-326h146v-109h-146v-958h-133v631h-760v-631h-133v958h-145z" />
    <glyph glyph-name="hbar" unicode="&#x127;" horiz-adv-x="815" 
d="M426 963h-197v-398q76 125 232 125q115 0 187 -72t71 -204v-414h-125v401q0 176 -164 177q-92 0 -146 -54t-55 -151v-373h-125v963h-124v104h124v387h125v-387h197v-104z" />
    <glyph glyph-name="Imacron" unicode="&#x12a;" horiz-adv-x="507" 
d="M66 1540v98h372v-98h-372zM186 0v1393h136v-1393h-136z" />
    <glyph glyph-name="imacron" unicode="&#x12b;" horiz-adv-x="344" 
d="M23 893v98h296v-98h-296zM109 0v674h127v-674h-127z" />
    <glyph glyph-name="Iogonek" unicode="&#x12e;" horiz-adv-x="507" 
d="M37 -293q0 109 149 273v1413h136v-1383q-96 -123 -132 -182q-36 -60 -34 -102q1 -77 61 -76q49 0 74 39l65 -64q-53 -70 -155 -69q-72 0 -118 40t-46 111z" />
    <glyph glyph-name="iogonek" unicode="&#x12f;" horiz-adv-x="344" 
d="M172 858q-34 0 -60 25t-26 61t26 62q26 24 60 24t60 -24t26 -62t-26 -62t-60 -24zM-33 -293q0 113 142 277v690h127v-664q-84 -115 -117 -177q-33 -61 -33 -105q0 -78 61 -78q49 0 74 39l66 -64q-53 -70 -156 -69q-72 0 -118 40t-46 111z" />
    <glyph glyph-name="Idotaccent" unicode="&#x130;" horiz-adv-x="503" 
d="M252 1520q-35 0 -61 24t-25 62q0 38 26 62t60 24t60 -25t26 -61t-26 -62q-26 -24 -60 -24zM186 0v1393h136v-1393h-136z" />
    <glyph glyph-name="dotlessi" unicode="&#x131;" horiz-adv-x="348" 
d="M111 0v674h127v-674h-127z" />
    <glyph glyph-name="Jcircumflex" unicode="&#x134;" horiz-adv-x="942" 
d="M412 -16q-246 0 -357 204l109 68q82 -152 244 -152q106 0 169 65q62 65 62 198v1026h135v-1031q0 -182 -100 -280t-262 -98zM479 1513l223 267h7l223 -267h-103l-122 119l-125 -119h-103z" />
    <glyph glyph-name="jcircumflex" unicode="&#x135;" horiz-adv-x="344" 
d="M-53 834l223 266h6l223 -266h-102l-123 118l-125 -118h-102zM236 -250q0 -98 -50 -150t-133 -53q-84 0 -141 54l63 82q29 -25 62 -25q72 0 72 92v924h127v-924z" />
    <glyph glyph-name="Kcommaaccent" unicode="&#x136;" horiz-adv-x="1210" 
d="M535 -176q-1 38 25 64t62 26t62 -27t27 -57q0 -30 -25 -80l-82 -158h-67l49 152q-51 18 -51 80zM311 0h-133v1393h133v-766l639 766h152l-514 -613l573 -780h-164l-495 680l-191 -221v-459z" />
    <glyph glyph-name="kcommaaccent" unicode="&#x137;" horiz-adv-x="727" 
d="M229 0h-125v1454h125v-1112l287 332h148l-254 -289l297 -385h-156l-223 291l-99 -111v-180zM291 -176q1 38 27 64t61 26t61 -27t27 -57q0 -30 -25 -80l-82 -158h-67l49 152q-51 18 -51 80z" />
    <glyph glyph-name="Lacute" unicode="&#x139;" horiz-adv-x="1028" 
d="M178 0v1393h133v-1274h647v-119h-780zM193 1509l114 289h142l-156 -289h-100z" />
    <glyph glyph-name="lacute" unicode="&#x13a;" horiz-adv-x="348" 
d="M111 0v1454h127v-1454h-127zM121 1528l115 289h141l-156 -289h-100z" />
    <glyph glyph-name="Lcommaaccent" unicode="&#x13b;" horiz-adv-x="1026" 
d="M178 0v1393h133v-1274h647v-119h-780zM481 -176q0 38 26 64q25 26 61 26t63 -27t27 -57t-25 -80l-82 -158h-68l49 152q-51 18 -51 80z" />
    <glyph glyph-name="lcommaaccent" unicode="&#x13c;" horiz-adv-x="344" 
d="M111 0v1454h127v-1454h-127zM86 -176q0 38 27 64t61 26t62 -27q26 -27 26 -57t-24 -80l-82 -158h-68l49 152q-51 18 -51 80z" />
    <glyph glyph-name="Lcaron" unicode="&#x13d;" horiz-adv-x="1026" 
d="M178 0v1393h133v-1274h647v-119h-780zM660 1407q36 0 65 -27q29 -28 29 -64t-25 -81l-86 -160h-68l52 154q-25 8 -43 32q-18 25 -18 59t28 60q30 26 66 27z" />
    <glyph glyph-name="lcaron" unicode="&#x13e;" horiz-adv-x="495" 
d="M109 0v1454h127v-1454h-127zM340 1320q0 34 29 60t65 27q36 0 65 -27q27 -26 27 -66t-24 -79l-86 -160h-68l51 154q-23 8 -41 32q-18 25 -18 59z" />
    <glyph glyph-name="Lslash" unicode="&#x141;" horiz-adv-x="1026" 
d="M311 119h647v-119h-780v532l-145 -49v113l145 47v750h133v-705l402 131v-112l-402 -132v-456z" />
    <glyph glyph-name="lslash" unicode="&#x142;" horiz-adv-x="399" 
d="M262 0h-125v444l-114 -67v117l114 67v893h125v-819l123 72v-117l-123 -72v-518z" />
    <glyph glyph-name="Nacute" unicode="&#x143;" horiz-adv-x="1431" 
d="M303 0h-125v1421h12l938 -1124v1096h125v-1422h-12l-938 1125v-1096zM676 1509l115 289h141l-156 -289h-100z" />
    <glyph glyph-name="nacute" unicode="&#x144;" 
d="M104 0v674h125v-109q66 125 232 125q115 0 187 -72t71 -204v-414h-125v401q0 176 -164 177q-92 0 -146 -54t-55 -151v-373h-125zM358 811l115 289h141l-155 -289h-101z" />
    <glyph glyph-name="Ncommaaccent" unicode="&#x145;" horiz-adv-x="1429" 
d="M303 0h-125v1421h12l938 -1124v1096h125v-1422h-12l-938 1125v-1096zM707 -86q35 0 61 -27t27 -57q0 -30 -25 -80l-82 -158h-67l49 152q-51 18 -52 80q0 38 27 64t62 26z" />
    <glyph glyph-name="ncommaaccent" unicode="&#x146;" horiz-adv-x="811" 
d="M104 0v674h125v-109q66 125 232 125q115 0 187 -72t71 -204v-414h-125v401q0 176 -164 177q-92 0 -146 -54t-55 -151v-373h-125zM324 -176q0 38 26 64t62 26t62 -27t26 -57t-25 -80l-82 -158h-67l49 152q-51 18 -51 80z" />
    <glyph glyph-name="Ncaron" unicode="&#x147;" horiz-adv-x="1429" 
d="M303 0h-125v1421h12l938 -1124v1096h125v-1422h-12l-938 1125v-1096zM725 1501l-223 266h102l123 -118l125 118h102l-223 -266h-6z" />
    <glyph glyph-name="ncaron" unicode="&#x148;" horiz-adv-x="811" 
d="M104 0v674h125v-109q66 125 232 125q115 0 187 -72t71 -204v-414h-125v401q0 176 -164 177q-92 0 -146 -54t-55 -151v-373h-125zM410 825l-224 267h103l123 -119l125 119h102l-223 -267h-6z" />
    <glyph glyph-name="Omacron" unicode="&#x14c;" horiz-adv-x="1601" 
d="M801 104q247 0 411 169t164 423t-164 423t-412 169t-411 -169q-164 -169 -164 -423t164 -423t412 -169zM801 -16q-299 0 -507 204t-208 508q0 305 208 509t507 204t507 -204t208 -509q0 -304 -208 -508t-507 -204zM553 1540v100h496v-100h-496z" />
    <glyph glyph-name="omacron" unicode="&#x14d;" horiz-adv-x="837" 
d="M420 90q100 0 164 70q63 70 63 176t-63 177q-64 71 -164 71t-164 -71t-63 -177q-1 -106 63 -176t164 -70zM419 -16q-151 0 -254 101t-103 252t102 252q104 101 255 101t254 -101t103 -252t-103 -252t-254 -101zM231 893v98h373v-98h-373z" />
    <glyph glyph-name="Ohungarumlaut" unicode="&#x150;" horiz-adv-x="1601" 
d="M801 104q247 0 411 169t164 423t-164 423t-412 169t-411 -169q-164 -169 -164 -423t164 -423t412 -169zM801 -16q-299 0 -507 204t-208 508q0 305 208 509t507 204t507 -204t208 -509q0 -304 -208 -508t-507 -204zM639 1509l109 289h129l-138 -289h-100zM860 1509
l111 289h129l-139 -289h-101z" />
    <glyph glyph-name="ohungarumlaut" unicode="&#x151;" horiz-adv-x="833" 
d="M420 90q100 0 164 70q63 70 63 176t-63 177q-64 71 -164 71t-164 -71t-63 -177q-1 -106 63 -176t164 -70zM419 -16q-151 0 -254 101t-103 252t102 252q104 101 255 101t254 -101t103 -252t-103 -252t-254 -101zM258 811l109 289h129l-138 -289h-100zM479 811l111 289h129
l-139 -289h-101z" />
    <glyph glyph-name="OE" unicode="&#x152;" horiz-adv-x="1970" 
d="M831 121h166v1151h-166q-299 0 -453 -156t-153 -420q-1 -264 153 -420t453 -155zM821 0q-343 0 -539 191t-196 505t196 504q196 192 539 193h1018v-119h-706v-514h630v-117h-630v-524h735v-119h-1047z" />
    <glyph glyph-name="oe" unicode="&#x153;" horiz-adv-x="1404" 
d="M420 90q100 0 164 70q63 70 63 176t-63 177q-64 71 -164 71t-164 -71t-63 -177q-1 -106 63 -176t164 -70zM782 395h430q-12 84 -66 136q-54 53 -142 53t-148 -52q-58 -52 -74 -137zM778 291q30 -201 253 -201q116 0 194 88l78 -76q-98 -119 -298 -119t-294 164
q-94 -164 -291 -163q-152 0 -255 101t-103 252t102 252q104 101 256 101q197 0 291 -168q94 168 290 168q160 0 253 -112t89 -287h-565z" />
    <glyph glyph-name="Racute" unicode="&#x154;" horiz-adv-x="1185" 
d="M528 1509l115 289h141l-155 -289h-101zM311 686h275q166 0 250 77t84 215t-84 217t-250 79h-275v-588zM311 569v-569h-133v1393h416q219 0 342 -117t123 -299q0 -143 -79 -245t-222 -142l366 -590h-149l-352 569h-312z" />
    <glyph glyph-name="racute" unicode="&#x155;" horiz-adv-x="557" 
d="M104 0v674h125v-113q63 129 197 129q61 0 106 -26l-43 -107q-33 18 -97 18t-113 -59t-50 -160v-356h-125zM254 811l115 289h141l-156 -289h-100z" />
    <glyph glyph-name="Rcommaaccent" unicode="&#x156;" horiz-adv-x="1175" 
d="M494 -176q0 38 26 64t61 26q37 0 63 -27t26 -57t-25 -80l-82 -158h-67l49 152q-51 18 -51 80zM311 686h275q166 0 250 77t84 215t-84 217t-250 79h-275v-588zM311 569v-569h-133v1393h416q219 0 342 -117t123 -299q0 -143 -79 -245t-222 -142l366 -590h-149l-352 569
h-312z" />
    <glyph glyph-name="rcommaaccent" unicode="&#x157;" horiz-adv-x="555" 
d="M104 0v674h125v-113q63 129 197 129q61 0 106 -26l-43 -107q-33 18 -97 18t-113 -59t-50 -160v-356h-125zM84 -176q0 38 26 64t62 26t62 -27t26 -57t-24 -80l-82 -158h-68l49 152q-51 18 -51 80z" />
    <glyph glyph-name="Rcaron" unicode="&#x158;" horiz-adv-x="1175" 
d="M578 1501l-224 266h103l123 -118l125 118h102l-223 -266h-6zM311 686h275q166 0 250 77t84 215t-84 217t-250 79h-275v-588zM311 569v-569h-133v1393h416q219 0 342 -117t123 -299q0 -143 -79 -245t-222 -142l366 -590h-149l-352 569h-312z" />
    <glyph glyph-name="rcaron" unicode="&#x159;" horiz-adv-x="555" 
d="M104 0v674h125v-113q63 129 197 129q61 0 106 -26l-43 -107q-33 18 -97 18t-113 -59t-50 -160v-356h-125zM303 825l-223 267h102l123 -119l125 119h102l-223 -267h-6z" />
    <glyph glyph-name="Sacute" unicode="&#x15a;" horiz-adv-x="1071" 
d="M842 344q0 110 -62 172q-62 63 -200 127l-113 53q-166 78 -245 161t-79 225q-1 142 103 234t262 93q258 0 385 -205l-102 -65q-90 154 -281 153q-104 0 -170 -59t-66 -153t54 -145q54 -52 192 -118l111 -53q180 -84 262 -175t82 -251t-119 -257t-315 -97
q-330 -1 -480 280l113 60q117 -219 365 -220q141 0 222 65t81 175zM469 1509l115 289h141l-156 -289h-100z" />
    <glyph glyph-name="sacute" unicode="&#x15b;" horiz-adv-x="651" 
d="M334 -16q-195 0 -293 147l94 68q66 -109 200 -109t134 90q0 43 -35 66q-36 24 -138 52t-154 75t-52 131t62 135t163 51q154 0 238 -108l-88 -74q-53 76 -150 76q-51 0 -79 -22t-29 -58q0 -36 31 -55q31 -18 135 -47q105 -29 161 -77q56 -49 56 -141t-68 -146t-188 -54z
M266 811l115 289h141l-155 -289h-101z" />
    <glyph glyph-name="Scircumflex" unicode="&#x15c;" horiz-adv-x="1071" 
d="M842 344q0 110 -62 172q-62 63 -200 127l-113 53q-166 78 -245 161t-79 225q-1 142 103 234t262 93q258 0 385 -205l-102 -65q-90 154 -281 153q-104 0 -170 -59t-66 -153t54 -145q54 -52 192 -118l111 -53q180 -84 262 -175t82 -251t-119 -257t-315 -97
q-330 -1 -480 280l113 60q117 -219 365 -220q141 0 222 65t81 175zM297 1513l223 267h6l224 -267h-103l-123 119l-125 -119h-102z" />
    <glyph glyph-name="scircumflex" unicode="&#x15d;" horiz-adv-x="651" 
d="M334 -16q-195 0 -293 147l94 68q66 -109 200 -109t134 90q0 43 -35 66q-36 24 -138 52t-154 75t-52 131t62 135t163 51q154 0 238 -108l-88 -74q-53 76 -150 76q-51 0 -79 -22t-29 -58q0 -36 31 -55q31 -18 135 -47q105 -29 161 -77q56 -49 56 -141t-68 -146t-188 -54z
M94 834l223 266h7l223 -266h-103l-122 118l-125 -118h-103z" />
    <glyph glyph-name="Scedilla" unicode="&#x15e;" horiz-adv-x="1071" 
d="M528 -309q68 0 68 65q0 72 -80 72h-39v160q-281 25 -416 276l113 60q117 -219 365 -220q141 0 222 65t81 175t-62 172q-62 63 -200 127l-113 53q-166 78 -245 161t-79 225q-1 142 103 234t262 93q258 0 385 -205l-102 -65q-90 154 -281 153q-104 0 -170 -59t-66 -153
t54 -145q54 -52 192 -118l111 -53q180 -84 262 -175t82 -249t-112 -254t-300 -102v-84q57 -6 94 -46t37 -106t-46 -104t-111 -39q-121 0 -170 94l77 45q25 -53 84 -53z" />
    <glyph glyph-name="scedilla" unicode="&#x15f;" horiz-adv-x="647" 
d="M317 -309q68 0 68 65q0 72 -80 72h-39v162q-147 23 -225 141l94 68q66 -109 200 -109t134 90q0 43 -35 66q-36 24 -138 52t-154 75t-52 131t62 135t163 51q154 0 238 -108l-88 -74q-53 76 -150 76q-51 0 -79 -22t-29 -58q0 -36 31 -55q31 -18 135 -47q105 -29 161 -77
q56 -49 56 -139t-64 -144t-174 -58v-84q57 -6 94 -46t37 -106q1 -66 -45 -104t-112 -39q-121 0 -170 94l77 45q25 -53 84 -53z" />
    <glyph glyph-name="Scaron" unicode="&#x160;" horiz-adv-x="1071" 
d="M842 344q0 110 -62 172q-62 63 -200 127l-113 53q-166 78 -245 161t-79 225q-1 142 103 234t262 93q258 0 385 -205l-102 -65q-90 154 -281 153q-104 0 -170 -59t-66 -153t54 -145q54 -52 192 -118l111 -53q180 -84 262 -175t82 -251t-119 -257t-315 -97
q-330 -1 -480 280l113 60q117 -219 365 -220q141 0 222 65t81 175zM520 1501l-223 266h102l123 -118l125 118h103l-224 -266h-6z" />
    <glyph glyph-name="scaron" unicode="&#x161;" horiz-adv-x="647" 
d="M334 -16q-195 0 -293 147l94 68q66 -109 200 -109t134 90q0 43 -35 66q-36 24 -138 52t-154 75t-52 131t62 135t163 51q154 0 238 -108l-88 -74q-53 76 -150 76q-51 0 -79 -22t-29 -58q0 -36 31 -55q31 -18 135 -47q105 -29 161 -77q56 -49 56 -141t-68 -146t-188 -54z
M317 825l-223 267h103l122 -119l125 119h103l-223 -267h-7z" />
    <glyph glyph-name="Tcommaaccent" unicode="&#x162;" horiz-adv-x="1097" 
d="M483 0v1274h-432v119h996v-119h-431v-1274h-133zM461 -176q-1 38 25 64t62 26t62 -27t27 -57q0 -30 -25 -80l-82 -158h-67l49 152q-51 18 -51 80z" />
    <glyph glyph-name="tcommaaccent" unicode="&#x163;" horiz-adv-x="503" 
d="M139 567h-88v107h88v260h125v-260h168v-107h-168v-379q0 -96 72 -96q37 0 74 29l53 -88q-53 -49 -141 -49q-182 0 -183 198v385zM278 -86q36 0 62 -27t27 -57q0 -30 -25 -80l-82 -158h-67l49 152q-51 18 -52 80q0 38 26 64t62 26z" />
    <glyph glyph-name="Tcaron" unicode="&#x164;" horiz-adv-x="1097" 
d="M483 0v1274h-432v119h996v-119h-431v-1274h-133zM545 1501l-223 266h102l123 -118l125 118h102l-223 -266h-6z" />
    <glyph glyph-name="tcaron" unicode="&#x165;" horiz-adv-x="563" 
d="M139 567h-88v107h88v260h125v-260h168v-107h-168v-379q0 -96 72 -96q37 0 74 29l53 -88q-53 -49 -141 -49q-182 0 -183 198v385zM453 1407q37 0 65 -27q28 -28 29 -64q0 -36 -25 -81l-86 -160h-69l51 154q-23 8 -41 32q-19 25 -19 59t29 60t66 27z" />
    <glyph glyph-name="Umacron" unicode="&#x16a;" horiz-adv-x="1318" 
d="M659 -16q-219 0 -355 127t-136 362v920h133v-910q0 -184 96 -281q96 -98 263 -98q166 0 262 98t96 281v910h133v-920q-1 -237 -137 -363t-355 -126zM449 1540v100h419v-100h-419z" />
    <glyph glyph-name="umacron" unicode="&#x16b;" 
d="M217 893v98h373v-98h-373zM352 -16q-118 0 -188 70t-70 206v414h125v-402q0 -176 164 -176q92 0 146 54t55 149v375h125v-674h-125v109q-70 -125 -232 -125z" />
    <glyph glyph-name="Ubreve" unicode="&#x16c;" horiz-adv-x="1318" 
d="M656 1524q-85 0 -141 47t-75 123l103 20q29 -88 115 -88t114 88l105 -20q-18 -76 -77 -123t-144 -47zM659 -16q-219 0 -355 127t-136 362v920h133v-910q0 -184 96 -281q96 -98 263 -98q166 0 262 98t96 281v910h133v-920q-1 -237 -137 -363t-355 -126z" />
    <glyph glyph-name="ubreve" unicode="&#x16d;" 
d="M402 825q-85 0 -141 47t-75 123l103 21q29 -88 115 -88t114 88l105 -21q-18 -76 -77 -123t-144 -47zM352 -16q-118 0 -188 70t-70 206v414h125v-402q0 -176 164 -176q92 0 146 54t55 149v375h125v-674h-125v109q-70 -125 -232 -125z" />
    <glyph glyph-name="Uring" unicode="&#x16e;" horiz-adv-x="1316" 
d="M659 -16q-219 0 -355 127t-136 362v920h133v-910q0 -184 96 -281q96 -98 263 -98q166 0 262 98t96 281v910h133v-920q-1 -237 -137 -363t-355 -126zM657 1491q37 -1 60 23t22 63q1 39 -23 63t-59 23q-35 0 -59 -24q-24 -25 -23 -63t23 -62t59 -23zM657 1413
q-71 0 -119 49t-49 115t49 115t120 49t118 -49q49 -49 49 -115t-49 -115t-119 -49z" />
    <glyph glyph-name="uring" unicode="&#x16f;" horiz-adv-x="815" 
d="M352 -16q-118 0 -188 70t-70 206v414h125v-402q0 -176 164 -176q92 0 146 54t55 149v375h125v-674h-125v109q-70 -125 -232 -125zM403 866q37 0 60 24t23 62t-24 63q-24 23 -59 23t-59 -24t-22 -62q0 -38 22 -62t59 -24zM403 788q-71 0 -119 50t-48 114q0 66 49 115
t119 49t118 -49q49 -49 49 -115t-49 -115t-119 -49z" />
    <glyph glyph-name="Uhungarumlaut" unicode="&#x170;" horiz-adv-x="1316" 
d="M496 1509l108 289h129l-137 -289h-100zM717 1509l110 289h129l-139 -289h-100zM659 -16q-219 0 -355 127t-136 362v920h133v-910q0 -184 96 -281q96 -98 263 -98q166 0 262 98t96 281v910h133v-920q-1 -237 -137 -363t-355 -126z" />
    <glyph glyph-name="uhungarumlaut" unicode="&#x171;" horiz-adv-x="815" 
d="M244 811l108 289h129l-137 -289h-100zM465 811l110 289h130l-140 -289h-100zM352 -16q-118 0 -188 70t-70 206v414h125v-402q0 -176 164 -176q92 0 146 54t55 149v375h125v-674h-125v109q-70 -125 -232 -125z" />
    <glyph glyph-name="Uogonek" unicode="&#x172;" horiz-adv-x="1318" 
d="M713 -110q-68 -88 -68 -164t73 -76q38 0 62 39l66 -64q-54 -69 -142 -69t-133 42t-45 115q0 139 154 271h-21q-219 0 -355 127t-136 362v920h133v-910q0 -184 96 -281q96 -98 263 -98q166 0 262 98t96 281v910h133v-920q0 -324 -274 -450q-96 -45 -164 -133z" />
    <glyph glyph-name="uogonek" unicode="&#x173;" 
d="M352 -16q-118 0 -188 70t-70 206v414h125v-402q0 -176 164 -176q92 0 146 54t55 149v375h125v-666q-94 -121 -129 -180q-35 -60 -35 -102q0 -76 61 -76q49 0 74 39l65 -64q-53 -70 -155 -69q-72 0 -118 41t-46 111t40 134t118 146v121q-70 -125 -232 -125z" />
    <glyph glyph-name="Ydieresis" unicode="&#x178;" horiz-adv-x="1198" 
d="M469 1520q-31 0 -55 22t-25 56q0 32 25 56q26 24 56 24t54 -24t25 -57q-1 -33 -25 -55t-55 -22zM735 1520q-31 0 -55 22t-25 56q0 32 25 56q26 24 56 24t55 -24t25 -57t-26 -55q-24 -22 -55 -22zM670 0h-135v557l-488 836h150l405 -701l406 701h143l-481 -834v-559z" />
    <glyph glyph-name="Zacute" unicode="&#x179;" horiz-adv-x="1175" 
d="M66 0v8l811 1266h-711v119h928v-9l-811 -1265h815v-119h-1032zM553 1509l115 289h141l-156 -289h-100z" />
    <glyph glyph-name="zacute" unicode="&#x17a;" horiz-adv-x="673" 
d="M45 0v6l379 561h-332v107h531v-8l-379 -560h368v-106h-567zM295 811l115 289h141l-156 -289h-100z" />
    <glyph glyph-name="Zdotaccent" unicode="&#x17b;" horiz-adv-x="1181" 
d="M604 1520q-34 0 -60 24t-26 62t26 62t60 24t61 -25q25 -25 25 -61t-25 -62q-26 -24 -61 -24zM66 0v8l811 1266h-711v119h928v-9l-811 -1265h815v-119h-1032z" />
    <glyph glyph-name="zdotaccent" unicode="&#x17c;" horiz-adv-x="673" 
d="M346 858q-34 0 -60 25t-26 61t26 62q26 24 60 24t61 -24q25 -24 25 -62t-26 -62t-60 -24zM45 0v6l379 561h-332v107h531v-8l-379 -560h368v-106h-567z" />
    <glyph glyph-name="Zcaron" unicode="&#x17d;" horiz-adv-x="1181" 
d="M66 0v8l811 1266h-711v119h928v-9l-811 -1265h815v-119h-1032zM602 1501l-223 266h102l123 -118l125 118h102l-223 -266h-6z" />
    <glyph glyph-name="zcaron" unicode="&#x17e;" horiz-adv-x="673" 
d="M45 0v6l379 561h-332v107h531v-8l-379 -560h368v-106h-567zM344 825l-223 267h102l123 -119l125 119h102l-223 -267h-6z" />
    <glyph glyph-name="florin" unicode="&#x192;" horiz-adv-x="663" 
d="M76 434v107h131l35 307q27 219 215 219q109 0 178 -86l-80 -78q-39 53 -90 53q-86 0 -98 -112l-35 -303h170v-107h-183l-96 -868h-125l97 868h-119z" />
    <glyph glyph-name="Scommaaccent" unicode="&#x218;" horiz-adv-x="1071" 
d="M842 344q0 110 -62 172q-62 63 -200 127l-113 53q-166 78 -245 161t-79 225q-1 142 103 234t262 93q258 0 385 -205l-102 -65q-90 154 -281 153q-104 0 -170 -59t-66 -153t54 -145q54 -52 192 -118l111 -53q180 -84 262 -175t82 -251t-119 -257t-315 -97
q-330 -1 -480 280l113 60q117 -219 365 -220q141 0 222 65t81 175zM434 -176q0 38 27 64t61 26t62 -27q26 -27 26 -57t-24 -80l-82 -158h-68l49 152q-51 18 -51 80z" />
    <glyph glyph-name="scommaaccent" unicode="&#x219;" horiz-adv-x="647" 
d="M334 -16q-195 0 -293 147l94 68q66 -109 200 -109t134 90q0 43 -35 66q-36 24 -138 52t-154 75t-52 131t62 135t163 51q154 0 238 -108l-88 -74q-53 76 -150 76q-51 0 -79 -22t-29 -58q0 -36 31 -55q31 -18 135 -47q105 -29 161 -77q56 -49 56 -141t-68 -146t-188 -54z
M318 -86q36 0 63 -27t27 -57t-25 -80l-82 -158h-68l50 152q-51 18 -52 80q0 38 26 64q25 26 61 26z" />
    <glyph glyph-name="uni021A" unicode="&#x21a;" horiz-adv-x="1097" 
d="M561 -309q66 0 68 65q0 72 -80 72h-39v172h-27v1274h-432v119h996v-119h-431v-1274h-20v-100q57 -6 94 -46t37 -106t-46 -104t-112 -39q-121 0 -170 94l78 45q25 -53 84 -53z" />
    <glyph glyph-name="uni021B" unicode="&#x21b;" horiz-adv-x="503" 
d="M139 567h-88v107h88v260h125v-260h168v-107h-168v-379q0 -96 72 -96q37 0 74 29l53 -88q-53 -49 -141 -49h-9v-86q57 -6 95 -45t36 -104q0 -65 -46 -103t-107 -39q-123 0 -168 94l72 43q25 -55 88 -55q70 0 69 67q0 74 -84 74h-35v170q-94 43 -94 182v385z" />
    <glyph glyph-name="uni0237" unicode="&#x237;" horiz-adv-x="344" 
d="M236 -250q0 -98 -50 -150t-133 -53q-84 0 -141 54l63 82q29 -25 62 -25q72 0 72 92v924h127v-924z" />
    <glyph glyph-name="circumflex" unicode="&#x2c6;" horiz-adv-x="1019" 
d="M283 834l223 266h6l223 -266h-102l-123 118l-125 -118h-102z" />
    <glyph glyph-name="caron" unicode="&#x2c7;" horiz-adv-x="1019" 
d="M508 825l-223 267h102l123 -119l125 119h102l-223 -267h-6z" />
    <glyph glyph-name="breve" unicode="&#x2d8;" horiz-adv-x="1019" 
d="M509 825q-85 0 -141 47t-75 123l102 21q29 -88 115 -88t115 88l104 -21q-19 -76 -77 -123t-143 -47z" />
    <glyph glyph-name="dotaccent" unicode="&#x2d9;" horiz-adv-x="1019" 
d="M510 858q-34 0 -60 25t-26 61t26 62q26 24 60 24t60 -24t26 -62t-26 -62t-60 -24z" />
    <glyph glyph-name="ring" unicode="&#x2da;" horiz-adv-x="1019" 
d="M510 866q38 0 60 24t22 62t-24 63q-24 23 -58 23t-58 -24t-24 -62t22 -62t60 -24zM510 788q-70 0 -119 50t-49 114q0 66 49 115t119 49t119 -49t49 -115t-49 -115t-119 -49z" />
    <glyph glyph-name="ogonek" unicode="&#x2db;" horiz-adv-x="1019" 
d="M311 -292q0 70 43 136t127 156h107q-90 -115 -124 -173q-34 -59 -34 -101q0 -76 62 -76q48 0 73 39l66 -64q-53 -70 -156 -69q-72 0 -118 41t-46 111z" />
    <glyph glyph-name="tilde" unicode="&#x2dc;" horiz-adv-x="1019" 
d="M602 850q-45 0 -100 37t-78 37q-39 0 -57 -72l-91 14q27 162 142 162q45 0 100 -36t78 -36t35 16t22 54l90 -14q-26 -162 -141 -162z" />
    <glyph glyph-name="hungarumlaut" unicode="&#x2dd;" horiz-adv-x="1019" 
d="M340 811l109 289h129l-138 -289h-100zM561 811l111 289h129l-139 -289h-101z" />
    <glyph glyph-name="endash" unicode="&#x2013;" horiz-adv-x="804" 
d="M74 332v112h657v-112h-657z" />
    <glyph glyph-name="emdash" unicode="&#x2014;" horiz-adv-x="1267" 
d="M74 332v112h1120v-112h-1120z" />
    <glyph glyph-name="quoteleft" unicode="&#x2018;" horiz-adv-x="356" 
d="M178 1059q-38 -1 -66 27t-28 65t25 80l90 162h69l-57 -154q61 -25 61 -86q0 -39 -28 -67q-29 -27 -66 -27z" />
    <glyph glyph-name="quoteright" unicode="&#x2019;" horiz-adv-x="356" 
d="M84 1320q0 34 29 60t65 27q36 0 66 -27q55 -51 4 -143l-90 -162h-70l57 154q-25 8 -43 32q-18 25 -18 59z" />
    <glyph glyph-name="quotesinglbase" unicode="&#x201a;" horiz-adv-x="356" 
d="M84 86q0 34 29 62t65 28t66 -28q55 -53 4 -144l-90 -162h-70l57 154q-25 8 -43 32t-18 58z" />
    <glyph glyph-name="quotedblleft" unicode="&#x201c;" horiz-adv-x="632" 
d="M178 1059q-38 -1 -66 27t-28 65t25 80l90 162h69l-57 -154q61 -25 61 -86q0 -39 -28 -67q-29 -27 -66 -27zM455 1059q-37 -1 -65 27t-28 65t25 80l90 162h70l-58 -154q59 -25 59 -75t-28 -78t-65 -27z" />
    <glyph glyph-name="quotedblright" unicode="&#x201d;" horiz-adv-x="632" 
d="M84 1320q0 34 29 60t65 27q36 0 66 -27q55 -51 4 -143l-90 -162h-70l57 154q-25 8 -43 32q-18 25 -18 59zM457 1407q37 0 65 -27q28 -26 27 -66q0 -40 -25 -77l-90 -162h-67l55 154q-23 8 -41 32q-19 25 -19 59t29 60t66 27z" />
    <glyph glyph-name="quotedblbase" unicode="&#x201e;" horiz-adv-x="632" 
d="M84 86q0 34 29 62t65 28t66 -28q55 -53 4 -144l-90 -162h-70l57 154q-25 8 -43 32t-18 58zM457 176q37 0 65 -28t27 -68q0 -40 -25 -76l-90 -162h-67l55 154q-23 8 -41 32q-19 24 -19 58t29 62t66 28z" />
    <glyph glyph-name="dagger" unicode="&#x2020;" horiz-adv-x="536" 
d="M207 1096h-150v108h150v189h121v-189h151v-108h-151v-449h-121v449z" />
    <glyph glyph-name="daggerdbl" unicode="&#x2021;" horiz-adv-x="536" 
d="M207 1098h-150v106h150v189h121v-189h151v-106h-151v-156h151v-106h-151v-189h-121v189h-150v106h150v156z" />
    <glyph glyph-name="bullet" unicode="&#x2022;" horiz-adv-x="514" 
d="M256 319q-68 -1 -117 49t-49 120t49 119q49 48 118 48t118 -48t49 -119t-50 -120t-118 -49z" />
    <glyph glyph-name="ellipsis" unicode="&#x2026;" horiz-adv-x="1050" 
d="M176 -12q-40 0 -68 28t-28 68q0 41 29 69q29 27 67 27t68 -28q28 -28 28 -68q0 -41 -28 -69q-29 -27 -68 -27zM621 84q0 -40 -29 -68t-67 -28q-39 0 -67 28t-28 68q0 41 29 69q29 27 67 27t66 -28q29 -28 29 -68zM874 -12q-40 0 -68 28t-28 68q0 41 29 69q29 27 67 27
t68 -28q29 -28 29 -68t-29 -68t-68 -28z" />
    <glyph glyph-name="perthousand" unicode="&#x2030;" horiz-adv-x="1851" 
d="M1538 88q63 0 106 43q42 43 42 110t-42 109t-106 43q-64 0 -105 -43q-42 -44 -42 -110t42 -109t105 -43zM1538 -16q-106 0 -184 74t-78 183q0 111 77 185t184 74t185 -75t78 -183t-78 -183t-184 -75zM945 88q62 0 106 43q43 43 43 110t-43 109t-107 43q-64 0 -105 -43
q-42 -44 -42 -110t43 -109t105 -43zM944 -16q-106 0 -184 74t-78 183q0 111 77 185t184 74t185 -75t78 -183t-78 -183t-184 -75zM314 657q62 0 105 43q42 43 42 110t-42 110q-43 43 -105 43t-105 -43t-43 -110t43 -110t105 -43zM315 553q-106 0 -184 75q-78 76 -78 184
t77 182t184 73q106 0 184 -74q78 -75 78 -183t-78 -182q-77 -74 -183 -75zM250 0l633 1051h127l-633 -1051h-127z" />
    <glyph glyph-name="guilsinglleft" unicode="&#x2039;" horiz-adv-x="415" 
d="M219 66l-158 266v8l158 260h135l-157 -264l157 -270h-135z" />
    <glyph glyph-name="guilsinglright" unicode="&#x203a;" horiz-adv-x="415" 
d="M61 66l158 266l-158 268h136l157 -264v-8l-157 -262h-136z" />
    <glyph glyph-name="fraction" unicode="&#x2044;" horiz-adv-x="704" 
d="M-29 0l633 1051h129l-633 -1051h-129z" />
    <glyph glyph-name="Euro" unicode="&#x20ac;" horiz-adv-x="1234" 
d="M61 590v98h172q51 168 195 274t320 105q274 0 407 -195l-92 -73q-106 156 -315 155q-133 0 -235 -71q-101 -72 -144 -195h475v-98h-498q-4 -41 -4 -65t4 -68h498v-99h-473q47 -122 147 -192t230 -70q225 0 327 166l96 -69q-133 -209 -423 -209q-174 0 -317 104
q-142 104 -195 270h-175v99h152q-4 45 -4 69t4 64h-152z" />
    <glyph glyph-name="trademark" unicode="&#x2122;" horiz-adv-x="1060" 
d="M188 1313h-129v80h347v-80h-125v-375h-93v375zM494 938v461h8l221 -240l221 240h8v-461h-90v266l-139 -160l-137 160v-266h-92z" />
    <glyph glyph-name="summation" unicode="&#x2211;" horiz-adv-x="1155" 
d="M82 0v8l534 697l-542 679v9h950v-119h-709l455 -567v-11l-457 -577h740v-119h-971z" />
    <glyph glyph-name="minus" unicode="&#x2212;" horiz-adv-x="679" 
d="M604 455h-528v114h528v-114z" />
    <glyph glyph-name="space_uni0326" horiz-adv-x="1019" 
d="M422 -176q0 38 27 64t61 26t62 -27q26 -27 26 -57t-25 -80l-81 -158h-68l49 152q-51 18 -51 80z" />
    <glyph glyph-name="idotaccent" horiz-adv-x="344" 
d="M109 0v674h127v-674h-127zM172 887q-34 1 -60 25t-26 61t26 61t60 25q34 0 60 -25q26 -26 26 -62t-26 -60t-60 -25z" />
    <glyph glyph-name="L_A" horiz-adv-x="2324" 
d="M1669 1124l-268 -661h534zM178 0v1393h133v-1274h656l-49 -119h-740zM2122 0l-140 344h-628l-140 -344h-135l586 1425h10l588 -1425h-141z" />
    <glyph glyph-name="G.alt" horiz-adv-x="1564" 
d="M812 -16q-312 0 -519 202t-207 509q0 306 207 510t506 204q379 0 573 -276l-102 -76q-162 231 -473 231q-246 0 -409 -169t-163 -423t163 -423t411 -169t382 126t156 327h-497v119h643q-2 -315 -180 -504q-179 -188 -491 -188z" />
    <glyph glyph-name="K.alt" horiz-adv-x="1167" 
d="M311 1393v-680l627 680h156l-633 -682l663 -711h-168l-645 690v-690h-133v1393h133z" />
    <glyph glyph-name="M.alt" horiz-adv-x="1685" 
d="M147 0l156 1421h10l529 -948l530 948h10l156 -1421h-131l-115 1063l-450 -815h-6l-449 815l-115 -1063h-125z" />
    <glyph glyph-name="Q.alt" horiz-adv-x="1601" 
d="M800 1288q-248 0 -411 -169q-164 -169 -164 -423t164 -423t412 -169q184 1 327 95l-172 186l97 82l172 -186q151 169 151 419t-164 419t-412 169zM801 -16q-299 0 -507 204t-208 508q0 305 208 509t507 204t507 -204t208 -509t-207 -508l229 -245l-94 -82l-232 248
q-182 -125 -411 -125z" />
    <glyph glyph-name="Q.alt1" horiz-adv-x="1601" 
d="M801 111q251 -1 413 165t162 421t-164 423t-412 168t-411 -168q-164 -168 -164 -423t163 -421t413 -165zM469 45q-139 0 -229 -115l-88 80q82 102 198 133q-124 93 -194 237t-70 316q0 305 208 509t507 204t507 -204t208 -504q0 -301 -192 -495t-484 -208l28 -25
q125 -104 186 -132q60 -27 148 -27t180 77l84 -88q-106 -111 -268 -110q-84 0 -166 33q-82 34 -130 68t-126 100t-150 109q-72 42 -157 42z" />
    <glyph glyph-name="W.alt" horiz-adv-x="1875" 
d="M879 831l-236 562h133l166 -402l164 402h127l-229 -551l241 -580l438 1131h132l-562 -1422h-12l-301 715l-297 -715h-12l-570 1422h138l448 -1133z" />
    <glyph glyph-name="AE.alt" horiz-adv-x="1875" 
d="M649 1126l-268 -663h518zM1376 1393v-119h-657l196 -514h574v-117h-526l200 -524h656v-119h-746l-129 344h-610l-139 -344h-134l574 1393h741z" />
    <glyph glyph-name="a.alt" horiz-adv-x="856" 
d="M414 94q98 0 157 68t59 176t-58 174q-60 68 -158 68t-160 -68t-61 -175q-1 -107 61 -175t160 -68zM402 -16q-152 0 -246 101t-94 252t94 252t246 101t225 -131v115h125v-674h-125v115q-73 -131 -225 -131z" />
    <glyph glyph-name="g.alt" horiz-adv-x="745" 
d="M127 -203q1 -69 65 -107t174 -38t173 40t63 110t-59 106q-59 35 -195 35q-221 0 -221 -146zM360 264q72 0 116 45t44 117t-44 118t-116 46t-116 -46t-45 -118q1 -72 45 -117t116 -45zM705 674v-101h-125q53 -66 53 -163q0 -98 -78 -172t-195 -74q-72 0 -133 29
q-45 -13 -45 -55t38 -60t161 -23q346 -14 346 -248q0 -121 -97 -193t-262 -71q-165 0 -262 67q-96 67 -96 179q0 152 164 201q-102 29 -102 123t90 131q-76 72 -76 184t79 188q79 74 195 74q52 0 101 -16h244z" />
    <glyph glyph-name="k.alt" horiz-adv-x="714" 
d="M229 0h-125v1454h125v-1075l291 295h146l-316 -324l346 -350h-161l-306 307v-307z" />
    <glyph glyph-name="u.alt" horiz-adv-x="798" 
d="M397 -16q-137 0 -219 78t-82 231v381h125v-373q0 -207 178 -207t179 207v373h124v-381q0 -153 -84 -231t-221 -78z" />
    <glyph glyph-name="Adieresis.alt" horiz-adv-x="1306" 
d="M950 1249q-32 0 -56 23q-24 22 -24 56t25 56t55 23q30 0 56 -23q24 -22 24 -56t-24 -56t-56 -23zM356 1249q-32 0 -56 23q-24 22 -24 56t25 56t55 23q30 0 56 -23q24 -22 24 -56t-24 -56t-56 -23zM649 1124l-266 -661h532zM1104 0l-139 344h-631l-137 -344h-136l586 1425
h10l588 -1425h-141z" />
    <glyph glyph-name="Aring.alt" horiz-adv-x="1306" 
d="M483 1422q0 56 49 106q49 49 119 49t119 -49t49 -115q0 -100 -96 -147l522 -1266h-141l-139 344h-631l-137 -344h-136l519 1264q-43 20 -70 61t-27 97zM651 1327q37 0 60 24q23 25 23 63t-24 62t-59 24t-59 -24t-23 -63t23 -63t59 -23zM649 1133l-266 -670h532z" />
    <glyph glyph-name="Gbreve.alt" horiz-adv-x="1564" 
d="M794 1524q-85 0 -142 47q-56 47 -74 123l102 20q29 -88 115 -88t114 88l105 -20q-18 -76 -76 -123t-144 -47zM812 -16q-312 0 -519 202t-207 509q0 306 207 510t506 204q379 0 573 -276l-102 -76q-162 231 -473 231q-246 0 -409 -169t-163 -423t163 -423t411 -169
t382 126t156 327h-497v119h643q-2 -315 -180 -504q-179 -188 -491 -188z" />
    <glyph glyph-name="Gcircumflex.alt" horiz-adv-x="1564" 
d="M812 -16q-312 0 -519 202t-207 509q0 306 207 510t506 204q379 0 573 -276l-102 -76q-162 231 -473 231q-246 0 -409 -169t-163 -423t163 -423t411 -169t382 126t156 327h-497v119h643q-2 -315 -180 -504q-179 -188 -491 -188zM569 1513l224 267h6l223 -267h-102
l-123 119l-125 -119h-103z" />
    <glyph glyph-name="Gcommaaccent.alt" horiz-adv-x="1564" 
d="M812 -16q-312 0 -519 202t-207 509q0 306 207 510t506 204q379 0 573 -276l-102 -76q-162 231 -473 231q-246 0 -409 -169t-163 -423t163 -423t411 -169t382 126t156 327h-497v119h643q-2 -315 -180 -504q-179 -188 -491 -188zM707 -176q-1 38 25 64t62 26t62 -27t27 -57
q0 -30 -25 -80l-82 -158h-67l49 152q-51 18 -51 80z" />
    <glyph glyph-name="Gdotaccent.alt" horiz-adv-x="1564" 
d="M795 1520q-35 0 -61 24t-25 62q-1 38 25 62t61 24t61 -25t25 -61q1 -36 -25 -62q-26 -24 -61 -24zM812 -16q-312 0 -519 202t-207 509q0 306 207 510t506 204q379 0 573 -276l-102 -76q-162 231 -473 231q-246 0 -409 -169t-163 -423t163 -423t411 -169t382 126t156 327
h-497v119h643q-2 -315 -180 -504q-179 -188 -491 -188z" />
    <glyph glyph-name="Kcommaaccent.alt" horiz-adv-x="1167" 
d="M502 -176q0 38 26 64t61 26q37 0 63 -27t26 -57t-25 -80l-82 -158h-67l49 152q-51 18 -51 80zM311 1393v-680l627 680h156l-633 -682l663 -711h-168l-645 690v-690h-133v1393h133z" />
    <glyph glyph-name="Odieresis.alt" horiz-adv-x="1601" 
d="M801 104q247 0 411 169t164 423t-164 423t-412 169t-411 -169q-164 -169 -164 -423t164 -423t412 -169zM801 -16q-299 0 -507 204t-208 508q0 305 208 509t507 204t507 -204t208 -509q0 -304 -208 -508t-507 -204zM219 1249q-33 0 -57 23q-24 22 -23 56q0 34 25 56
q26 22 56 23q30 0 54 -23q24 -22 25 -56t-23 -56t-57 -23zM1383 1249q-33 0 -57 23q-24 22 -24 56t26 56q24 22 54 23q30 0 56 -23q24 -22 24 -56t-24 -56t-55 -23z" />
    <glyph glyph-name="Udieresis.alt" horiz-adv-x="1316" 
d="M659 -16q-219 0 -355 127t-136 362v920h133v-910q0 -184 96 -281q96 -98 263 -98q166 0 262 98t96 281v910h133v-920q-1 -237 -137 -363t-355 -126zM539 1255q-29 0 -52 22q-23 23 -23 53t24 52q22 22 52 23q30 0 52 -23q22 -24 20 -54q0 -30 -22 -52t-51 -21zM778 1255
q-30 0 -52 22q-22 23 -22 53t24 52q22 22 50 23q28 0 52 -23q22 -24 22 -54t-22 -52t-52 -21z" />
    <glyph glyph-name="Ydieresis.alt" horiz-adv-x="1198" 
d="M670 0h-135v557l-488 836h150l405 -701l406 701h143l-481 -834v-559zM494 1260q-29 0 -51 20t-21 51q0 31 22 53t50 21q28 0 50 -22q22 -23 22 -53t-22 -50q-21 -20 -50 -20zM717 1260q-29 0 -51 20t-23 51q0 31 23 53q24 22 52 21q28 0 50 -22q22 -23 20 -53
q0 -30 -21 -50t-50 -20z" />
    <glyph glyph-name="aacute.alt" horiz-adv-x="856" 
d="M414 94q98 0 157 68t59 176t-58 174q-60 68 -158 68t-160 -68t-61 -175q-1 -107 61 -175t160 -68zM402 -16q-152 0 -246 101t-94 252t94 252t246 101t225 -131v115h125v-674h-125v115q-73 -131 -225 -131zM379 811l115 289h141l-156 -289h-100z" />
    <glyph glyph-name="abreve.alt" horiz-adv-x="856" 
d="M431 825q-85 0 -141 47t-75 123l102 21q29 -88 115 -88t115 88l104 -21q-19 -76 -77 -123t-143 -47zM414 94q98 0 157 68t59 176t-58 174q-60 68 -158 68t-160 -68t-61 -175q-1 -107 61 -175t160 -68zM402 -16q-152 0 -246 101t-94 252t94 252t246 101t225 -131v115h125
v-674h-125v115q-73 -131 -225 -131z" />
    <glyph glyph-name="acircumflex.alt" horiz-adv-x="856" 
d="M414 94q98 0 157 68t59 176t-58 174q-60 68 -158 68t-160 -68t-61 -175q-1 -107 61 -175t160 -68zM402 -16q-152 0 -246 101t-94 252t94 252t246 101t225 -131v115h125v-674h-125v115q-73 -131 -225 -131zM207 834l223 266h6l223 -266h-102l-123 118l-125 -118h-102z" />
    <glyph glyph-name="adieresis.alt" horiz-adv-x="856" 
d="M414 94q98 0 157 68t59 176t-58 174q-60 68 -158 68t-160 -68t-61 -175q-1 -107 61 -175t160 -68zM402 -16q-152 0 -246 101t-94 252t94 252t246 101t225 -131v115h125v-674h-125v115q-73 -131 -225 -131zM299 864q-31 0 -55 23t-25 55q0 32 25 56q26 24 56 24t54 -24
t25 -56q-1 -32 -25 -56q-24 -22 -55 -22zM565 864q-31 0 -55 23t-25 55q0 32 25 56q26 24 56 24t55 -24t25 -56t-26 -56q-24 -22 -55 -22z" />
    <glyph glyph-name="agrave.alt" horiz-adv-x="856" 
d="M383 811l-156 289h142l114 -289h-100zM414 94q98 0 157 68t59 176t-58 174q-60 68 -158 68t-160 -68t-61 -175q-1 -107 61 -175t160 -68zM402 -16q-152 0 -246 101t-94 252t94 252t246 101t225 -131v115h125v-674h-125v115q-73 -131 -225 -131z" />
    <glyph glyph-name="amacron.alt" horiz-adv-x="856" 
d="M246 893v98h372v-98h-372zM414 94q98 0 157 68t59 176t-58 174q-60 68 -158 68t-160 -68t-61 -175q-1 -107 61 -175t160 -68zM402 -16q-152 0 -246 101t-94 252t94 252t246 101t225 -131v115h125v-674h-125v115q-73 -131 -225 -131z" />
    <glyph glyph-name="aogonek.alt" horiz-adv-x="856" 
d="M414 94q98 0 157 68t59 176t-58 174q-60 68 -158 68t-160 -68t-61 -175q-1 -107 61 -175t160 -68zM471 -294q0 68 40 134q40 64 116 146v129q-73 -131 -225 -131t-246 101t-94 252t94 252t246 101t225 -131v115h125v-668q-92 -117 -127 -177q-35 -61 -35 -103
q0 -76 61 -76q49 0 74 39l66 -64q-53 -70 -156 -69q-72 0 -118 41t-46 109z" />
    <glyph glyph-name="aring.alt" horiz-adv-x="856" 
d="M414 94q98 0 157 68t59 176t-58 174q-60 68 -158 68t-160 -68t-61 -175q-1 -107 61 -175t160 -68zM402 -16q-152 0 -246 101t-94 252t94 252t246 101t225 -131v115h125v-674h-125v115q-73 -131 -225 -131zM432 866q37 0 60 24q22 24 22 62t-24 63q-24 23 -58 23t-58 -24
t-24 -62t22 -62t60 -24zM432 788q-70 0 -119 50t-49 114q0 66 49 115t119 49t119 -49t49 -115t-49 -115t-119 -49z" />
    <glyph glyph-name="atilde.alt" horiz-adv-x="856" 
d="M524 850q-45 0 -100 37t-78 37q-39 0 -57 -72l-90 14q27 162 141 162q45 0 100 -36t78 -36t35 16t22 54l91 -14q-27 -162 -142 -162zM414 94q98 0 157 68t59 176t-58 174q-60 68 -158 68t-160 -68t-61 -175q-1 -107 61 -175t160 -68zM402 -16q-152 0 -246 101t-94 252
t94 252t246 101t225 -131v115h125v-674h-125v115q-73 -131 -225 -131z" />
    <glyph glyph-name="gbreve.alt" horiz-adv-x="745" 
d="M378 825q-85 0 -141 47t-75 123l102 21q29 -88 115 -88t115 88l104 -21q-18 -76 -76 -123t-144 -47zM127 -203q1 -69 65 -107t174 -38t173 40t63 110t-59 106q-59 35 -195 35q-221 0 -221 -146zM360 264q72 0 116 45t44 117t-44 118t-116 46t-116 -46t-45 -118
q1 -72 45 -117t116 -45zM705 674v-101h-125q53 -66 53 -163q0 -98 -78 -172t-195 -74q-72 0 -133 29q-45 -13 -45 -55t38 -60t161 -23q346 -14 346 -248q0 -121 -97 -193t-262 -71q-165 0 -262 67q-96 67 -96 179q0 152 164 201q-102 29 -102 123t90 131q-76 72 -76 184
t79 188q79 74 195 74q52 0 101 -16h244z" />
    <glyph glyph-name="gcircumflex.alt" horiz-adv-x="745" 
d="M127 -203q1 -69 65 -107t174 -38t173 40t63 110t-59 106q-59 35 -195 35q-221 0 -221 -146zM360 264q72 0 116 45t44 117t-44 118t-116 46t-116 -46t-45 -118q1 -72 45 -117t116 -45zM705 674v-101h-125q53 -66 53 -163q0 -98 -78 -172t-195 -74q-72 0 -133 29
q-45 -13 -45 -55t38 -60t161 -23q346 -14 346 -248q0 -121 -97 -193t-262 -71q-165 0 -262 67q-96 67 -96 179q0 152 164 201q-102 29 -102 123t90 131q-76 72 -76 184t79 188q79 74 195 74q52 0 101 -16h244zM154 834l223 266h6l223 -266h-102l-123 118l-125 -118h-102z
" />
    <glyph glyph-name="gcommaaccent.alt" horiz-adv-x="743" 
d="M127 -203q1 -69 65 -107t174 -38t173 40t63 110t-59 106q-59 35 -195 35q-221 0 -221 -146zM360 264q72 0 116 45t44 117t-44 118t-116 46t-116 -46t-45 -118q1 -72 45 -117t116 -45zM705 674v-101h-125q53 -66 53 -163q0 -98 -78 -172t-195 -74q-72 0 -133 29
q-45 -13 -45 -55t38 -60t161 -23q346 -14 346 -248q0 -121 -97 -193t-262 -71q-165 0 -262 67q-96 67 -96 179q0 152 164 201q-102 29 -102 123t90 131q-76 72 -76 184t79 188q79 74 195 74q52 0 101 -16h244zM463 936q0 -39 -27 -65q-28 -25 -62 -25t-61 26t-27 58
q0 31 25 80l82 157h68l-49 -151q51 -18 51 -80z" />
    <glyph glyph-name="gdotaccent.alt" horiz-adv-x="743" 
d="M379 858q-35 0 -61 25t-26 61t26 62q26 24 61 24t61 -24t25 -62q1 -38 -25 -62t-61 -24zM127 -203q1 -69 65 -107t174 -38t173 40t63 110t-59 106q-59 35 -195 35q-221 0 -221 -146zM360 264q72 0 116 45t44 117t-44 118t-116 46t-116 -46t-45 -118q1 -72 45 -117
t116 -45zM705 674v-101h-125q53 -66 53 -163q0 -98 -78 -172t-195 -74q-72 0 -133 29q-45 -13 -45 -55t38 -60t161 -23q346 -14 346 -248q0 -121 -97 -193t-262 -71q-165 0 -262 67q-96 67 -96 179q0 152 164 201q-102 29 -102 123t90 131q-76 72 -76 184t79 188
q79 74 195 74q52 0 101 -16h244z" />
    <glyph glyph-name="kcommaaccent.alt" horiz-adv-x="714" 
d="M229 0h-125v1454h125v-1075l291 295h146l-316 -324l346 -350h-161l-306 307v-307zM283 -176q1 38 27 64t61 26t61 -27t27 -57q0 -30 -25 -80l-82 -158h-67l49 152q-51 18 -51 80z" />
    <glyph glyph-name="uacute.alt" horiz-adv-x="798" 
d="M397 -16q-137 0 -219 78t-82 231v381h125v-373q0 -207 178 -207t179 207v373h124v-381q0 -153 -84 -231t-221 -78zM346 811l115 289h141l-156 -289h-100z" />
    <glyph glyph-name="ubreve.alt" horiz-adv-x="798" 
d="M398 825q-85 0 -141 47t-75 123l103 21q29 -88 115 -88t114 88l104 -21q-18 -76 -76 -123t-144 -47zM397 -16q-137 0 -219 78t-82 231v381h125v-373q0 -207 178 -207t179 207v373h124v-381q0 -153 -84 -231t-221 -78z" />
    <glyph glyph-name="ucircumflex.alt" horiz-adv-x="798" 
d="M397 -16q-137 0 -219 78t-82 231v381h125v-373q0 -207 178 -207t179 207v373h124v-381q0 -153 -84 -231t-221 -78zM174 834l223 266h6l224 -266h-103l-123 118l-125 -118h-102z" />
    <glyph glyph-name="udieresis.alt" horiz-adv-x="798" 
d="M397 -16q-137 0 -219 78t-82 231v381h125v-373q0 -207 178 -207t179 207v373h124v-381q0 -153 -84 -231t-221 -78zM266 864q-32 0 -56 23t-24 55t25 56t55 24t56 -24q24 -24 24 -56t-24 -56q-24 -22 -56 -22zM532 864q-32 0 -56 23t-24 55t26 56q24 24 54 24t56 -24
q24 -24 24 -56t-24 -56q-24 -22 -56 -22z" />
    <glyph glyph-name="ugrave.alt" horiz-adv-x="798" 
d="M397 -16q-137 0 -219 78t-82 231v381h125v-373q0 -207 178 -207t179 207v373h124v-381q0 -153 -84 -231t-221 -78zM350 811l-155 289h141l115 -289h-101z" />
    <glyph glyph-name="uhungarumlaut.alt" horiz-adv-x="796" 
d="M397 -16q-137 0 -219 78t-82 231v381h125v-373q0 -207 178 -207t179 207v373h124v-381q0 -153 -84 -231t-221 -78zM238 811l108 289h129l-137 -289h-100zM459 811l110 289h129l-139 -289h-100z" />
    <glyph glyph-name="umacron.alt" horiz-adv-x="798" 
d="M397 -16q-137 0 -219 78t-82 231v381h125v-373q0 -207 178 -207t179 207v373h124v-381q0 -153 -84 -231t-221 -78zM213 893v98h373v-98h-373z" />
    <glyph glyph-name="uogonek.alt" horiz-adv-x="798" 
d="M397 -16q-137 0 -219 78t-82 231v381h125v-373q0 -207 178 -207t179 207v373h124v-381q0 -123 -59 -203q-10 -14 -78 -83q-69 -69 -119 -149t-50 -126q-1 -82 61 -82q49 0 73 39l66 -64q-53 -70 -156 -69q-72 0 -118 41t-46 112q0 117 150 277q-11 -2 -29 -2z" />
    <glyph glyph-name="uring.alt" horiz-adv-x="796" 
d="M397 -16q-137 0 -219 78t-82 231v381h125v-373q0 -207 178 -207t179 207v373h124v-381q0 -153 -84 -231t-221 -78zM399 866q37 0 60 24t23 62t-24 63q-24 23 -59 23t-59 -24t-23 -62t23 -62t59 -24zM399 788q-71 0 -119 50t-48 114q0 66 48 115q50 49 120 49t118 -49
q49 -49 49 -115t-49 -115t-119 -49z" />
    <glyph glyph-name="f_b.alt" horiz-adv-x="1306" 
d="M889 94q100 0 164 68q63 68 63 176t-63 174q-63 68 -163 68t-162 -68t-62 -175t62 -175t161 -68zM266 674h154v-107h-154v-567h-125v567h-88v107h88v526q0 129 76 200q76 70 192 70q117 0 189 -70t72 -202v-639q74 131 243 131q141 0 237 -101t95 -252q0 -151 -95 -252
t-237 -101q-170 0 -243 131v-115h-125v1194q0 168 -139 168t-140 -164v-524z" />
    <glyph glyph-name="f_f_b.alt" horiz-adv-x="1710" 
d="M1292 94q100 0 164 68t64 176t-64 174q-64 68 -164 68t-162 -68t-61 -175q-1 -107 61 -175t162 -68zM141 567h-88v107h88v579q-1 105 51 161t145 56t150 -57l-69 -84q-27 31 -74 31q-78 0 -78 -111v-575h279v526q0 129 76 200q75 70 191 70t188 -70t73 -202v-639
q74 131 244 131q141 0 236 -101t95 -252t-94 -252q-96 -101 -237 -101q-170 0 -244 131v-115h-125v1194q0 168 -139 168t-139 -164v-524h153v-107h-153v-567h-125v567h-279v-567h-125v567z" />
    <glyph glyph-name="f_f_h.alt" horiz-adv-x="1656" 
d="M141 567h-88v107h88v579q-1 105 51 161t145 56t150 -57l-69 -84q-27 31 -74 31q-78 0 -78 -111v-575h279v526q0 129 76 200q75 70 191 70t188 -70t73 -202v-633q76 125 232 125q115 0 187 -72t71 -204v-414h-125v401q0 176 -164 177q-92 0 -146 -54t-55 -151v-373h-125
v1194q0 168 -139 168t-139 -164v-524h153v-107h-153v-567h-125v567h-279v-567h-125v567z" />
    <glyph glyph-name="f_f_k.alt" horiz-adv-x="1562" 
d="M1075 0h-125v1194q0 168 -139 168t-139 -164v-524h151v-107h-151v-567h-127v567h-279v-567h-125v567h-88v107h88v579q-1 105 51 161t143 56t148 -57l-61 -90q-31 37 -78 37q-78 0 -78 -111v-575h279v526q0 129 77 200q76 70 192 70t188 -70t73 -202v-819l291 295h145
l-315 -324l348 -350h-162l-307 307v-307z" />
    <glyph glyph-name="ffl.alt" horiz-adv-x="1185" 
d="M545 674v526q0 129 77 200q76 70 192 70t188 -70t73 -202v-1198h-125v1194q0 168 -140 168t-140 -164v-524h153v-107h-153v-567h-125v567h-279v-567h-125v567h-88v107h88v579q-1 105 51 161t145 56t150 -57l-69 -84q-27 31 -74 31q-78 0 -78 -111v-575h279z" />
    <glyph glyph-name="f_h.alt" horiz-adv-x="1253" 
d="M266 674h154v-107h-154v-567h-125v567h-88v107h88v526q0 129 76 200q76 70 192 70q117 0 189 -70t72 -202v-633q76 125 231 125q115 0 187 -72t71 -204v-414h-125v401q0 176 -164 177q-92 0 -146 -54t-54 -151v-373h-125v1194q0 168 -139 168t-140 -164v-524z" />
    <glyph glyph-name="f_k.alt" horiz-adv-x="1157" 
d="M672 0h-127v1194q0 168 -139 168t-140 -164v-524h154v-107h-154v-567h-125v567h-88v107h88v526q0 129 76 200q76 70 192 70q115 0 189 -70t74 -202v-819l291 295h145l-317 -324l348 -350h-162l-305 307v-307z" />
    <glyph glyph-name="fl.alt" horiz-adv-x="780" 
d="M266 567v-567h-125v567h-88v107h88v526q0 129 76 200q76 70 192 70q117 0 189 -70t72 -202v-1198h-125v1194q0 168 -139 168t-140 -164v-524h154v-107h-154z" />
    <glyph glyph-name="space.up" horiz-adv-x="454" 
 />
    <glyph glyph-name="dollar.up" horiz-adv-x="1056" 
d="M256 1083q0 -88 50 -143t167 -113v467q-96 -6 -157 -64q-60 -59 -60 -147zM825 345q0 101 -60 163t-192 129v-537q121 12 187 78q65 66 65 167zM127 1081q0 137 98 229t248 99v174h100v-180q195 -23 304 -203l-101 -63q-78 129 -203 151v-508l29 -14q186 -86 270 -178
t84 -245t-102 -249t-281 -108v-224h-100v224q-291 20 -426 276l109 62q111 -203 317 -224v586q-177 79 -262 168q-84 90 -84 227z" />
    <glyph glyph-name="Euro.up" horiz-adv-x="1591" 
d="M938 -16q-254 0 -444 148t-246 388h-193v103h176q-2 25 -2 69t2 66h-176v102h191q53 246 242 398t446 151q348 0 547 -260l-103 -74q-164 213 -446 213q-199 0 -346 -119t-197 -309h670v-102h-688q-2 -20 -2 -56t4 -79h686v-103h-668q53 -188 201 -302t350 -114
q299 0 473 232l105 -74q-213 -278 -582 -278z" />
    <glyph glyph-name="sterling.up" horiz-adv-x="1101" 
d="M133 162q-1 -38 27 -60t74 -22t83 32t52 78q-73 56 -127 56t-82 -23t-27 -61zM111 602v103h153q-68 170 -67 307q-1 170 119 284t307 113q143 0 245 -67t154 -179l-109 -61q-94 193 -292 192q-129 0 -208 -78t-79 -204q0 -127 65 -307h394v-103h-355q68 -180 68 -315
q0 -25 -8 -66q51 -41 81 -60q93 -59 206 -60q112 -1 206 100l84 -80q-127 -138 -276 -138q-149 1 -254 70q-37 25 -90 68q-74 -137 -226 -137q-86 0 -144 48t-58 130t56 131t139 49t163 -45q-4 127 -78 305h-196z" />
    <glyph glyph-name="yen.up" horiz-adv-x="1208" 
d="M137 645h357l-437 748h150l401 -695l398 695h143l-432 -748h356v-102h-399v-123h399v-103h-399v-317h-135v317h-402v103h402v123h-402v102z" />
    <glyph glyph-name="florin.up" horiz-adv-x="714" 
d="M94 526v107h144l63 557q23 219 225 219q100 0 170 -84l-82 -80q-37 51 -90 51q-84 0 -96 -110l-63 -553h172v-107h-185l-108 -960h-125l106 960h-131z" />
    <glyph glyph-name="zero.up" horiz-adv-x="1300" 
d="M649 104q182 0 302 146t120 446t-120 446t-302 146t-301 -146t-119 -446t119 -446t301 -146zM649 -16q-239 0 -399 180t-160 532t161 532t399 181q238 0 399 -180q161 -181 161 -533t-162 -532t-399 -180z" />
    <glyph glyph-name="one.up" horiz-adv-x="598" 
d="M270 0v1274h-202v119h338v-1393h-136z" />
    <glyph glyph-name="two.up" horiz-adv-x="1073" 
d="M59 0v10l578 615q100 106 148 197q49 91 49 203q0 111 -76 187t-202 76t-209 -72t-118 -186l-118 39q39 150 154 245q116 95 295 95t294 -109t115 -278q-1 -127 -63 -239t-177 -234l-403 -430h653v-119h-920z" />
    <glyph glyph-name="three.up" horiz-adv-x="1110" 
d="M541 -16q-172 0 -299 74t-193 198l111 59q119 -211 377 -211q170 0 268 94t98 248q0 152 -101 239t-274 87q-100 0 -190 -29l-8 13l438 518h-606v119h839v-11l-432 -508q205 2 337 -118t132 -319q0 -201 -138 -327t-359 -126z" />
    <glyph glyph-name="four.up" horiz-adv-x="1134" 
d="M793 426v686l-539 -686h539zM924 426h149v-113h-149v-313h-131v313h-760v17l876 1091h15v-995z" />
    <glyph glyph-name="five.up" horiz-adv-x="1107" 
d="M530 -16q-160 0 -286 70t-195 192l113 61q117 -205 368 -205q164 0 260 100t95 253q0 155 -89 243t-261 88q-215 0 -349 -118l-10 6v719h754v-119h-633v-428q113 59 254 59q219 0 346 -124q127 -125 127 -329t-134 -336t-360 -132z" />
    <glyph glyph-name="six.up" horiz-adv-x="1126" 
d="M566 102q155 0 250 100t95 248q0 146 -93 246t-251 100t-252 -98q-94 -100 -94 -247t95 -248t250 -101zM567 -16q-209 0 -345 134t-136 311t115 341l436 623h147l-376 -535q82 53 182 53q196 0 326 -133q130 -132 130 -328t-134 -331q-136 -135 -345 -135z" />
    <glyph glyph-name="seven.up" horiz-adv-x="1099" 
d="M66 1274v119h989v-11l-693 -1382h-143l639 1274h-792z" />
    <glyph glyph-name="eight.up" horiz-adv-x="1128" 
d="M565 799q125 1 201 69t76 178t-77 179t-202 69t-201 -70t-76 -179q0 -110 78 -178q76 -68 201 -68zM564 102q155 0 249 81t94 212t-94 214t-248 83t-249 -83t-95 -214t94 -212t249 -81zM975 1053q0 -221 -217 -303q129 -39 208 -130t78 -227q0 -182 -134 -296
q-134 -113 -345 -113t-346 114t-135 295q0 135 78 227t207 130q-217 80 -217 303q0 154 118 255q119 101 293 101t293 -101t119 -255z" />
    <glyph glyph-name="nine.up" horiz-adv-x="1140" 
d="M564 582q161 0 257 102t97 252q0 150 -96 252t-255 102q-160 0 -256 -102t-96 -252t94 -252t255 -102zM543 467q-201 0 -332 136t-131 334t137 335t349 137t350 -136t139 -333q0 -145 -125 -336l-400 -604h-145l346 520q-92 -53 -188 -53z" />
    <glyph glyph-name="percent.up" horiz-adv-x="1398" 
d="M1028 -16q-125 0 -216 87t-91 217t91 217t216 87t216 -87t91 -217t-91 -217t-216 -87zM1028 92q78 0 133 54t55 140t-54 142q-56 55 -134 55t-133 -55t-55 -141q0 -87 55 -141t133 -54zM219 0l828 1393h133l-828 -1393h-133zM371 801q-125 0 -216 87t-91 217t90 217
q92 87 217 87t216 -87t91 -217t-91 -217t-216 -87zM371 909q78 -1 133 55t55 142t-54 140t-134 54t-134 -54q-55 -54 -55 -140t56 -142t133 -55z" />
    <glyph glyph-name="perthousand.up" horiz-adv-x="2095" 
d="M1724 -16q-125 0 -217 87t-92 217t92 217t217 87t216 -87q92 -87 92 -217t-92 -217t-216 -87zM1534 287q0 -87 55 -141t134 -54t134 54q54 54 54 140t-54 142q-53 55 -133 55t-135 -55t-55 -141zM1028 -16q-125 0 -216 87t-91 217t91 217t216 87t216 -87t91 -217
t-91 -217t-216 -87zM1028 92q78 0 133 54t55 140t-54 142q-56 55 -134 55t-133 -55t-55 -141q0 -87 55 -141t133 -54zM219 0l828 1393h133l-828 -1393h-133zM371 801q-125 0 -216 87t-91 217t90 217q92 87 217 87t216 -87t91 -217t-91 -217t-216 -87zM371 909q78 -1 133 55
t55 142t-54 140t-134 54t-134 -54q-55 -54 -55 -140t56 -142t133 -55z" />
    <glyph glyph-name="fraction.up" horiz-adv-x="888" 
d="M-53 0l862 1393h133l-862 -1393h-133z" />
    <glyph glyph-name="plus.up" horiz-adv-x="780" 
d="M451 600v-272h-121v272h-254v115h254v274h121v-274h254v-115h-254z" />
    <glyph glyph-name="minus.up" horiz-adv-x="757" 
d="M682 600h-606v115h606v-115z" />
    <glyph glyph-name="multiply.up" horiz-adv-x="710" 
d="M430 639l207 -207l-76 -76l-207 207l-207 -207l-73 76l207 207l-207 207l73 74l207 -207l207 207l76 -74z" />
    <glyph glyph-name="divide.up" horiz-adv-x="780" 
d="M391 297q-37 0 -65 27q-28 28 -29 66q0 38 29 66q30 28 66 28t64 -28t28 -67t-28 -65t-65 -27zM391 834q-37 0 -65 26t-29 67q0 41 28 67q27 26 65 26t66 -27t28 -67t-28 -66t-65 -26zM705 600h-629v115h629v-115z" />
    <glyph glyph-name="equal.up" horiz-adv-x="802" 
d="M76 461v112h651v-112h-651zM76 700v113h651v-113h-651z" />
    <glyph glyph-name="less.up" horiz-adv-x="741" 
d="M664 297l-609 336v8l609 330v-123l-400 -213l400 -213v-125z" />
    <glyph glyph-name="greater.up" horiz-adv-x="741" 
d="M78 297v125l399 213l-399 213v123l608 -334v-8z" />
    <glyph glyph-name="degree.up" horiz-adv-x="643" 
d="M322 991q70 0 114 46t43 116q0 70 -44 117q-43 47 -113 47t-114 -47t-44 -117t44 -116t114 -46zM322 1409q110 0 186 -74t76 -181t-76 -182t-185 -75q-110 0 -187 75q-77 74 -77 182t76 182t187 73z" />
    <glyph glyph-name="ordfeminine.up" horiz-adv-x="718" 
d="M510 1051h-186q-62 0 -102 -28t-40 -81q0 -109 146 -108q76 0 129 36t53 103v78zM510 1137v6q0 92 -38 129t-112 37q-109 0 -186 -95l-74 66q90 129 271 129q117 0 189 -63t71 -197v-397h-121v73q-70 -90 -190 -90t-188 53q-69 54 -69 152t72 147t180 50h195z" />
    <glyph glyph-name="ordmasculine.up" horiz-adv-x="798" 
d="M400 836q95 0 157 67q61 68 61 170t-61 169t-157 67t-156 -67q-62 -67 -62 -169q0 -101 62 -169t156 -68zM400 735q-142 -1 -241 97t-99 240t98 240q100 98 242 97q142 0 242 -97q100 -98 99 -240q1 -142 -99 -240t-242 -97z" />
    <glyph glyph-name="comma.up" horiz-adv-x="350" 
d="M80 84q0 41 29 69q29 27 67 27t68 -28q59 -56 0 -146l-88 -174h-72l53 164q-57 23 -57 88z" />
    <glyph glyph-name="hyphen.up" horiz-adv-x="487" 
d="M78 588v114h332v-114h-332z" />
    <glyph glyph-name="endash.up" horiz-adv-x="878" 
d="M78 582v120h723v-120h-723z" />
    <glyph glyph-name="emdash.up" horiz-adv-x="1388" 
d="M78 582v120h1233v-120h-1233z" />
    <glyph glyph-name="parenleft.up" horiz-adv-x="563" 
d="M86 664q0 512 346 874l82 -68q-293 -338 -293 -806t293 -807l-82 -68q-346 363 -346 875z" />
    <glyph glyph-name="parenright.up" horiz-adv-x="563" 
d="M344 664q0 465 -293 806l80 68q348 -360 348 -874t-348 -875l-80 68q293 342 293 807z" />
    <glyph glyph-name="at.up" horiz-adv-x="1566" 
d="M559 678q-1 -102 57 -169t150 -67t150 67t59 169q-1 102 -59 170t-150 68t-150 -68q-57 -68 -57 -170zM803 -31q-313 0 -522 207t-209 512t209 513t511 208t502 -195q199 -195 199 -485q0 -197 -78 -300t-201 -103q-176 0 -217 157q-82 -152 -254 -151q-133 0 -225 100
t-92 246t92 248q92 100 238 100t217 -135v117h129v-433q0 -145 115 -145q69 0 115 76t46 221q0 252 -160 414t-426 162q-266 1 -431 -175t-165 -439t168 -438q167 -175 435 -175q172 0 297 71l53 -92q-143 -86 -346 -86z" />
    <glyph glyph-name="section.up" horiz-adv-x="1124" 
d="M920 375q0 78 -48 129t-161 100l-254 107q-86 37 -144 88q-109 -59 -108 -174q0 -82 45 -131t151 -95l240 -100q99 -43 160 -90q119 55 119 166zM559 1409q260 0 371 -207l-107 -65q-82 156 -264 155q-111 0 -174 -60t-63 -154t47 -149q47 -56 141 -98l254 -106
q150 -63 218 -145t67 -199q0 -160 -175 -246q64 -83 64 -207t-103 -210t-273 -87q-170 0 -280 65q-112 65 -169 163l100 71q111 -180 332 -180q123 0 189 53t67 141q0 88 -51 136q-51 49 -162 96l-240 103q-141 61 -207 139t-65 192q0 172 172 258q-64 94 -64 222t106 224
t269 95z" />
    <glyph glyph-name="numbersign.up" horiz-adv-x="976" 
d="M631 1061h-219l-70 -283h217zM131 1061v106h195l57 226h113l-58 -226h219l58 226h114l-57 -226h160v-106h-187l-71 -283h170v-104h-197l-53 -213h-115l53 213h-217l-53 -213h-115l54 213h-156v104h182l72 283h-168z" />
    <glyph glyph-name="copyright.up" horiz-adv-x="1609" 
d="M815 256q-184 0 -313 125t-129 313t129 314t313 127q221 0 338 -166l-100 -78q-85 121 -225 121t-229 -91t-89 -227t89 -225q89 -88 233 -88t231 123l102 -72q-117 -176 -350 -176zM805 66q262 0 444 180t183 450q0 270 -182 450t-445 181q-263 0 -445 -180
q-182 -181 -182 -451t182 -450t445 -180zM805 -16q-293 0 -504 204t-211 508q0 303 211 508t504 205t504 -205t211 -508q0 -304 -211 -508t-504 -204z" />
    </font>
</defs>
</svg>
