<?xml version="1.0" standalone="no"?>
<!DOCTYPE svg PUBLIC "-//W3C//DTD SVG 1.1//EN" "http://www.w3.org/Graphics/SVG/1.1/DTD/svg11.dtd" >
<svg xmlns="http://www.w3.org/2000/svg">
<metadata>
Created by FontPrep 20130207 at Thu Jun 29 09:38:37 2017
 By Martin Greenwood
(C)2007 House Industries/Brand Design Co., Inc. All Rights Reserved.
</metadata>
<defs>
<font id="d20946f9d38d51645db8bde272b58bcd" horiz-adv-x='1024' >
  <font-face 
    font-family="Neutraface2Display-Light"
    font-weight="300"
    font-stretch="normal"
    units-per-em="2048"
    panose-1="2 0 6 0 3 0 0 2 0 4"
    ascent="1597"
    descent="-451"
    x-height="651"
    cap-height="1393"
    bbox="-49 -457.014 2234 1798"
    underline-thickness="40"
    underline-position="-231"
    unicode-range="U+0020-FB04"
  />
<missing-glyph horiz-adv-x="1024" 
 />
    <glyph glyph-name="ff" unicode="ff" horiz-adv-x="841" 
d="M606 598v-598h-61v598h-326v-598h-61v598h-92v53h92v637q0 88 44 135t124 47t129 -65l-41 -39q-39 49 -97 49q-98 0 -98 -135v-629h326v637q0 88 44 135t124 47t129 -65l-41 -39q-39 49 -96 49q-98 0 -99 -135v-629h170v-53h-170z" />
    <glyph glyph-name="fi" unicode="fi" horiz-adv-x="737" 
d="M219 598v-598h-61v598h-92v53h92v637q0 88 44 135t124 47t129 -65l-41 -39q-39 49 -97 49q-98 0 -98 -135v-629h387v-651h-61v598h-326zM575 881q-20 0 -35 15q-16 16 -16 36t16 36t35 15q19 0 35 -15q16 -16 16 -36t-15 -36q-16 -16 -36 -15z" />
    <glyph glyph-name="fl" unicode="fl" horiz-adv-x="737" 
d="M545 0v1454h61v-1454h-61zM219 598v-598h-61v598h-92v53h92v645q0 84 43 129t115 45t120 -59l-43 -37q-27 41 -84 41q-90 0 -90 -127v-637h170v-53h-170z" />
    <glyph glyph-name="ffi" unicode="ffi" horiz-adv-x="1124" 
d="M606 598v-598h-61v598h-326v-598h-61v598h-92v53h92v637q0 88 44 135t124 47t129 -65l-41 -39q-39 49 -97 49q-98 0 -98 -135v-629h326v637q0 88 44 135t124 47t129 -65l-41 -39q-39 49 -96 49q-98 0 -99 -135v-629h387v-651h-61v598h-326zM963 881q-20 0 -36 15
q-15 16 -15 36t14 36q16 16 36 15q20 0 36 -15q16 -16 16 -36t-16 -36t-35 -15z" />
    <glyph glyph-name="ffl" unicode="ffl" horiz-adv-x="1124" 
d="M932 0v1454h61v-1454h-61zM606 598v-598h-61v598h-326v-598h-61v598h-92v53h92v637q0 88 44 135t124 47t129 -65l-41 -39q-39 49 -97 49q-98 0 -98 -135v-629h326v645q0 84 43 129q44 45 116 45t119 -59l-43 -37q-27 41 -84 41q-90 0 -90 -127v-637h170v-53h-170z" />
    <glyph glyph-name="f_b" unicode="fb" horiz-adv-x="1275" 
d="M872 39q119 0 195 81t76 206q0 126 -76 206t-195 80q-118 0 -194 -81t-76 -205t76 -206q76 -81 194 -81zM872 -16q-180 0 -266 157v-141h-61v1454h61v-944q86 158 266 158q142 0 238 -98t96 -244q0 -145 -95 -244q-96 -98 -239 -98zM219 598v-598h-61v598h-92v53h92v645
q0 84 43 129t115 45t120 -59l-43 -37q-27 41 -84 41q-90 0 -90 -127v-637h170v-53h-170z" />
    <glyph glyph-name="f_f_b" unicode="ffb" horiz-adv-x="1662" 
d="M1260 39q118 0 194 81t76 206q0 126 -76 206t-194 80t-195 -81q-76 -81 -76 -205t76 -206q76 -81 195 -81zM1260 -16q-180 0 -267 157v-141h-61v1454h61v-944q86 158 267 158q143 0 238 -98t95 -244t-95 -244t-238 -98zM606 598v-598h-61v598h-326v-598h-61v598h-92v53
h92v637q0 88 44 135t124 47t129 -65l-41 -39q-39 49 -97 49q-98 0 -98 -135v-629h326v645q0 84 43 129q44 45 116 45t119 -59l-43 -37q-27 41 -84 41q-90 0 -90 -127v-637h170v-53h-170z" />
    <glyph glyph-name="f_f_f" unicode="fff" horiz-adv-x="1228" 
d="M606 598v-598h-61v598h-326v-598h-61v598h-92v53h92v637q0 88 44 135t124 47t129 -65l-41 -39q-39 49 -97 49q-98 0 -98 -135v-629h326v637q0 88 44 135t124 47t129 -65l-41 -39q-39 49 -96 49q-98 0 -99 -135v-629h326v637q0 88 44 135t124 47t129 -65l-41 -39
q-39 49 -96 49q-98 0 -99 -135v-629h170v-53h-170v-598h-61v598h-326z" />
    <glyph glyph-name="f_f_h" unicode="ffh" horiz-adv-x="1603" 
d="M932 0v1454h61v-926q82 139 242 140q113 0 183 -67t71 -195v-406h-62v395q0 217 -194 217q-106 0 -173 -66t-67 -175v-371h-61zM606 598v-598h-61v598h-326v-598h-61v598h-92v53h92v637q0 88 44 135t124 47t129 -65l-41 -39q-39 49 -97 49q-98 0 -98 -135v-629h326v645
q0 84 43 129q44 45 116 45t119 -59l-43 -37q-27 41 -84 41q-90 0 -90 -127v-637h170v-53h-170z" />
    <glyph glyph-name="f_f_j" unicode="ffj" horiz-adv-x="1124" 
d="M606 598v-598h-61v598h-326v-598h-61v598h-92v53h92v637q0 88 44 135t124 47t129 -65l-41 -39q-39 49 -97 49q-98 0 -98 -135v-629h326v637q0 88 44 135t124 47t129 -65l-41 -39q-39 49 -96 49q-98 0 -99 -135v-629h387v-936q0 -80 -39 -123t-101 -43t-101 33l30 45
q29 -23 64 -22q86 0 86 116v877h-326zM963 881q-20 0 -36 15q-15 16 -15 36t14 36q16 16 36 15q20 0 36 -15q16 -16 16 -36t-16 -36t-35 -15z" />
    <glyph glyph-name="f_f_k" unicode="ffk" horiz-adv-x="1484" 
d="M993 0h-61v1454h61v-1184l334 381h72l-254 -289l309 -362h-78l-270 317l-113 -129v-188zM606 598v-598h-61v598h-326v-598h-61v598h-92v53h92v637q0 88 44 135t124 47t129 -65l-41 -39q-39 49 -97 49q-98 0 -98 -135v-629h326v645q0 84 43 129q44 45 116 45t119 -59
l-43 -37q-27 41 -84 41q-90 0 -90 -127v-637h170v-53h-170z" />
    <glyph glyph-name="f_h" unicode="fh" horiz-adv-x="1216" 
d="M545 0v1454h61v-926q82 139 242 140q114 0 184 -67t70 -195v-406h-62v395q0 217 -194 217q-106 0 -173 -66t-67 -175v-371h-61zM219 598v-598h-61v598h-92v53h92v645q0 84 43 129t115 45t120 -59l-43 -37q-27 41 -84 41q-90 0 -90 -127v-637h170v-53h-170z" />
    <glyph glyph-name="f_j" unicode="fj" horiz-adv-x="737" 
d="M219 598v-598h-61v598h-92v53h92v637q0 88 44 135t124 47t129 -65l-41 -39q-39 49 -97 49q-98 0 -98 -135v-629h387v-936q0 -80 -39 -123t-101 -43t-101 33l30 45q29 -23 64 -22q86 0 86 116v877h-326zM575 881q-20 0 -35 15q-16 16 -16 36t16 36t35 15q19 0 35 -15
q16 -16 16 -36t-15 -36q-16 -16 -36 -15z" />
    <glyph glyph-name="f_k" unicode="fk" horiz-adv-x="1097" 
d="M606 0h-61v1454h61v-1184l334 381h72l-254 -289l309 -362h-78l-270 317l-113 -129v-188zM219 598v-598h-61v598h-92v53h92v645q0 84 43 129t115 45t120 -59l-43 -37q-27 41 -84 41q-90 0 -90 -127v-637h170v-53h-170z" />
    <glyph glyph-name=".notdef" horiz-adv-x="1024" 
 />
    <glyph glyph-name=".null" horiz-adv-x="0" 
 />
    <glyph glyph-name="nonmarkingreturn" horiz-adv-x="681" 
 />
    <glyph glyph-name="space" unicode=" " horiz-adv-x="372" 
 />
    <glyph glyph-name="exclam" unicode="!" horiz-adv-x="413" 
d="M207 -12q-23 0 -40 16t-17 41t17 41t40 16t40 -16t17 -41t-17 -41t-40 -16zM174 322v1071h66v-1071h-66z" />
    <glyph glyph-name="quotedbl" unicode="&#x22;" horiz-adv-x="432" 
d="M96 1094l-10 299h70l-11 -299h-49zM287 1094l-11 299h70l-10 -299h-49z" />
    <glyph glyph-name="numbersign" unicode="#" horiz-adv-x="831" 
d="M567 727h-237l-68 -270h238zM102 727v53h183l61 244h57l-61 -244h238l61 244h57l-61 -244h154v-53h-166l-68 -270h172v-54h-186l-58 -231h-57l57 231h-237l-58 -231h-57l57 231h-149v54h164l67 270h-170z" />
    <glyph glyph-name="dollar" unicode="$" horiz-adv-x="819" 
d="M680 258q0 96 -51 145t-174 86l-31 9v-459q116 6 186 64q70 59 70 155zM152 794q0 -93 47 -139t166 -77v407q-93 -4 -153 -51t-60 -140zM365 1233h59v-195q184 -18 260 -174l-49 -24q-68 131 -211 143v-422l47 -14q141 -43 206 -111t65 -182t-88 -188q-87 -74 -230 -80
v-224h-59v224q-121 8 -208 69t-122 162l55 23q74 -186 275 -199v475l-29 8q-121 34 -183 96q-63 62 -63 173t81 177t194 70v193z" />
    <glyph glyph-name="percent" unicode="%" horiz-adv-x="1183" 
d="M872 37q80 0 134 54q53 54 53 137q0 84 -53 138q-54 54 -134 54t-133 -54t-53 -138t53 -137q53 -54 133 -54zM872 -16q-100 0 -173 70t-73 174q0 103 73 174t173 71t174 -71t72 -174q0 -103 -72 -174q-74 -70 -174 -70zM313 606q80 0 132 53q53 53 53 137t-54 137
q-54 54 -132 54q-79 0 -132 -54t-53 -137q0 -82 53 -136t133 -54zM313 553q-100 0 -173 71t-72 173q0 102 72 173q73 70 173 70t172 -70t72 -173q0 -102 -72 -173t-172 -71zM244 0l633 1024h65l-633 -1024h-65z" />
    <glyph glyph-name="ampersand" unicode="&#x26;" horiz-adv-x="1282" 
d="M498 43q278 0 407 260l-395 473q-182 -109 -240 -162q-118 -109 -118 -255t100 -231t246 -85zM371 1138q0 -102 92 -210l63 -76q229 143 230 295q0 90 -51 146q-51 57 -137 57t-141 -56q-56 -54 -56 -156zM995 762h62q0 -258 -80 -447l264 -315h-82l-213 254
q-150 -270 -448 -270q-172 0 -292 101t-120 267q0 130 60 209q34 45 61 76t85 71t85 56t96 57l-53 62q-113 133 -113 256t75 197q76 74 188 73q112 0 181 -76t68 -186q0 -178 -256 -338l371 -442q61 162 61 395z" />
    <glyph glyph-name="quotesingle" unicode="'" horiz-adv-x="241" 
d="M96 1094l-10 299h70l-11 -299h-49z" />
    <glyph glyph-name="parenleft" unicode="(" horiz-adv-x="520" 
d="M82 596q0 512 334 874l43 -38q-311 -352 -311 -836t311 -836l-43 -39q-334 363 -334 875z" />
    <glyph glyph-name="parenright" unicode=")" horiz-adv-x="520" 
d="M438 596q0 -512 -334 -875l-43 39q311 352 311 836t-311 836l43 38q334 -362 334 -874z" />
    <glyph glyph-name="asterisk" unicode="*" horiz-adv-x="704" 
d="M322 913l10 205l-164 -106l-29 53l172 88l-172 88l29 53l164 -106l-10 205h61l-10 -205l164 106l28 -53l-172 -88l172 -88l-28 -53l-164 106l10 -205h-61z" />
    <glyph glyph-name="plus" unicode="+" horiz-adv-x="638" 
d="M350 469v-231h-61v231h-209v57h209v232h61v-232h209v-57h-209z" />
    <glyph glyph-name="comma" unicode="," horiz-adv-x="290" 
d="M88 45q0 25 17 41t40 16t47 -23t5 -63l-68 -159h-39l37 135q-39 8 -39 53z" />
    <glyph glyph-name="hyphen" unicode="-" horiz-adv-x="454" 
d="M80 328v53h295v-53h-295z" />
    <glyph glyph-name="period" unicode="." horiz-adv-x="290" 
d="M145 -12q-23 0 -40 16t-17 41t17 41t40 16t40 -16t17 -41t-16 -41q-18 -16 -41 -16z" />
    <glyph glyph-name="slash" unicode="/" horiz-adv-x="825" 
d="M27 -262l635 1716h65l-635 -1716h-65z" />
    <glyph glyph-name="zero" unicode="0" horiz-adv-x="999" 
d="M500 41q166 0 259 131t93 340t-93 340t-259 131t-259 -131t-93 -340t92 -340q94 -131 260 -131zM500 -16q-188 0 -303 148t-115 380t115 380t303 148t303 -148t115 -380t-115 -380t-303 -148z" />
    <glyph glyph-name="one" unicode="1" horiz-adv-x="503" 
d="M258 0v967h-182v57h246v-1024h-64z" />
    <glyph glyph-name="two" unicode="2" horiz-adv-x="835" 
d="M41 0v8l356 340q61 59 97 95q118 121 147 190t29 123q0 117 -70 172t-170 55q-197 0 -266 -213l-55 18q35 119 121 186q87 66 204 66t208 -72t91 -200q0 -129 -88 -237t-213 -226l-266 -250h590v-55h-715z" />
    <glyph glyph-name="three" unicode="3" horiz-adv-x="849" 
d="M416 -16q-140 0 -239 60t-144 165l55 27q94 -195 309 -195q133 0 215 73q82 72 82 200t-79 199t-222 71q-70 0 -147 -33l-4 6l354 412h-494v55h605v-8l-330 -379q170 8 276 -80q107 -88 107 -242q0 -155 -102 -243t-242 -88z" />
    <glyph glyph-name="four" unicode="4" horiz-adv-x="897" 
d="M631 301v596l-486 -596h486zM692 301h142v-55h-142v-246h-61v246h-594v8l647 795h8v-748z" />
    <glyph glyph-name="five" unicode="5" horiz-adv-x="856" 
d="M424 -16q-138 0 -226 48q-89 48 -135 124l52 34q86 -150 291 -149q130 0 210 80t80 209t-79 206q-79 76 -227 76t-261 -96l-6 2v506h559v-55h-500v-357q88 57 211 58q169 0 269 -94t100 -248t-100 -249t-238 -95z" />
    <glyph glyph-name="six" unicode="6" horiz-adv-x="872" 
d="M439 41q130 0 210 81t80 211t-78 210t-208 80t-213 -85t-83 -210t81 -206t211 -81zM440 -16q-152 0 -255 99t-103 249q0 106 102 260l301 432h68l-274 -397q66 53 170 53q145 0 245 -100t100 -246t-100 -248q-102 -102 -254 -102z" />
    <glyph glyph-name="seven" unicode="7" horiz-adv-x="831" 
d="M70 969v55h721v-8l-529 -1016h-67l503 969h-628z" />
    <glyph glyph-name="eight" unicode="8" horiz-adv-x="856" 
d="M428 598q92 0 154 55q61 55 61 139t-62 138q-63 55 -153 55t-152 -55t-63 -138q0 -83 61 -139q62 -55 154 -55zM143 294q0 -112 81 -184t205 -71q124 0 204 71q80 70 80 184t-77 184t-208 69q-131 0 -208 -71q-77 -70 -77 -182zM429 -16q-153 0 -252 88t-99 204t60 192
q60 77 163 107q-70 31 -111 89t-40 131q0 102 79 174q80 71 200 71t199 -72t79 -159q0 -165 -152 -234q102 -31 163 -107q60 -76 60 -192t-98 -204t-251 -88z" />
    <glyph glyph-name="nine" unicode="9" horiz-adv-x="874" 
d="M435 983q-130 0 -210 -81t-80 -211t78 -210t208 -80t213 85t83 210t-81 206t-211 81zM434 1040q152 0 255 -99t104 -249q0 -106 -103 -260l-301 -432h-67l276 399q-68 -55 -172 -55q-145 0 -246 100q-100 100 -100 246t101 248t253 102z" />
    <glyph glyph-name="colon" unicode=":" horiz-adv-x="299" 
d="M150 -12q-23 0 -40 16t-18 41q0 25 18 41t40 16q24 0 40 -16t16 -41t-16 -41q-17 -16 -40 -16zM150 455q-23 0 -40 16t-18 41q0 25 18 41t40 16q24 0 40 -16t16 -41t-16 -41q-17 -16 -40 -16z" />
    <glyph glyph-name="semicolon" unicode=";" horiz-adv-x="299" 
d="M92 45q0 25 18 41t40 16q23 0 46 -23t5 -63l-68 -159h-39l37 135q-39 8 -39 53zM150 455q-23 0 -40 16t-18 41q0 25 18 41t40 16q24 0 40 -16t16 -41t-16 -41q-17 -16 -40 -16z" />
    <glyph glyph-name="less" unicode="&#x3c;" horiz-adv-x="638" 
d="M559 244l-493 252v8l493 248v-64l-379 -190l379 -191v-63z" />
    <glyph glyph-name="equal" unicode="=" horiz-adv-x="638" 
d="M80 367v57h479v-57h-479zM80 571v58h479v-58h-479z" />
    <glyph glyph-name="greater" unicode="&#x3e;" horiz-adv-x="638" 
d="M80 244v63l379 191l-379 190v64l493 -252v-8z" />
    <glyph glyph-name="question" unicode="?" horiz-adv-x="892" 
d="M389 -12q-23 0 -40 16t-17 41t17 41t40 16t40 -16t17 -41t-17 -41t-40 -16zM360 322v411h50q139 0 225 89q86 90 86 230t-82 220t-219 80q-203 0 -307 -199l-50 29q113 227 357 227q166 0 265 -100q99 -99 99 -259t-104 -265t-262 -107v-356h-58z" />
    <glyph glyph-name="at" unicode="@" horiz-adv-x="1454" 
d="M707 37q102 0 174 79q71 78 71 190t-71 192q-72 80 -174 80t-170 -80t-68 -192t68 -190t170 -79zM727 -352q-274 0 -460 194q-185 196 -185 474t185 472t464 193q279 0 460 -187t181 -454q0 -174 -68 -269t-155 -95q-88 0 -136 46t-59 123q-78 -162 -247 -161
q-127 0 -214 93t-87 228t87 231t214 95q170 0 243 -158v141h62v-421q0 -162 127 -162q76 0 124 80t48 229q0 244 -161 415t-419 171t-423 -178t-165 -434t165 -433q165 -178 419 -178q160 0 285 78l28 -47q-139 -86 -313 -86z" />
    <glyph glyph-name="A" unicode="A" horiz-adv-x="1302" 
d="M651 1276l-321 -807h639zM1155 0l-164 412h-684l-162 -412h-65l567 1427h8l568 -1427h-68z" />
    <glyph glyph-name="B" unicode="B" horiz-adv-x="1212" 
d="M268 57h396q188 0 283 85q95 86 95 232t-97 232t-281 86h-396v-635zM268 750h416q145 0 216 80t71 211q0 132 -82 213t-246 81h-375v-585zM203 0v1393h446q187 -1 287 -99t100 -252q0 -252 -207 -319q279 -76 279 -348q0 -167 -114 -271t-320 -104h-471z" />
    <glyph glyph-name="C" unicode="C" horiz-adv-x="1452" 
d="M803 -16q-303 0 -509 202t-204 510q2 309 203 511t498 202q332 0 540 -254l-49 -37q-186 231 -491 232q-269 0 -451 -186t-182 -468q0 -281 184 -467t461 -186q162 0 296 68t224 186l49 -37q-100 -132 -248 -204t-321 -72z" />
    <glyph glyph-name="D" unicode="D" horiz-adv-x="1351" 
d="M268 59h236q330 0 505 173t175 464t-175 464t-505 173h-236v-1274zM203 0v1393h311q344 1 541 -191t197 -506t-196 -506q-196 -190 -542 -190h-311z" />
    <glyph glyph-name="E" unicode="E" horiz-adv-x="1140" 
d="M203 0v1393h803v-58h-738v-608h662v-57h-662v-613h766v-57h-831z" />
    <glyph glyph-name="F" unicode="F" horiz-adv-x="1110" 
d="M203 0v1393h803v-58h-738v-649h670v-57h-670v-629h-65z" />
    <glyph glyph-name="G" unicode="G" horiz-adv-x="1484" 
d="M822 -16q-318 0 -525 202t-207 509q0 306 205 510t513 204t503 -217l-47 -43q-176 201 -460 201t-464 -186q-182 -186 -182 -468q0 -281 185 -467t479 -186t476 172v352h-458v58h524v-435q-224 -206 -542 -206z" />
    <glyph glyph-name="H" unicode="H" horiz-adv-x="1368" 
d="M1100 727v666h65v-1393h-65v670h-832v-670h-65v1393h65v-666h832z" />
    <glyph glyph-name="I" unicode="I" horiz-adv-x="487" 
d="M211 0v1393h65v-1393h-65z" />
    <glyph glyph-name="J" unicode="J" horiz-adv-x="921" 
d="M395 -16q-209 0 -317 182l51 35q86 -158 266 -158q125 0 199 72t74 215v1063h65v-1067q0 -166 -94 -254t-244 -88z" />
    <glyph glyph-name="K" unicode="K" horiz-adv-x="1175" 
d="M268 0h-65v1393h65v-840l711 840h76l-529 -625l578 -768h-80l-541 719l-215 -250v-469z" />
    <glyph glyph-name="L" unicode="L" horiz-adv-x="1011" 
d="M203 0v1393h65v-1336h674v-57h-739z" />
    <glyph glyph-name="M" unicode="M" horiz-adv-x="1691" 
d="M203 0v1421h8l635 -833l635 833h8v-1421h-62v1249l-581 -755h-6l-576 755v-1249h-61z" />
    <glyph glyph-name="N" unicode="N" horiz-adv-x="1447" 
d="M262 0h-59v1427h8l975 -1294v1260h59v-1428h-8l-975 1295v-1260z" />
    <glyph glyph-name="O" unicode="O" horiz-adv-x="1605" 
d="M803 43q276 0 461 186q184 186 184 467t-184 467q-184 187 -460 187t-462 -186q-184 -186 -184 -468q0 -281 184 -467t461 -186zM803 -16q-299 0 -506 204t-207 508q0 305 207 509t506 204t506 -204t207 -509q0 -304 -207 -508t-506 -204z" />
    <glyph glyph-name="P" unicode="P" horiz-adv-x="1101" 
d="M268 666h310q176 0 272 92t96 242t-96 242q-96 93 -272 93h-310v-669zM268 608v-608h-65v1393h383q202 0 314 -112t112 -282q0 -171 -112 -281t-314 -110h-318z" />
    <glyph glyph-name="Q" unicode="Q" horiz-adv-x="1605" 
d="M772 324h62v-281q266 13 440 197t174 460t-184 463t-460 187t-462 -186q-184 -186 -184 -464q0 -276 174 -460t440 -197v281zM834 -254h-62v238q-290 12 -486 214t-196 502t207 505q207 204 506 204t506 -204t207 -505q0 -300 -196 -502t-486 -214v-238z" />
    <glyph glyph-name="R" unicode="R" horiz-adv-x="1153" 
d="M268 672h318q178 0 273 90t95 237t-96 241t-272 95h-318v-663zM268 614v-614h-65v1393h391q202 0 314 -113q112 -114 112 -270t-86 -258t-244 -129l395 -623h-73l-389 614h-355z" />
    <glyph glyph-name="S" unicode="S" horiz-adv-x="1067" 
d="M492 1409q242 0 364 -197l-49 -28q-104 168 -315 168q-119 0 -196 -71t-77 -179q-1 -108 59 -170q60 -61 209 -135l125 -62q180 -88 256 -177q76 -88 76 -236t-110 -243t-304 -95q-313 0 -458 272l55 31q129 -244 419 -244q148 0 241 79t93 206q0 128 -66 202
q-67 74 -228 152l-127 61q-160 78 -232 156q-71 78 -71 209t96 216t240 85z" />
    <glyph glyph-name="T" unicode="T" horiz-adv-x="1064" 
d="M500 0v1335h-447v58h959v-58h-447v-1335h-65z" />
    <glyph glyph-name="U" unicode="U" horiz-adv-x="1298" 
d="M648 -16q-204 0 -332 125t-128 350v934h66v-928q0 -201 108 -313t285 -111q178 0 288 112t109 312v928h66v-934q0 -225 -129 -350t-333 -125z" />
    <glyph glyph-name="V" unicode="V" horiz-adv-x="1302" 
d="M647 -35l-567 1428h67l506 -1280l506 1280h64l-568 -1428h-8z" />
    <glyph glyph-name="W" unicode="W" horiz-adv-x="1914" 
d="M508 -35l-434 1428h65l377 -1252l438 1286h9l438 -1286l377 1252h63l-434 -1428h-8l-441 1288l-442 -1288h-8z" />
    <glyph glyph-name="X" unicode="X" horiz-adv-x="1241" 
d="M586 752l-416 641h72l379 -586l383 586h67l-416 -637l492 -756h-72l-457 700l-456 -700h-68z" />
    <glyph glyph-name="Y" unicode="Y" horiz-adv-x="1155" 
d="M610 0h-65v559l-488 834h74l447 -764l448 764h72l-488 -834v-559z" />
    <glyph glyph-name="Z" unicode="Z" horiz-adv-x="1155" 
d="M72 0v6l872 1329h-782v58h887v-7l-873 -1329h901v-57h-1005z" />
    <glyph glyph-name="bracketleft" unicode="[" horiz-adv-x="542" 
d="M172 -262v1716h289v-55h-225v-1606h225v-55h-289z" />
    <glyph glyph-name="backslash" unicode="\" horiz-adv-x="825" 
d="M733 -262l-635 1716h66l635 -1716h-66z" />
    <glyph glyph-name="bracketright" unicode="]" horiz-adv-x="542" 
d="M82 -262v55h225v1606h-225v55h289v-1716h-289z" />
    <glyph glyph-name="asciicircum" unicode="^" horiz-adv-x="714" 
d="M356 1331l-250 -395h-65l313 491h8l312 -491h-66z" />
    <glyph glyph-name="underscore" unicode="_" horiz-adv-x="491" 
d="M-4 -262v53h500v-53h-500z" />
    <glyph glyph-name="grave" unicode="`" horiz-adv-x="1024" 
d="M492 811l-140 270h68l123 -270h-51z" />
    <glyph glyph-name="a" unicode="a" horiz-adv-x="737" 
d="M561 336h-213q-88 0 -145 -35t-58 -111q0 -152 201 -151q88 0 152 46q63 46 63 132v119zM561 389v25q0 201 -182 200q-135 0 -207 -112l-45 30q90 135 252 136q115 0 179 -62t65 -188v-418h-62v86q-74 -102 -223 -102q-110 0 -182 54t-72 152t74 148t182 51h221z" />
    <glyph glyph-name="b" unicode="b" horiz-adv-x="856" 
d="M453 39q119 0 195 81t75 206q0 126 -76 206q-77 80 -195 80t-194 -81t-76 -205t76 -206q76 -81 195 -81zM453 -16q-180 0 -267 157v-141h-61v1454h61v-944q86 158 267 158q143 0 238 -98t95 -244t-95 -244t-238 -98z" />
    <glyph glyph-name="c" unicode="c" horiz-adv-x="714" 
d="M414 -16q-156 0 -250 99t-94 243t95 243t241 99t237 -99l-43 -37q-74 82 -196 82t-196 -82t-75 -206q0 -124 74 -207q73 -82 203 -82t211 94l43 -37q-94 -110 -250 -110z" />
    <glyph glyph-name="d" unicode="d" horiz-adv-x="858" 
d="M403 39q119 0 195 81t76 206q0 126 -76 206t-195 80t-195 -81t-75 -205q-1 -124 75 -206q76 -81 195 -81zM403 -16q-143 0 -238 98t-95 244t95 243q95 98 238 99q180 0 267 -158v944h61v-1454h-61v141q-87 -157 -267 -157z" />
    <glyph glyph-name="e" unicode="e" horiz-adv-x="790" 
d="M135 367h520q-11 111 -77 179t-176 68t-183 -69q-72 -69 -84 -178zM412 37q150 0 233 104l41 -37q-94 -120 -259 -120t-261 98t-96 242t96 244t235 100t227 -98t91 -257h-586q4 -127 83 -201t196 -75z" />
    <glyph glyph-name="f" unicode="f" horiz-adv-x="454" 
d="M219 598v-598h-61v598h-92v53h92v637q0 88 44 135t124 47t129 -65l-41 -39q-39 49 -97 49q-98 0 -98 -135v-629h170v-53h-170z" />
    <glyph glyph-name="g" unicode="g" horiz-adv-x="856" 
d="M403 39q119 0 195 81t76 206q0 126 -76 206t-195 80t-195 -81t-75 -205q-1 -124 75 -206q76 -81 195 -81zM731 -129q0 -147 -84 -237t-213 -89q-129 -1 -213 53t-121 142l56 20q32 -74 102 -116t174 -41t172 73q66 72 66 199v266q-86 -158 -267 -157q-143 0 -238 98
t-95 244t95 243q95 98 238 99q180 0 267 -158v141h61v-780z" />
    <glyph glyph-name="h" unicode="h" 
d="M125 0v1454h61v-926q82 139 242 140q114 0 184 -67t70 -195v-406h-61v395q0 217 -195 217q-106 0 -173 -66t-67 -175v-371h-61z" />
    <glyph glyph-name="i" unicode="i" horiz-adv-x="323" 
d="M131 0v651h62v-651h-62zM162 881q-20 0 -36 15q-15 16 -15 36t15 36q16 16 36 15q20 0 36 -15q16 -16 15 -36q0 -20 -15 -36q-16 -15 -36 -15z" />
    <glyph glyph-name="j" unicode="j" horiz-adv-x="323" 
d="M52 -451q-62 0 -101 33l31 45q29 -23 63 -22q86 0 86 116v930h62v-936q0 -80 -39 -123q-40 -43 -102 -43zM162 881q-20 0 -36 15q-15 16 -15 36t15 36q16 16 36 15q20 0 36 -15q16 -16 15 -36q0 -20 -15 -36q-16 -15 -36 -15z" />
    <glyph glyph-name="k" unicode="k" horiz-adv-x="677" 
d="M186 0h-61v1454h61v-1184l334 381h72l-254 -289l309 -362h-78l-270 317l-113 -129v-188z" />
    <glyph glyph-name="l" unicode="l" horiz-adv-x="323" 
d="M131 0v1454h62v-1454h-62z" />
    <glyph glyph-name="m" unicode="m" horiz-adv-x="1169" 
d="M559 420q0 192 -176 192q-88 0 -142 -56t-55 -161v-395h-61v651h61v-100q25 53 79 85t124 32q150 0 211 -131q72 131 225 131q98 0 164 -62t66 -174v-432h-62v422q0 92 -45 141t-132 49t-141 -55t-54 -156v-401h-62v420z" />
    <glyph glyph-name="n" unicode="n" 
d="M186 528q70 140 259 140q97 0 167 -67t70 -195v-406h-61v395q0 217 -195 217q-106 0 -173 -66t-67 -175v-371h-61v651h61v-123z" />
    <glyph glyph-name="o" unicode="o" horiz-adv-x="811" 
d="M406 37q116 0 194 83t78 206q0 124 -78 206t-194 82t-195 -83q-78 -83 -78 -205t78 -206q78 -83 195 -83zM406 -16q-139 0 -238 99q-98 99 -98 243t98 242q98 100 238 100t237 -100q98 -100 98 -242t-98 -242t-237 -100z" />
    <glyph glyph-name="p" unicode="p" horiz-adv-x="856" 
d="M453 39q119 0 195 81t75 206q0 126 -76 206q-77 80 -195 80t-194 -81t-76 -205t76 -206q76 -81 195 -81zM125 -434v1085h61v-141q86 158 267 158q143 0 238 -98t95 -244t-95 -244t-238 -98q-180 0 -267 157v-575h-61z" />
    <glyph glyph-name="q" unicode="q" horiz-adv-x="858" 
d="M403 39q119 0 195 81t76 206q0 126 -76 206t-195 80t-195 -81t-75 -205q-1 -124 75 -206q76 -81 195 -81zM670 -434v575q-86 -158 -267 -157q-143 0 -238 98t-95 244t95 243q95 98 238 99q180 0 267 -158v141h61v-1085h-61z" />
    <glyph glyph-name="r" unicode="r" horiz-adv-x="509" 
d="M125 0v651h61v-114q68 131 195 131q59 0 100 -23l-22 -51q-27 16 -93 16t-123 -68q-56 -68 -57 -165v-377h-61z" />
    <glyph glyph-name="s" unicode="s" horiz-adv-x="634" 
d="M334 -16q-197 0 -268 161l53 23q55 -131 215 -131q74 0 119 34t45 93t-44 91q-44 31 -146 65t-150 73q-47 39 -47 113t53 118t139 44q143 0 205 -115l-51 -27q-51 88 -154 88q-59 0 -96 -28t-37 -68q0 -39 9 -59q20 -44 143 -82q123 -39 180 -82t57 -129q-1 -86 -63 -134
t-162 -48z" />
    <glyph glyph-name="t" unicode="t" horiz-adv-x="473" 
d="M158 598h-92v53h92v269h61v-269h170v-53h-170v-457q0 -102 82 -102q43 0 84 33l31 -45q-47 -43 -115 -43q-67 0 -105 41t-38 108v465z" />
    <glyph glyph-name="u" unicode="u" 
d="M350 -16q-98 0 -167 66t-68 196v405h61v-395q0 -217 195 -217q106 -1 173 65t66 177v370h62v-651h-62v123q-70 -139 -260 -139z" />
    <glyph glyph-name="v" unicode="v" horiz-adv-x="675" 
d="M342 -25l-309 676h65l248 -549l236 549h61l-293 -676h-8z" />
    <glyph glyph-name="w" unicode="w" horiz-adv-x="1058" 
d="M291 -25l-258 676h65l201 -536l227 561h6l232 -559l201 534h61l-258 -676h-8l-230 560l-231 -560h-8z" />
    <glyph glyph-name="x" unicode="x" horiz-adv-x="702" 
d="M315 352l-215 299h72l180 -250l183 250h67l-215 -297l256 -354h-72l-221 307l-223 -307h-68z" />
    <glyph glyph-name="y" unicode="y" horiz-adv-x="665" 
d="M309 43l-276 608h67l240 -534l229 534h64l-465 -1085h-64z" />
    <glyph glyph-name="z" unicode="z" horiz-adv-x="651" 
d="M59 0v6l424 592h-377v53h482v-6l-424 -592h422v-53h-527z" />
    <glyph glyph-name="braceleft" unicode="{" horiz-adv-x="634" 
d="M514 -262q-242 0 -242 297v364q0 84 -30 117q-31 33 -92 33h-97v55h97q61 0 92 33t30 115v405q0 297 242 297h39v-55h-39q-88 0 -133 -53t-45 -189v-405q0 -145 -103 -174q102 -25 103 -179v-364q0 -135 45 -189t133 -53h39v-55h-39z" />
    <glyph glyph-name="bar" unicode="|" horiz-adv-x="444" 
d="M190 -262v1716h64v-1716h-64z" />
    <glyph glyph-name="braceright" unicode="}" horiz-adv-x="634" 
d="M82 -262v55h39q88 0 133 53t45 189v366q0 145 102 174q-102 27 -102 179v403q0 135 -45 189t-133 53h-39v55h39q242 0 241 -297v-403q0 -84 31 -117t92 -33h97v-55h-97q-61 0 -92 -33t-31 -115v-366q0 -297 -241 -297h-39z" />
    <glyph glyph-name="asciitilde" unicode="~" horiz-adv-x="667" 
d="M442 463q-46 0 -118 45t-101 45q-53 0 -78 -86l-53 10q25 135 133 135q45 0 118 -45t101 -45q53 0 78 86l53 -10q-24 -135 -133 -135z" />
    <glyph glyph-name="uni00A0" unicode="&#xa0;" horiz-adv-x="372" 
 />
    <glyph glyph-name="exclamdown" unicode="&#xa1;" horiz-adv-x="413" 
d="M174 0v1071h66v-1071h-66zM207 1290q-23 0 -40 16t-17 42q0 25 17 41t40 16t40 -16t17 -41q0 -26 -17 -42t-40 -16z" />
    <glyph glyph-name="cent" unicode="&#xa2;" horiz-adv-x="706" 
d="M356 610q-100 -14 -161 -94t-61 -192t60 -191q62 -80 162 -94v571zM70 326q0 134 81 227q81 94 205 111v204h60v-200q141 -6 227 -99l-43 -37q-68 76 -184 82v-577q131 6 205 94l43 -37q-86 -104 -248 -110v-201h-60v203q-122 16 -204 111t-82 229z" />
    <glyph glyph-name="sterling" unicode="&#xa3;" horiz-adv-x="876" 
d="M194 203q-48 0 -74 -23q-26 -24 -26 -62t26 -60t72 -22t75 36q30 35 38 82q-63 49 -111 49zM74 487v56h123q-43 111 -43 202q0 129 87 212t230 83q219 0 320 -192l-54 -27q-82 162 -266 162q-119 1 -185 -65t-67 -166q0 -100 43 -209h336v-56h-313q78 -180 77 -309v-2
q2 -2 35 -30q79 -67 128 -86t93 -19q109 0 185 90l45 -41q-96 -106 -230 -106q-55 0 -109 24t-79 42q-25 19 -78 65q-16 -55 -59 -93t-108 -38t-107 38t-43 97q0 59 42 98t106 39t122 -37q-8 94 -84 268h-147z" />
    <glyph glyph-name="yen" unicode="&#xa5;" horiz-adv-x="907" 
d="M68 598h217l-248 426h74l344 -600l346 600h69l-249 -426h206v-55h-237l-92 -158h329v-55h-342v-330h-63v330h-354v55h342l-93 158h-249v55z" />
    <glyph glyph-name="section" unicode="&#xa7;" horiz-adv-x="960" 
d="M836 156q0 78 -42 126t-153 93l-240 96q-123 49 -176 111q-100 -51 -100 -176q0 -80 43 -126t143 -87l234 -95q107 -41 168 -98q123 43 123 156zM162 764q0 121 86 199t221 77q219 0 328 -184l-52 -29q-88 156 -276 156q-109 0 -177 -61q-68 -62 -67 -158q0 -96 46 -146
t151 -92l240 -96q236 -94 235 -274q0 -135 -149 -193q51 -63 51 -163t-81 -174q-81 -73 -231 -72q-231 0 -364 159l45 39q125 -141 319 -141q119 0 184 55q65 56 65 144t-52 139q-51 51 -160 94l-233 94q-117 47 -172 111t-56 158q1 141 134 215q-35 59 -35 143z" />
    <glyph glyph-name="dieresis" unicode="&#xa8;" horiz-adv-x="1024" 
d="M406 883q-18 0 -34 14q-16 15 -16 35t16 34t34 15q18 0 33 -14q15 -15 15 -35t-14 -34q-16 -14 -34 -15zM618 883q-18 0 -33 14q-15 15 -15 35t14 34q16 14 34 15q18 0 34 -14q16 -15 16 -35t-16 -34t-34 -15z" />
    <glyph glyph-name="copyright" unicode="&#xa9;" horiz-adv-x="1228" 
d="M626 170q-154 0 -249 99q-94 99 -94 243t95 244q95 98 238 98t240 -102l-45 -39q-76 86 -195 86q-118 0 -192 -82t-74 -205t73 -205t199 -82t209 99l46 -39q-97 -115 -251 -115zM614 39q201 0 335 135t134 339t-134 338t-335 134q-200 0 -334 -134t-134 -338t133 -339
q134 -135 335 -135zM614 -16q-222 0 -376 152t-154 376q0 225 155 377q155 151 375 151t376 -152q155 -152 155 -376t-155 -376t-376 -152z" />
    <glyph glyph-name="ordfeminine" unicode="&#xaa;" horiz-adv-x="663" 
d="M506 735h-193q-178 0 -178 -129t176 -129q80 0 138 40q57 40 57 118v100zM506 786v23q0 102 -42 141t-124 39q-111 0 -186 -102l-39 31q74 123 225 122q225 0 225 -223v-377h-59v78q-66 -92 -203 -92q-100 0 -164 47q-63 47 -63 135t65 133q66 45 164 45h201z" />
    <glyph glyph-name="guillemotleft" unicode="&#xab;" horiz-adv-x="567" 
d="M223 66l-157 251v9l157 247h70l-158 -251l158 -256h-70zM432 66l-158 251v9l158 247h70l-158 -251l158 -256h-70z" />
    <glyph glyph-name="registered" unicode="&#xae;" horiz-adv-x="759" 
d="M317 1106h58q82 0 82 72q0 66 -82 65h-58v-137zM317 1067v-133h-49v350h109q61 0 96 -29t35 -77q0 -74 -74 -103l86 -141h-55l-80 133h-68zM379 846q113 0 185 72t73 186q0 114 -73 188q-74 72 -186 72t-184 -73t-71 -187q-1 -114 71 -186t185 -72zM379 801
q-129 0 -218 87t-89 216t89 217t218 88t219 -88t90 -217t-90 -216t-219 -87z" />
    <glyph glyph-name="macron" unicode="&#xaf;" horiz-adv-x="1024" 
d="M350 918v53h324v-53h-324z" />
    <glyph glyph-name="degree" unicode="&#xb0;" horiz-adv-x="620" 
d="M309 688q63 0 104 42q40 42 40 106t-40 106q-39 43 -103 43t-105 -43t-41 -106q0 -64 41 -106t104 -42zM309 637q-84 0 -143 58q-60 57 -60 141t60 142t143 58q85 0 143 -58t58 -141t-58 -142q-59 -58 -143 -58z" />
    <glyph glyph-name="two.superior" unicode="&#xb2;" horiz-adv-x="497" 
d="M27 807v4l204 205q101 106 121 146t20 83t-33 72q-34 29 -85 29q-100 0 -139 -113l-54 18q21 72 73 111t124 39t125 -44t53 -124q0 -41 -28 -89t-51 -75q-24 -27 -81 -84l-131 -125h301v-53h-419z" />
    <glyph glyph-name="three.superior" unicode="&#xb3;" horiz-adv-x="526" 
d="M477 998q-1 -90 -59 -145q-58 -56 -144 -56t-143 38t-84 97l51 26q55 -106 166 -106q68 0 109 41t41 109t-42 106q-42 39 -104 39t-96 -17l-4 9l180 200h-260v54h367v-4l-172 -195q84 0 139 -53t55 -143z" />
    <glyph glyph-name="acute" unicode="&#xb4;" horiz-adv-x="1024" 
d="M481 811l123 270h68l-140 -270h-51z" />
    <glyph glyph-name="paragraph" unicode="&#xb6;" horiz-adv-x="935" 
d="M483 774h-53q-150 0 -245 88t-95 221t95 221t245 89h367v-1393h-66v1335h-182v-1335h-66v774z" />
    <glyph glyph-name="periodcentered" unicode="&#xb7;" horiz-adv-x="290" 
d="M145 381q-23 0 -40 16t-17 41t17 41q17 17 40 17t40 -16t17 -42q0 -25 -16 -41q-18 -16 -41 -16z" />
    <glyph glyph-name="cedilla" unicode="&#xb8;" horiz-adv-x="1024" 
d="M520 -381q-109 0 -147 92l45 25q29 -66 102 -66q35 0 59 20t23 60q0 90 -100 90h-19v160h52v-113q53 -4 89 -42t36 -97t-42 -94q-41 -35 -98 -35z" />
    <glyph glyph-name="one.superior" unicode="&#xb9;" horiz-adv-x="362" 
d="M195 807v532h-121v54h182v-586h-61z" />
    <glyph glyph-name="ordmasculine" unicode="&#xba;" horiz-adv-x="729" 
d="M365 475q104 0 173 74q68 75 68 185t-68 184q-69 74 -173 74t-174 -74q-69 -74 -69 -185t70 -185q69 -74 173 -73zM365 426q-127 0 -214 88t-88 219t87 219t215 88t215 -89t88 -218t-88 -218t-215 -89z" />
    <glyph glyph-name="guillemotright" unicode="&#xbb;" horiz-adv-x="567" 
d="M66 66l157 251l-157 256h69l158 -251v-9l-158 -247h-69zM274 66l158 251l-158 256h70l158 -251v-9l-158 -247h-70z" />
    <glyph glyph-name="onequarter" unicode="&#xbc;" horiz-adv-x="706" 
d="M618 672h-536v51h536v-51zM317 807v532h-120v54h182v-586h-62zM434 164v295l-237 -295h237zM496 164h79v-51h-79v-113h-62v113h-323v28l378 459h7v-436z" />
    <glyph glyph-name="onehalf" unicode="&#xbd;" horiz-adv-x="667" 
d="M602 672h-536v51h536v-51zM111 0v4l204 205q101 106 121 146t20 83t-33 72q-34 29 -85 29q-100 0 -139 -113l-54 18q21 72 73 111t124 39t125 -44t53 -124q0 -41 -28 -89t-51 -75q-24 -27 -81 -84l-131 -125h301v-53h-419zM301 807v532h-121v54h182v-586h-61z" />
    <glyph glyph-name="threequarters" unicode="&#xbe;" horiz-adv-x="706" 
d="M434 164v295l-237 -295h237zM496 164h79v-51h-79v-113h-62v113h-323v28l378 459h7v-436zM555 998q-1 -90 -59 -145q-58 -56 -144 -56t-143 38t-84 97l51 26q55 -106 166 -106q68 0 109 41t41 109t-42 106q-42 39 -104 39t-96 -17l-4 9l180 200h-260v54h366v-4l-172 -195
q84 0 140 -53t55 -143zM639 672h-571v51h571v-51z" />
    <glyph glyph-name="questiondown" unicode="&#xbf;" horiz-adv-x="892" 
d="M473 -16q-166 0 -265 100t-99 259t104 264t262 108v356h57v-412h-49q-139 0 -225 -89q-86 -90 -86 -230t82 -220t219 -79q203 0 307 199l49 -29q-112 -227 -356 -227zM504 1290q-23 0 -40 16t-18 42q0 25 18 41t40 16q23 0 40 -16t17 -41q0 -26 -17 -42t-40 -16z" />
    <glyph glyph-name="Agrave" unicode="&#xc0;" horiz-adv-x="1302" 
d="M623 1528l-140 270h68l123 -270h-51zM651 1276l-321 -807h639zM1155 0l-164 412h-684l-162 -412h-65l567 1427h8l568 -1427h-68z" />
    <glyph glyph-name="Aacute" unicode="&#xc1;" horiz-adv-x="1302" 
d="M623 1528l122 270h68l-139 -270h-51zM651 1276l-321 -807h639zM1155 0l-164 412h-684l-162 -412h-65l567 1427h8l568 -1427h-68z" />
    <glyph glyph-name="Acircumflex" unicode="&#xc2;" horiz-adv-x="1302" 
d="M461 1534l188 229h6l189 -229h-53l-138 143l-139 -143h-53zM651 1276l-321 -807h639zM1155 0l-164 412h-684l-162 -412h-65l567 1427h8l568 -1427h-68z" />
    <glyph glyph-name="Atilde" unicode="&#xc3;" horiz-adv-x="1302" 
d="M758 1509q-45 0 -116 37t-99 37q-51 0 -70 -84l-51 8q25 131 123 131q45 0 115 -36t100 -37q51 0 69 84l52 -9q-25 -131 -123 -131zM651 1276l-321 -807h639zM1155 0l-164 412h-684l-162 -412h-65l567 1427h8l568 -1427h-68z" />
    <glyph glyph-name="Adieresis" unicode="&#xc4;" horiz-adv-x="1302" 
d="M545 1548q-17 0 -33 14t-16 35t15 35q34 33 68 0q15 -14 15 -34t-16 -36q-16 -14 -33 -14zM758 1548q-18 0 -34 14t-15 35q0 21 15 35q34 33 68 0q15 -14 15 -34q1 -20 -15 -36q-16 -14 -34 -14zM651 1276l-321 -807h639zM1155 0l-164 412h-684l-162 -412h-65l567 1427h8
l568 -1427h-68z" />
    <glyph glyph-name="Aring" unicode="&#xc5;" horiz-adv-x="1302" 
d="M651 1546q41 0 67 27t26 69t-26 71q-26 28 -67 28t-67 -28t-25 -71q-1 -44 25 -70t67 -26zM651 1497q-61 0 -104 43t-43 102q0 60 43 104t104 44t105 -44t43 -104q1 -60 -43 -102q-44 -43 -105 -43zM651 1276l-321 -807h639zM1155 0l-164 412h-684l-162 -412h-65
l567 1427h8l568 -1427h-68z" />
    <glyph glyph-name="AE" unicode="&#xc6;" horiz-adv-x="1875" 
d="M938 469v768l-504 -768h504zM1769 0h-831v412h-541l-270 -412h-70l914 1393h770v-58h-737v-608h661v-57h-661v-613h765v-57z" />
    <glyph glyph-name="Ccedilla" unicode="&#xc7;" horiz-adv-x="1452" 
d="M791 1409q332 0 540 -254l-49 -37q-186 231 -491 232q-269 0 -451 -186t-182 -468q0 -281 184 -467t461 -186q162 0 296 68t224 186l49 -37q-98 -127 -242 -201t-315 -75v-97q53 -4 89 -42t36 -97t-41 -94t-98 -35q-109 0 -148 92l45 25q29 -66 103 -66q35 0 59 20t23 60
q0 90 -101 90h-18v144q-292 14 -484 214t-190 504t203 505q201 202 498 202z" />
    <glyph glyph-name="Egrave" unicode="&#xc8;" horiz-adv-x="1140" 
d="M592 1528l-139 270h67l123 -270h-51zM203 0v1393h803v-58h-738v-608h662v-57h-662v-613h766v-57h-831z" />
    <glyph glyph-name="Eacute" unicode="&#xc9;" horiz-adv-x="1140" 
d="M592 1528l123 270h67l-139 -270h-51zM203 0v1393h803v-58h-738v-608h662v-57h-662v-613h766v-57h-831z" />
    <glyph glyph-name="Ecircumflex" unicode="&#xca;" horiz-adv-x="1140" 
d="M430 1524l188 229h7l188 -229h-53l-137 143l-140 -143h-53zM203 0v1393h803v-58h-738v-608h662v-57h-662v-613h766v-57h-831z" />
    <glyph glyph-name="Edieresis" unicode="&#xcb;" horiz-adv-x="1140" 
d="M514 1548q-18 0 -34 14t-15 35q0 21 15 35q34 33 68 0q15 -14 15 -34q1 -20 -15 -36q-16 -14 -34 -14zM727 1548q-17 0 -33 14t-16 35t15 35q34 33 68 0q15 -14 15 -34t-16 -36q-16 -14 -33 -14zM203 0v1393h803v-58h-738v-608h662v-57h-662v-613h766v-57h-831z" />
    <glyph glyph-name="Igrave" unicode="&#xcc;" horiz-adv-x="487" 
d="M215 1528l-139 270h67l123 -270h-51zM211 0v1393h65v-1393h-65z" />
    <glyph glyph-name="Iacute" unicode="&#xcd;" horiz-adv-x="487" 
d="M215 1528l123 270h68l-140 -270h-51zM211 0v1393h65v-1393h-65z" />
    <glyph glyph-name="Icircumflex" unicode="&#xce;" horiz-adv-x="487" 
d="M53 1534l189 229h6l188 -229h-53l-137 143l-140 -143h-53zM211 0v1393h65v-1393h-65z" />
    <glyph glyph-name="Idieresis" unicode="&#xcf;" horiz-adv-x="487" 
d="M137 1548q-17 0 -33 14t-16 35t15 35q34 33 68 0q15 -14 15 -34t-16 -36q-16 -14 -33 -14zM350 1548q-18 0 -34 14t-15 35q0 21 15 35q34 33 68 0q15 -14 15 -34q1 -20 -15 -36q-16 -14 -34 -14zM211 0v1393h65v-1393h-65z" />
    <glyph glyph-name="Eth" unicode="&#xd0;" horiz-adv-x="1341" 
d="M268 727h385v-57h-385v-611h236q330 0 505 173t175 464t-175 464t-505 173h-236v-606zM203 670h-160v57h160v666h311q344 1 541 -191t197 -506t-196 -506q-196 -190 -542 -190h-311v670z" />
    <glyph glyph-name="Ntilde" unicode="&#xd1;" horiz-adv-x="1447" 
d="M262 0h-59v1427h8l975 -1294v1260h59v-1428h-8l-975 1295v-1260zM848 1509q-45 0 -116 37t-99 37q-51 0 -70 -84l-51 8q25 131 123 131q45 0 115 -36t100 -37q51 0 70 84l51 -9q-25 -131 -123 -131z" />
    <glyph glyph-name="Ograve" unicode="&#xd2;" horiz-adv-x="1605" 
d="M774 1528l-139 270h67l123 -270h-51zM803 43q276 0 461 186q184 186 184 467t-184 467q-184 187 -460 187t-462 -186q-184 -186 -184 -468q0 -281 184 -467t461 -186zM803 -16q-299 0 -506 204t-207 508q0 305 207 509t506 204t506 -204t207 -509q0 -304 -207 -508
t-506 -204z" />
    <glyph glyph-name="Oacute" unicode="&#xd3;" horiz-adv-x="1605" 
d="M774 1528l123 270h68l-140 -270h-51zM803 43q276 0 461 186q184 186 184 467t-184 467q-184 187 -460 187t-462 -186q-184 -186 -184 -468q0 -281 184 -467t461 -186zM803 -16q-299 0 -506 204t-207 508q0 305 207 509t506 204t506 -204t207 -509q0 -304 -207 -508
t-506 -204z" />
    <glyph glyph-name="Ocircumflex" unicode="&#xd4;" horiz-adv-x="1605" 
d="M612 1534l189 229h6l188 -229h-53l-137 143l-139 -143h-54zM803 43q276 0 461 186q184 186 184 467t-184 467q-184 187 -460 187t-462 -186q-184 -186 -184 -468q0 -281 184 -467t461 -186zM803 -16q-299 0 -506 204t-207 508q0 305 207 509t506 204t506 -204t207 -509
q0 -304 -207 -508t-506 -204z" />
    <glyph glyph-name="Otilde" unicode="&#xd5;" horiz-adv-x="1605" 
d="M803 43q276 0 461 186q184 186 184 467t-184 467q-184 187 -460 187t-462 -186q-184 -186 -184 -468q0 -281 184 -467t461 -186zM803 -16q-299 0 -506 204t-207 508q0 305 207 509t506 204t506 -204t207 -509q0 -304 -207 -508t-506 -204zM909 1509q-45 0 -115 37
t-100 37q-51 0 -69 -84l-52 8q25 131 123 131q45 0 115 -36t100 -37q51 0 70 84l51 -9q-25 -131 -123 -131z" />
    <glyph glyph-name="Odieresis" unicode="&#xd6;" horiz-adv-x="1605" 
d="M696 1548q-18 0 -33 14t-16 35t15 35q34 32 68 0q15 -14 15 -34q1 -20 -15 -36q-16 -14 -34 -14zM909 1548q-18 0 -33 14t-16 35q0 21 16 35q34 32 67 0q15 -14 15 -34t-16 -36q-16 -14 -33 -14zM803 43q276 0 461 186q184 186 184 467t-184 467q-184 187 -460 187
t-462 -186q-184 -186 -184 -468q0 -281 184 -467t461 -186zM803 -16q-299 0 -506 204t-207 508q0 305 207 509t506 204t506 -204t207 -509q0 -304 -207 -508t-506 -204z" />
    <glyph glyph-name="multiply" unicode="&#xd7;" horiz-adv-x="569" 
d="M326 485l174 -174l-41 -41l-174 174l-174 -174l-41 41l174 174l-174 174l41 41l174 -174l174 174l41 -41z" />
    <glyph glyph-name="Oslash" unicode="&#xd8;" horiz-adv-x="1605" 
d="M812 43q268 0 452 186t184 460t-166 456l-920 -936q182 -166 450 -166zM795 1350q-269 0 -453 -186t-184 -460t166 -456l917 936q-178 166 -446 166zM793 1409q289 0 491 -182l180 184l41 -39l-180 -184q191 -201 191 -499t-207 -502q-207 -203 -496 -203t-491 182
l-183 -186l-41 38l183 187q-191 201 -191 499t207 501q207 204 496 204z" />
    <glyph glyph-name="Ugrave" unicode="&#xd9;" horiz-adv-x="1298" 
d="M621 1528l-140 270h68l123 -270h-51zM648 -16q-204 0 -332 125t-128 350v934h66v-928q0 -201 108 -313t285 -111q178 0 288 112t109 312v928h66v-934q0 -225 -129 -350t-333 -125z" />
    <glyph glyph-name="Uacute" unicode="&#xda;" horiz-adv-x="1298" 
d="M621 1528l122 270h68l-139 -270h-51zM648 -16q-204 0 -332 125t-128 350v934h66v-928q0 -201 108 -313t285 -111q178 0 288 112t109 312v928h66v-934q0 -225 -129 -350t-333 -125z" />
    <glyph glyph-name="Ucircumflex" unicode="&#xdb;" horiz-adv-x="1298" 
d="M459 1534l188 229h6l189 -229h-54l-137 143l-139 -143h-53zM648 -16q-204 0 -332 125t-128 350v934h66v-928q0 -201 108 -313t285 -111q178 0 288 112t109 312v928h66v-934q0 -225 -129 -350t-333 -125z" />
    <glyph glyph-name="Udieresis" unicode="&#xdc;" horiz-adv-x="1298" 
d="M543 1548q-17 0 -33 14t-16 35t15 35q34 33 68 0q15 -14 15 -34t-16 -36q-16 -14 -33 -14zM756 1548q-18 0 -34 14t-15 35q0 21 15 35q34 33 68 0q15 -14 15 -34q1 -20 -15 -36q-16 -14 -34 -14zM648 -16q-204 0 -332 125t-128 350v934h66v-928q0 -201 108 -313t285 -111
q178 0 288 112t109 312v928h66v-934q0 -225 -129 -350t-333 -125z" />
    <glyph glyph-name="Yacute" unicode="&#xdd;" horiz-adv-x="1155" 
d="M549 1528l123 270h67l-139 -270h-51zM610 0h-65v559l-488 834h74l447 -764l448 764h72l-488 -834v-559z" />
    <glyph glyph-name="Thorn" unicode="&#xde;" horiz-adv-x="1093" 
d="M268 373h310q176 0 272 92t96 242q0 151 -96 243t-272 92h-310v-669zM268 315v-315h-65v1393h65v-293h318q202 0 314 -112t112 -282t-112 -280q-112 -111 -314 -111h-318z" />
    <glyph glyph-name="germandbls" unicode="&#xdf;" horiz-adv-x="811" 
d="M541 -16q-170 0 -244 151l49 27q35 -63 79 -94t115 -31q70 0 108 34q38 35 38 97t-32 92t-122 62q-190 68 -190 180q0 58 14 102l166 559q41 145 -33 210q-47 42 -121 42t-128 -52q-53 -52 -54 -161v-1202h-61v1210q0 129 75 195q75 65 172 65t160 -56t64 -161
q0 -47 -18 -108l-160 -541q-14 -53 -14 -96q-1 -82 149 -131q98 -33 146 -79q49 -46 49 -132t-54 -134t-153 -48z" />
    <glyph glyph-name="agrave" unicode="&#xe0;" horiz-adv-x="737" 
d="M344 811l-139 270h67l123 -270h-51zM561 336h-213q-88 0 -145 -35t-58 -111q0 -152 201 -151q88 0 152 46q63 46 63 132v119zM561 389v25q0 201 -182 200q-135 0 -207 -112l-45 30q90 135 252 136q115 0 179 -62t65 -188v-418h-62v86q-74 -102 -223 -102q-110 0 -182 54
t-72 152t74 148t182 51h221z" />
    <glyph glyph-name="aacute" unicode="&#xe1;" horiz-adv-x="737" 
d="M344 811l123 270h68l-140 -270h-51zM561 336h-213q-88 0 -145 -35t-58 -111q0 -152 201 -151q88 0 152 46q63 46 63 132v119zM561 389v25q0 201 -182 200q-135 0 -207 -112l-45 30q90 135 252 136q115 0 179 -62t65 -188v-418h-62v86q-74 -102 -223 -102q-110 0 -182 54
t-72 152t74 148t182 51h221z" />
    <glyph glyph-name="acircumflex" unicode="&#xe2;" horiz-adv-x="737" 
d="M182 848l189 229h6l188 -229h-53l-137 143l-139 -143h-54zM561 336h-213q-88 0 -145 -35t-58 -111q0 -152 201 -151q88 0 152 46q63 46 63 132v119zM561 389v25q0 201 -182 200q-135 0 -207 -112l-45 30q90 135 252 136q115 0 179 -62t65 -188v-418h-62v86
q-74 -102 -223 -102q-110 0 -182 54t-72 152t74 148t182 51h221z" />
    <glyph glyph-name="atilde" unicode="&#xe3;" horiz-adv-x="737" 
d="M461 862q-43 0 -99 43t-80 43t-36 -19t-23 -63l-51 8q25 129 113 130q43 0 98 -43t80 -43t37 19t22 62l51 -8q-24 -129 -112 -129zM561 336h-213q-88 0 -145 -35t-58 -111q0 -152 201 -151q88 0 152 46q63 46 63 132v119zM561 389v25q0 201 -182 200q-135 0 -207 -112
l-45 30q90 135 252 136q115 0 179 -62t65 -188v-418h-62v86q-74 -102 -223 -102q-110 0 -182 54t-72 152t74 148t182 51h221z" />
    <glyph glyph-name="adieresis" unicode="&#xe4;" horiz-adv-x="737" 
d="M266 883q-18 0 -34 14q-15 15 -15 35t15 34q16 14 34 15q18 0 34 -14q16 -15 15 -35q0 -20 -15 -35q-16 -14 -34 -14zM479 883q-18 0 -34 14q-15 15 -15 35t15 34t33 15q18 0 34 -14q16 -15 16 -35t-15 -35q-16 -14 -34 -14zM561 336h-213q-88 0 -145 -35t-58 -111
q0 -152 201 -151q88 0 152 46q63 46 63 132v119zM561 389v25q0 201 -182 200q-135 0 -207 -112l-45 30q90 135 252 136q115 0 179 -62t65 -188v-418h-62v86q-74 -102 -223 -102q-110 0 -182 54t-72 152t74 148t182 51h221z" />
    <glyph glyph-name="aring" unicode="&#xe5;" horiz-adv-x="737" 
d="M373 829q41 0 67 27t25 70q0 42 -26 70q-27 28 -67 28t-66 -28t-26 -70t26 -70q26 -27 67 -27zM373 780q-61 0 -105 43q-43 43 -43 103t43 103q42 44 104 44t105 -44t43 -103q0 -58 -43 -102t-104 -44zM561 336h-213q-88 0 -145 -35t-58 -111q0 -152 201 -151
q88 0 152 46q63 46 63 132v119zM561 389v25q0 201 -182 200q-135 0 -207 -112l-45 30q90 135 252 136q115 0 179 -62t65 -188v-418h-62v86q-74 -102 -223 -102q-110 0 -182 54t-72 152t74 148t182 51h221z" />
    <glyph glyph-name="ae" unicode="&#xe6;" horiz-adv-x="1280" 
d="M561 324h-217q-199 0 -199 -140q-1 -72 55 -108t144 -37q88 0 153 49t64 135v101zM627 377h518q-15 106 -79 172q-64 65 -172 65t-180 -66q-71 -66 -87 -171zM887 668q141 0 228 -96t93 -248h-585q1 -131 79 -209t214 -78t219 104l41 -37q-94 -121 -275 -120
q-102 0 -179 48t-118 132q-18 -70 -67 -112q-79 -68 -195 -68q-114 0 -186 53t-72 149t72 144t180 47h225v37q0 201 -182 200q-135 0 -207 -112l-45 30q90 135 252 136q196 0 229 -176q41 82 115 129t164 47z" />
    <glyph glyph-name="ccedilla" unicode="&#xe7;" horiz-adv-x="714" 
d="M70 332q0 138 95 237t241 99t237 -99l-43 -37q-74 82 -196 82t-196 -82t-75 -206q0 -124 74 -207q73 -82 203 -82t211 94l43 -37q-88 -106 -261 -110v-97q53 -4 89 -42t36 -97t-41 -94t-98 -35q-109 0 -147 92l45 25q29 -66 102 -66q35 0 59 20t23 60q0 90 -100 90h-19
v146q-122 16 -202 112t-80 234z" />
    <glyph glyph-name="egrave" unicode="&#xe8;" horiz-adv-x="790" 
d="M371 811l-140 270h68l123 -270h-51zM135 367h520q-11 111 -77 179t-176 68t-183 -69q-72 -69 -84 -178zM412 37q150 0 233 104l41 -37q-94 -120 -259 -120t-261 98t-96 242t96 244t235 100t227 -98t91 -257h-586q4 -127 83 -201t196 -75z" />
    <glyph glyph-name="eacute" unicode="&#xe9;" horiz-adv-x="790" 
d="M371 811l123 270h67l-139 -270h-51zM135 367h520q-11 111 -77 179t-176 68t-183 -69q-72 -69 -84 -178zM412 37q150 0 233 104l41 -37q-94 -120 -259 -120t-261 98t-96 242t96 244t235 100t227 -98t91 -257h-586q4 -127 83 -201t196 -75z" />
    <glyph glyph-name="ecircumflex" unicode="&#xea;" horiz-adv-x="790" 
d="M209 848l188 229h6l189 -229h-53l-138 143l-139 -143h-53zM135 367h520q-11 111 -77 179t-176 68t-183 -69q-72 -69 -84 -178zM412 37q150 0 233 104l41 -37q-94 -120 -259 -120t-261 98t-96 242t96 244t235 100t227 -98t91 -257h-586q4 -127 83 -201t196 -75z" />
    <glyph glyph-name="edieresis" unicode="&#xeb;" horiz-adv-x="790" 
d="M293 883q-18 0 -34 14q-15 15 -15 35t15 34t33 15q18 0 34 -14q16 -15 16 -35t-15 -35q-16 -14 -34 -14zM506 883q-18 0 -34 14q-15 15 -15 35t15 34q16 14 34 15q18 0 34 -14q16 -15 15 -35q0 -20 -15 -35q-16 -14 -34 -14zM135 367h520q-11 111 -77 179t-176 68
t-183 -69q-72 -69 -84 -178zM412 37q150 0 233 104l41 -37q-94 -120 -259 -120t-261 98t-96 242t96 244t235 100t227 -98t91 -257h-586q4 -127 83 -201t196 -75z" />
    <glyph glyph-name="igrave" unicode="&#xec;" horiz-adv-x="323" 
d="M133 811l-139 270h67l123 -270h-51zM131 0v651h62v-651h-62z" />
    <glyph glyph-name="iacute" unicode="&#xed;" horiz-adv-x="323" 
d="M133 811l123 270h68l-140 -270h-51zM131 0v651h62v-651h-62z" />
    <glyph glyph-name="icircumflex" unicode="&#xee;" horiz-adv-x="323" 
d="M-29 848l189 229h6l188 -229h-53l-137 143l-139 -143h-54zM131 0v651h62v-651h-62z" />
    <glyph glyph-name="idieresis" unicode="&#xef;" horiz-adv-x="323" 
d="M55 883q-18 0 -33 14q-16 15 -16 35t16 34t33 15q17 0 33 -14q16 -15 16 -35t-15 -35q-16 -14 -34 -14zM268 883q-18 0 -34 14q-15 15 -15 35t15 34q16 14 34 15q18 0 34 -14q16 -15 15 -35q0 -20 -15 -35q-16 -14 -34 -14zM131 0v651h62v-651h-62z" />
    <glyph glyph-name="eth" unicode="&#xf0;" horiz-adv-x="821" 
d="M406 37q116 0 194 83t78 206q0 124 -78 206t-194 82t-195 -83q-78 -83 -78 -205t78 -206q78 -83 195 -83zM741 369q0 -189 -93 -287t-237 -98t-243 99q-98 99 -98 243t98 242q98 99 238 100q184 0 268 -162q-29 352 -234 624l-125 -104l-32 39l127 106q-88 109 -209 220
l32 41q127 -115 220 -226l122 105l33 -39l-125 -105q258 -340 258 -798z" />
    <glyph glyph-name="ntilde" unicode="&#xf1;" 
d="M489 862q-41 0 -97 43t-81 43t-37 -19t-22 -63l-51 8q25 129 112 130q43 0 99 -43t80 -43t36 19t23 62l51 -8q-25 -129 -113 -129zM186 528q70 140 259 140q97 0 167 -67t70 -195v-406h-61v395q0 217 -195 217q-106 0 -173 -66t-67 -175v-371h-61v651h61v-123z" />
    <glyph glyph-name="ograve" unicode="&#xf2;" horiz-adv-x="811" 
d="M377 811l-139 270h67l123 -270h-51zM406 37q116 0 194 83t78 206q0 124 -78 206t-194 82t-195 -83q-78 -83 -78 -205t78 -206q78 -83 195 -83zM406 -16q-139 0 -238 99q-98 99 -98 243t98 242q98 100 238 100t237 -100q98 -100 98 -242t-98 -242t-237 -100z" />
    <glyph glyph-name="oacute" unicode="&#xf3;" horiz-adv-x="811" 
d="M377 811l123 270h67l-139 -270h-51zM406 37q116 0 194 83t78 206q0 124 -78 206t-194 82t-195 -83q-78 -83 -78 -205t78 -206q78 -83 195 -83zM406 -16q-139 0 -238 99q-98 99 -98 243t98 242q98 100 238 100t237 -100q98 -100 98 -242t-98 -242t-237 -100z" />
    <glyph glyph-name="ocircumflex" unicode="&#xf4;" horiz-adv-x="811" 
d="M215 848l188 229h7l188 -229h-53l-137 143l-140 -143h-53zM406 37q116 0 194 83t78 206q0 124 -78 206t-194 82t-195 -83q-78 -83 -78 -205t78 -206q78 -83 195 -83zM406 -16q-139 0 -238 99q-98 99 -98 243t98 242q98 100 238 100t237 -100q98 -100 98 -242t-98 -242
t-237 -100z" />
    <glyph glyph-name="otilde" unicode="&#xf5;" horiz-adv-x="811" 
d="M494 862q-44 0 -100 43t-80 43t-36 -19t-22 -63l-51 8q25 129 112 130q43 0 99 -43t80 -43t36 19t23 62l51 -8q-24 -129 -112 -129zM406 37q116 0 194 83t78 206q0 124 -78 206t-194 82t-195 -83q-78 -83 -78 -205t78 -206q78 -83 195 -83zM406 -16q-139 0 -238 99
q-98 99 -98 243t98 242q98 100 238 100t237 -100q98 -100 98 -242t-98 -242t-237 -100z" />
    <glyph glyph-name="odieresis" unicode="&#xf6;" horiz-adv-x="811" 
d="M299 883q-18 0 -34 14q-15 15 -15 35t15 34t33 15q18 0 34 -14q16 -15 16 -35t-15 -35q-16 -14 -34 -14zM512 883q-18 0 -34 14q-15 15 -15 35t15 34q16 14 34 15q18 0 34 -14q16 -15 15 -35q0 -20 -15 -35q-16 -14 -34 -14zM406 37q116 0 194 83t78 206q0 124 -78 206
t-194 82t-195 -83q-78 -83 -78 -205t78 -206q78 -83 195 -83zM406 -16q-139 0 -238 99q-98 99 -98 243t98 242q98 100 238 100t237 -100q98 -100 98 -242t-98 -242t-237 -100z" />
    <glyph glyph-name="divide" unicode="&#xf7;" horiz-adv-x="638" 
d="M319 227q-23 1 -39 17t-18 41q0 25 18 41t40 16t39 -16t17 -41t-16 -41q-18 -16 -41 -17zM319 653q-23 1 -39 17t-18 41q0 25 18 41t40 16t39 -16t17 -41t-16 -41q-18 -16 -41 -17zM559 469h-479v57h479v-57z" />
    <glyph glyph-name="oslash" unicode="&#xf8;" horiz-adv-x="811" 
d="M405 37q117 0 195 83q78 84 78 194t-49 186l-414 -387q72 -76 190 -76zM133 338q0 -110 49 -186l414 387q-72 75 -190 75t-195 -83q-78 -83 -78 -193zM409 -16q-136 0 -235 92l-100 -94l-35 36l102 95q-71 94 -71 225t98 230q98 100 234 100t233 -93l102 95l35 -37
l-102 -96q72 -92 72 -223q0 -130 -99 -230q-98 -100 -234 -100z" />
    <glyph glyph-name="ugrave" unicode="&#xf9;" 
d="M365 811l-140 270h68l123 -270h-51zM350 -16q-98 0 -167 66t-68 196v405h61v-395q0 -217 195 -217q106 -1 173 65t66 177v370h62v-651h-62v123q-70 -139 -260 -139z" />
    <glyph glyph-name="uacute" unicode="&#xfa;" 
d="M365 811l122 270h68l-139 -270h-51zM350 -16q-98 0 -167 66t-68 196v405h61v-395q0 -217 195 -217q106 -1 173 65t66 177v370h62v-651h-62v123q-70 -139 -260 -139z" />
    <glyph glyph-name="ucircumflex" unicode="&#xfb;" 
d="M203 848l188 229h6l189 -229h-54l-137 143l-139 -143h-53zM350 -16q-98 0 -167 66t-68 196v405h61v-395q0 -217 195 -217q106 -1 173 65t66 177v370h62v-651h-62v123q-70 -139 -260 -139z" />
    <glyph glyph-name="udieresis" unicode="&#xfc;" 
d="M287 883q-18 0 -34 14q-15 15 -15 35t15 34t33 15q18 0 34 -14q16 -15 16 -35t-15 -35q-16 -14 -34 -14zM500 883q-18 0 -34 14q-15 15 -15 35t15 34q16 14 34 15q18 0 34 -14q16 -15 15 -35q0 -20 -15 -35q-16 -14 -34 -14zM350 -16q-98 0 -167 66t-68 196v405h61v-395
q0 -217 195 -217q106 -1 173 65t66 177v370h62v-651h-62v123q-70 -139 -260 -139z" />
    <glyph glyph-name="yacute" unicode="&#xfd;" horiz-adv-x="665" 
d="M311 811l123 270h68l-140 -270h-51zM309 43l-276 608h67l240 -534l229 534h64l-465 -1085h-64z" />
    <glyph glyph-name="thorn" unicode="&#xfe;" horiz-adv-x="856" 
d="M453 39q119 0 195 81t75 206q0 126 -76 206q-77 80 -195 80t-194 -81t-76 -205t76 -206q76 -81 195 -81zM125 -434v1888h61v-944q86 158 267 158q143 0 238 -98t95 -244t-95 -244t-238 -98q-180 0 -267 157v-575h-61z" />
    <glyph glyph-name="ydieresis" unicode="&#xff;" horiz-adv-x="665" 
d="M233 883q-18 0 -33 14q-16 15 -16 35t16 34t33 15q17 0 33 -14q16 -15 16 -35t-15 -34q-16 -14 -34 -15zM446 883q-18 0 -33 14q-15 15 -15 35t14 34q16 14 34 15q18 0 34 -14q16 -15 16 -35t-16 -34t-34 -15zM309 43l-276 608h67l240 -534l229 534h64l-465 -1085h-64z
" />
    <glyph glyph-name="Amacron" unicode="&#x100;" horiz-adv-x="1302" 
d="M449 1567v53h405v-53h-405zM651 1276l-321 -807h639zM1155 0l-164 412h-684l-162 -412h-65l567 1427h8l568 -1427h-68z" />
    <glyph glyph-name="amacron" unicode="&#x101;" horiz-adv-x="737" 
d="M211 918v53h324v-53h-324zM561 336h-213q-88 0 -145 -35t-58 -111q0 -152 201 -151q88 0 152 46q63 46 63 132v119zM561 389v25q0 201 -182 200q-135 0 -207 -112l-45 30q90 135 252 136q115 0 179 -62t65 -188v-418h-62v86q-74 -102 -223 -102q-110 0 -182 54t-72 152
t74 148t182 51h221z" />
    <glyph glyph-name="Abreve" unicode="&#x102;" horiz-adv-x="1302" 
d="M651 1550q-67 0 -115 36t-67 97l53 19q31 -94 129 -94t129 94l56 -19q-18 -61 -68 -97t-117 -36zM651 1276l-321 -807h639zM1155 0l-164 412h-684l-162 -412h-65l567 1427h8l568 -1427h-68z" />
    <glyph glyph-name="abreve" unicode="&#x103;" horiz-adv-x="737" 
d="M373 834q-68 0 -116 36t-67 97l54 18q31 -94 129 -94t129 94l55 -18q-18 -61 -67 -97t-117 -36zM561 336h-213q-88 0 -145 -35t-58 -111q0 -152 201 -151q88 0 152 46q63 46 63 132v119zM561 389v25q0 201 -182 200q-135 0 -207 -112l-45 30q90 135 252 136
q115 0 179 -62t65 -188v-418h-62v86q-74 -102 -223 -102q-110 0 -182 54t-72 152t74 148t182 51h221z" />
    <glyph glyph-name="Aogonek" unicode="&#x104;" horiz-adv-x="1302" 
d="M651 1276l-321 -807h639zM985 -318q0 54 27 110t53 90q27 34 90 114l-164 416h-684l-162 -412h-65l567 1427h8l566 -1425q-101 -131 -137 -191q-36 -61 -36 -111q1 -91 74 -91q55 0 86 49l41 -33q-43 -70 -127 -69q-59 0 -98 36t-39 90z" />
    <glyph glyph-name="aogonek" unicode="&#x105;" horiz-adv-x="737" 
d="M561 336h-213q-88 0 -145 -35t-58 -111q0 -152 201 -151q88 0 152 46q63 46 63 132v119zM389 -310q0 64 42 134t130 174v88q-74 -102 -223 -102q-110 0 -182 54t-72 152t74 148t182 51h221v25q0 201 -182 200q-135 0 -207 -112l-45 30q90 135 252 136q115 0 179 -62
t65 -188v-416q-103 -134 -139 -194t-36 -110t22 -72t52 -21q53 0 84 49l41 -29q-43 -69 -113 -69t-108 34q-37 34 -37 100z" />
    <glyph glyph-name="Cacute" unicode="&#x106;" horiz-adv-x="1452" 
d="M743 1528l123 270h68l-139 -270h-52zM803 -16q-303 0 -509 202t-204 510q2 309 203 511t498 202q332 0 540 -254l-49 -37q-186 231 -491 232q-269 0 -451 -186t-182 -468q0 -281 184 -467t461 -186q162 0 296 68t224 186l49 -37q-100 -132 -248 -204t-321 -72z" />
    <glyph glyph-name="cacute" unicode="&#x107;" horiz-adv-x="714" 
d="M352 811l123 270h68l-140 -270h-51zM414 -16q-156 0 -250 99t-94 243t95 243t241 99t237 -99l-43 -37q-74 82 -196 82t-196 -82t-75 -206q0 -124 74 -207q73 -82 203 -82t211 94l43 -37q-94 -110 -250 -110z" />
    <glyph glyph-name="Ccircumflex" unicode="&#x108;" horiz-adv-x="1452" 
d="M582 1534l188 229h6l189 -229h-54l-137 143l-139 -143h-53zM803 -16q-303 0 -509 202t-204 510q2 309 203 511t498 202q332 0 540 -254l-49 -37q-186 231 -491 232q-269 0 -451 -186t-182 -468q0 -281 184 -467t461 -186q162 0 296 68t224 186l49 -37
q-100 -132 -248 -204t-321 -72z" />
    <glyph glyph-name="ccircumflex" unicode="&#x109;" horiz-adv-x="714" 
d="M190 848l189 229h6l188 -229h-53l-137 143l-139 -143h-54zM414 -16q-156 0 -250 99t-94 243t95 243t241 99t237 -99l-43 -37q-74 82 -196 82t-196 -82t-75 -206q0 -124 74 -207q73 -82 203 -82t211 94l43 -37q-94 -110 -250 -110z" />
    <glyph glyph-name="Cdotaccent" unicode="&#x10a;" horiz-adv-x="1452" 
d="M772 1556q-20 0 -36 16t-15 36q0 20 15 36q16 16 36 15q20 0 36 -15q16 -16 15 -36q1 -20 -15 -36t-36 -16zM803 -16q-303 0 -509 202t-204 510q2 309 203 511t498 202q332 0 540 -254l-49 -37q-186 231 -491 232q-269 0 -451 -186t-182 -468q0 -281 184 -467t461 -186
q162 0 296 68t224 186l49 -37q-100 -132 -248 -204t-321 -72z" />
    <glyph glyph-name="cdotaccent" unicode="&#x10b;" horiz-adv-x="714" 
d="M381 881q-20 0 -36 15q-15 16 -15 36t15 36t35 15q20 0 36 -15q16 -16 16 -36t-15 -36q-16 -15 -36 -15zM414 -16q-156 0 -250 99t-94 243t95 243t241 99t237 -99l-43 -37q-74 82 -196 82t-196 -82t-75 -206q0 -124 74 -207q73 -82 203 -82t211 94l43 -37
q-94 -110 -250 -110z" />
    <glyph glyph-name="Ccaron" unicode="&#x10c;" horiz-adv-x="1452" 
d="M770 1513l-188 230h53l137 -144l139 144h54l-189 -230h-6zM803 -16q-303 0 -509 202t-204 510q2 309 203 511t498 202q332 0 540 -254l-49 -37q-186 231 -491 232q-269 0 -451 -186t-182 -468q0 -281 184 -467t461 -186q162 0 296 68t224 186l49 -37q-100 -132 -248 -204
t-321 -72z" />
    <glyph glyph-name="ccaron" unicode="&#x10d;" horiz-adv-x="714" 
d="M379 838l-189 229h54l137 -143l139 143h53l-188 -229h-6zM414 -16q-156 0 -250 99t-94 243t95 243t241 99t237 -99l-43 -37q-74 82 -196 82t-196 -82t-75 -206q0 -124 74 -207q73 -82 203 -82t211 94l43 -37q-94 -110 -250 -110z" />
    <glyph glyph-name="Dcaron" unicode="&#x10e;" horiz-adv-x="1351" 
d="M637 1513l-188 230h53l137 -144l139 144h53l-188 -230h-6zM268 59h236q330 0 505 173t175 464t-175 464t-505 173h-236v-1274zM203 0v1393h311q344 1 541 -191t197 -506t-196 -506q-196 -190 -542 -190h-311z" />
    <glyph glyph-name="dcaron" unicode="&#x10f;" horiz-adv-x="858" 
d="M827 1348q-1 25 17 41t41 16t40 -16q17 -17 17 -35t-6 -35l-68 -150h-39l37 125q-39 8 -39 54zM403 39q119 0 195 81t76 206q0 126 -76 206t-195 80t-195 -81t-75 -205q-1 -124 75 -206q76 -81 195 -81zM403 -16q-143 0 -238 98t-95 244t95 243q95 98 238 99
q180 0 267 -158v944h61v-1454h-61v141q-87 -157 -267 -157z" />
    <glyph glyph-name="Dcroat" unicode="&#x110;" horiz-adv-x="1341" 
d="M268 727h385v-57h-385v-611h236q330 0 505 173t175 464t-175 464t-505 173h-236v-606zM203 670h-160v57h160v666h311q344 1 541 -191t197 -506t-196 -506q-196 -190 -542 -190h-311v670z" />
    <glyph glyph-name="dcroat" unicode="&#x111;" horiz-adv-x="858" 
d="M403 39q119 0 195 81t76 206q0 126 -76 206t-195 80t-195 -81t-75 -205q-1 -124 75 -206q76 -81 195 -81zM670 971h-217v53h217v430h61v-430h139v-53h-139v-971h-61v141q-86 -158 -267 -157q-143 0 -238 98t-95 244t95 243q95 98 238 99q180 0 267 -158v461z" />
    <glyph glyph-name="Emacron" unicode="&#x112;" horiz-adv-x="1140" 
d="M203 0v1393h803v-58h-738v-608h662v-57h-662v-613h766v-57h-831zM418 1567v53h405v-53h-405z" />
    <glyph glyph-name="emacron" unicode="&#x113;" horiz-adv-x="790" 
d="M238 918v53h323v-53h-323zM135 367h520q-11 111 -77 179t-176 68t-183 -69q-72 -69 -84 -178zM412 37q150 0 233 104l41 -37q-94 -120 -259 -120t-261 98t-96 242t96 244t235 100t227 -98t91 -257h-586q4 -127 83 -201t196 -75z" />
    <glyph glyph-name="Edotaccent" unicode="&#x116;" horiz-adv-x="1140" 
d="M621 1546q-19 0 -35 16t-17 35t15 35t36 16t36 -14q16 -16 16 -36t-16 -36t-35 -16zM203 0v1393h803v-58h-738v-608h662v-57h-662v-613h766v-57h-831z" />
    <glyph glyph-name="edotaccent" unicode="&#x117;" horiz-adv-x="790" 
d="M399 881q-20 0 -35 15q-16 16 -16 36t16 36t35 15q19 0 35 -15q16 -16 16 -36t-15 -36q-16 -16 -36 -15zM135 367h520q-11 111 -77 179t-176 68t-183 -69q-72 -69 -84 -178zM412 37q150 0 233 104l41 -37q-94 -120 -259 -120t-261 98t-96 242t96 244t235 100t227 -98
t91 -257h-586q4 -127 83 -201t196 -75z" />
    <glyph glyph-name="Eogonek" unicode="&#x118;" horiz-adv-x="1140" 
d="M203 0v1393h803v-58h-738v-608h662v-57h-662v-613h766v-57h-84q-100 -127 -135 -187q-35 -59 -35 -111t22 -72t52 -21q55 0 86 49l41 -33q-43 -70 -127 -69q-59 0 -98 36t-39 90q0 94 80 200q27 36 92 118h-686z" />
    <glyph glyph-name="eogonek" unicode="&#x119;" horiz-adv-x="790" 
d="M135 367h520q-11 111 -77 179t-176 68t-183 -69q-72 -69 -84 -178zM412 -16q-150 0 -246 98t-96 242t96 244t235 100t227 -98t91 -257h-586q4 -127 83 -201t196 -75q150 0 233 104l41 -37q-23 -30 -77 -74t-119 -127t-87 -131t-22 -86q-1 -38 21 -60t53 -21q53 0 84 49
l41 -29q-44 -69 -114 -69t-108 34q-73 69 -7 199q30 57 60 93t95 112q-47 -10 -94 -10z" />
    <glyph glyph-name="Ecaron" unicode="&#x11a;" horiz-adv-x="1140" 
d="M618 1513l-188 230h53l138 -144l139 144h53l-188 -230h-7zM203 0v1393h803v-58h-738v-608h662v-57h-662v-613h766v-57h-831z" />
    <glyph glyph-name="ecaron" unicode="&#x11b;" horiz-adv-x="790" 
d="M397 838l-188 229h53l137 -143l140 143h53l-189 -229h-6zM135 367h520q-11 111 -77 179t-176 68t-183 -69q-72 -69 -84 -178zM412 37q150 0 233 104l41 -37q-94 -120 -259 -120t-261 98t-96 242t96 244t235 100t227 -98t91 -257h-586q4 -127 83 -201t196 -75z" />
    <glyph glyph-name="Gcircumflex" unicode="&#x11c;" horiz-adv-x="1484" 
d="M596 1534l188 229h7l188 -229h-53l-138 143l-139 -143h-53zM822 -16q-318 0 -525 202t-207 509q0 306 205 510t513 204t503 -217l-47 -43q-176 201 -460 201t-464 -186q-182 -186 -182 -468q0 -281 185 -467t479 -186t476 172v352h-458v58h524v-435q-224 -206 -542 -206z
" />
    <glyph glyph-name="gcircumflex" unicode="&#x11d;" horiz-adv-x="856" 
d="M223 848l189 229h6l188 -229h-53l-137 143l-140 -143h-53zM403 39q119 0 195 81t76 206q0 126 -76 206t-195 80t-195 -81t-75 -205q-1 -124 75 -206q76 -81 195 -81zM731 -129q0 -147 -84 -237t-213 -89q-129 -1 -213 53t-121 142l56 20q32 -74 102 -116t174 -41t172 73
q66 72 66 199v266q-86 -158 -267 -157q-143 0 -238 98t-95 244t95 243q95 98 238 99q180 0 267 -158v141h61v-780z" />
    <glyph glyph-name="Gbreve" unicode="&#x11e;" horiz-adv-x="1484" 
d="M786 1550q-68 0 -116 36t-66 97l53 19q31 -94 129 -94t129 94l56 -19q-17 -61 -67 -97t-118 -36zM822 -16q-318 0 -525 202t-207 509q0 306 205 510t513 204t503 -217l-47 -43q-176 201 -460 201t-464 -186q-182 -186 -182 -468q0 -281 185 -467t479 -186t476 172v352
h-458v58h524v-435q-224 -206 -542 -206z" />
    <glyph glyph-name="gbreve" unicode="&#x11f;" horiz-adv-x="856" 
d="M414 834q-68 0 -116 36t-67 97l54 18q31 -94 129 -94t129 94l55 -18q-18 -61 -67 -97t-117 -36zM403 39q119 0 195 81t76 206q0 126 -76 206t-195 80t-195 -81t-75 -205q-1 -124 75 -206q76 -81 195 -81zM731 -129q0 -147 -84 -237t-213 -89q-129 -1 -213 53t-121 142
l56 20q32 -74 102 -116t174 -41t172 73q66 72 66 199v266q-86 -158 -267 -157q-143 0 -238 98t-95 244t95 243q95 98 238 99q180 0 267 -158v141h61v-780z" />
    <glyph glyph-name="Gdotaccent" unicode="&#x120;" horiz-adv-x="1484" 
d="M786 1556q-20 0 -35 16t-15 36t14 36q16 16 36 15q20 0 36 -15q16 -16 16 -36t-16 -36t-36 -16zM822 -16q-318 0 -525 202t-207 509q0 306 205 510t513 204t503 -217l-47 -43q-176 201 -460 201t-464 -186q-182 -186 -182 -468q0 -281 185 -467t479 -186t476 172v352
h-458v58h524v-435q-224 -206 -542 -206z" />
    <glyph glyph-name="gdotaccent" unicode="&#x121;" horiz-adv-x="856" 
d="M414 881q-20 0 -36 15q-16 16 -16 36t16 36t36 15q20 0 36 -15q16 -16 15 -36q0 -20 -15 -36q-16 -15 -36 -15zM403 39q119 0 195 81t76 206q0 126 -76 206t-195 80t-195 -81t-75 -205q-1 -124 75 -206q76 -81 195 -81zM731 -129q0 -147 -84 -237t-213 -89
q-129 -1 -213 53t-121 142l56 20q32 -74 102 -116t174 -41t172 73q66 72 66 199v266q-86 -158 -267 -157q-143 0 -238 98t-95 244t95 243q95 98 238 99q180 0 267 -158v141h61v-780z" />
    <glyph glyph-name="Gcommaaccent" unicode="&#x122;" horiz-adv-x="1484" 
d="M735 -152q-1 20 15 36q34 34 68 3q33 -31 13 -65l-59 -144h-35l33 121q-35 8 -35 49zM822 -16q-318 0 -525 202t-207 509q0 306 205 510t513 204t503 -217l-47 -43q-176 201 -460 201t-464 -186q-182 -186 -182 -468q0 -281 185 -467t479 -186t476 172v352h-458v58h524
v-435q-224 -206 -542 -206z" />
    <glyph glyph-name="gcommaaccent" unicode="&#x123;" horiz-adv-x="856" 
d="M463 915q1 -20 -15 -35q-35 -34 -68 -3q-32 30 -13 65l59 143h35l-33 -120q35 -8 35 -50zM403 39q119 0 195 81t76 206q0 126 -76 206t-195 80t-195 -81t-75 -205q-1 -124 75 -206q76 -81 195 -81zM731 -129q0 -147 -84 -237t-213 -89q-129 -1 -213 53t-121 142l56 20
q32 -74 102 -116t174 -41t172 73q66 72 66 199v266q-86 -158 -267 -157q-143 0 -238 98t-95 244t95 243q95 98 238 99q180 0 267 -158v141h61v-780z" />
    <glyph glyph-name="Hcircumflex" unicode="&#x124;" horiz-adv-x="1368" 
d="M494 1534l188 229h6l189 -229h-54l-137 143l-139 -143h-53zM1100 727v666h65v-1393h-65v670h-832v-670h-65v1393h65v-666h832z" />
    <glyph glyph-name="hcircumflex" unicode="&#x125;" 
d="M205 1534l188 229h6l189 -229h-53l-138 143l-139 -143h-53zM125 0v1454h61v-926q82 139 242 140q114 0 184 -67t70 -195v-406h-61v395q0 217 -195 217q-106 0 -173 -66t-67 -175v-371h-61z" />
    <glyph glyph-name="Hbar" unicode="&#x126;" horiz-adv-x="1368" 
d="M1100 727v229h-832v-229h832zM39 956v58h164v379h65v-379h832v379h65v-379h164v-58h-164v-956h-65v670h-832v-670h-65v956h-164z" />
    <glyph glyph-name="hbar" unicode="&#x127;" 
d="M403 971h-217v-443q82 139 242 140q114 0 184 -67t70 -195v-406h-61v395q0 217 -195 217q-106 0 -173 -66t-67 -175v-371h-61v971h-139v53h139v430h61v-430h217v-53z" />
    <glyph glyph-name="Imacron" unicode="&#x12a;" horiz-adv-x="487" 
d="M82 1567v53h324v-53h-324zM211 0v1393h65v-1393h-65z" />
    <glyph glyph-name="imacron" unicode="&#x12b;" horiz-adv-x="323" 
d="M41 918v53h242v-53h-242zM131 0v651h62v-651h-62z" />
    <glyph glyph-name="Iogonek" unicode="&#x12e;" horiz-adv-x="487" 
d="M211 1393h65v-1391q-90 -123 -120 -185q-30 -63 -31 -115q0 -94 74 -93q53 0 84 49l41 -33q-44 -69 -114 -69t-110 35q-39 37 -39 91q0 91 70 201q27 41 80 113v1397z" />
    <glyph glyph-name="iogonek" unicode="&#x12f;" horiz-adv-x="323" 
d="M162 881q-20 0 -36 15q-15 16 -15 36t15 36q16 16 36 15q20 0 36 -15q16 -16 15 -36q0 -20 -15 -36q-16 -15 -36 -15zM-14 -313q0 119 145 309v655h62v-649q-86 -123 -117 -186q-31 -64 -31 -116t22 -74t52 -21q53 0 84 49l41 -29q-44 -69 -114 -69t-107 35t-37 96z" />
    <glyph glyph-name="Idotaccent" unicode="&#x130;" horiz-adv-x="487" 
d="M244 1556q-20 0 -36 16t-15 36q0 20 15 36q16 16 36 15q20 0 36 -15q16 -16 15 -36q1 -20 -15 -36t-36 -16zM211 0v1393h65v-1393h-65z" />
    <glyph glyph-name="dotlessi" unicode="&#x131;" horiz-adv-x="323" 
d="M131 0v651h62v-651h-62z" />
    <glyph glyph-name="Jcircumflex" unicode="&#x134;" horiz-adv-x="921" 
d="M510 1534l188 229h7l188 -229h-53l-138 143l-139 -143h-53zM395 -16q-209 0 -317 182l51 35q86 -158 266 -158q125 0 199 72t74 215v1063h65v-1067q0 -166 -94 -254t-244 -88z" />
    <glyph glyph-name="jcircumflex" unicode="&#x135;" horiz-adv-x="323" 
d="M-29 848l189 229h6l188 -229h-53l-137 143l-139 -143h-54zM52 -451q-62 0 -101 33l31 45q29 -23 63 -22q86 0 86 116v930h62v-936q0 -80 -39 -123q-40 -43 -102 -43z" />
    <glyph glyph-name="Kcommaaccent" unicode="&#x136;" horiz-adv-x="1175" 
d="M569 -152q-1 20 15 36q36 36 68 4q32 -31 14 -66l-60 -144h-35l33 121q-35 8 -35 49zM268 0h-65v1393h65v-840l711 840h76l-529 -625l578 -768h-80l-541 719l-215 -250v-469z" />
    <glyph glyph-name="kcommaaccent" unicode="&#x137;" horiz-adv-x="677" 
d="M313 -152q-1 20 15 36q36 36 68 4q32 -31 14 -66l-60 -144h-35l33 121q-35 8 -35 49zM186 0h-61v1454h61v-1184l334 381h72l-254 -289l309 -362h-78l-270 317l-113 -129v-188z" />
    <glyph glyph-name="Lacute" unicode="&#x139;" horiz-adv-x="1011" 
d="M209 1528l123 270h67l-139 -270h-51zM203 0v1393h65v-1336h674v-57h-739z" />
    <glyph glyph-name="lacute" unicode="&#x13a;" horiz-adv-x="323" 
d="M133 1528l123 270h68l-140 -270h-51zM131 0v1454h62v-1454h-62z" />
    <glyph glyph-name="Lcommaaccent" unicode="&#x13b;" horiz-adv-x="1011" 
d="M512 -152q0 20 15 36q34 35 71 0q16 -14 16 -32t-6 -30l-59 -144h-35l33 121q-35 8 -35 49zM203 0v1393h65v-1336h674v-57h-739z" />
    <glyph glyph-name="lcommaaccent" unicode="&#x13c;" horiz-adv-x="323" 
d="M213 -148q0 -18 -6 -30l-60 -144h-34l32 121q-35 8 -34 49q0 20 15 36q34 34 70 0q16 -14 17 -32zM131 0v1454h62v-1454h-62z" />
    <glyph glyph-name="Lcaron" unicode="&#x13d;" horiz-adv-x="1011" 
d="M203 0v1393h65v-1336h674v-57h-739zM567 1348q-1 25 17 41t41 16t40 -16q17 -17 17 -35t-6 -35l-68 -150h-39l37 125q-39 8 -39 54z" />
    <glyph glyph-name="lcaron" unicode="&#x13e;" horiz-adv-x="323" 
d="M131 0v1454h62v-1454h-62zM289 1348q0 25 17 41t40 16t40 -16q17 -17 17 -35t-6 -35l-67 -150h-39l37 125q-39 8 -39 54z" />
    <glyph glyph-name="Lslash" unicode="&#x141;" horiz-adv-x="1011" 
d="M268 57h674v-57h-739v551l-160 -51v55l160 51v787h65v-766l406 133v-55l-406 -132v-516z" />
    <glyph glyph-name="lslash" unicode="&#x142;" horiz-adv-x="385" 
d="M223 0h-61v502l-133 -82v61l133 82v891h61v-854l142 86v-61l-142 -86v-539z" />
    <glyph glyph-name="Nacute" unicode="&#x143;" horiz-adv-x="1447" 
d="M713 1528l123 270h67l-139 -270h-51zM262 0h-59v1427h8l975 -1294v1260h59v-1428h-8l-975 1295v-1260z" />
    <glyph glyph-name="nacute" unicode="&#x144;" 
d="M373 811l123 270h67l-139 -270h-51zM186 528q70 140 259 140q97 0 167 -67t70 -195v-406h-61v395q0 217 -195 217q-106 0 -173 -66t-67 -175v-371h-61v651h61v-123z" />
    <glyph glyph-name="Ncommaaccent" unicode="&#x145;" horiz-adv-x="1447" 
d="M651 -152q-1 20 15 36q34 34 67 4q32 -30 15 -66l-60 -144h-35l33 121q-35 8 -35 49zM262 0h-59v1427h8l975 -1294v1260h59v-1428h-8l-975 1295v-1260z" />
    <glyph glyph-name="ncommaaccent" unicode="&#x146;" 
d="M350 -152q0 20 16 36q34 34 67 3t13 -65l-59 -144h-35l33 121q-35 8 -35 49zM186 528q70 140 259 140q97 0 167 -67t70 -195v-406h-61v395q0 217 -195 217q-106 0 -173 -66t-67 -175v-371h-61v651h61v-123z" />
    <glyph glyph-name="Ncaron" unicode="&#x147;" horiz-adv-x="1447" 
d="M739 1513l-188 230h53l137 -144l140 144h53l-189 -230h-6zM262 0h-59v1427h8l975 -1294v1260h59v-1428h-8l-975 1295v-1260z" />
    <glyph glyph-name="ncaron" unicode="&#x148;" 
d="M399 838l-188 229h53l137 -143l140 143h53l-188 -229h-7zM186 528q70 140 259 140q97 0 167 -67t70 -195v-406h-61v395q0 217 -195 217q-106 0 -173 -66t-67 -175v-371h-61v651h61v-123z" />
    <glyph glyph-name="Omacron" unicode="&#x14c;" horiz-adv-x="1605" 
d="M803 43q276 0 461 186q184 186 184 467t-184 467q-184 187 -460 187t-462 -186q-184 -186 -184 -468q0 -281 184 -467t461 -186zM803 -16q-299 0 -506 204t-207 508q0 305 207 509t506 204t506 -204t207 -509q0 -304 -207 -508t-506 -204zM580 1567v53h446v-53h-446z" />
    <glyph glyph-name="omacron" unicode="&#x14d;" horiz-adv-x="811" 
d="M244 918v53h323v-53h-323zM406 37q116 0 194 83t78 206q0 124 -78 206t-194 82t-195 -83q-78 -83 -78 -205t78 -206q78 -83 195 -83zM406 -16q-139 0 -238 99q-98 99 -98 243t98 242q98 100 238 100t237 -100q98 -100 98 -242t-98 -242t-237 -100z" />
    <glyph glyph-name="Ohungarumlaut" unicode="&#x150;" horiz-adv-x="1605" 
d="M698 1528l123 270h66l-137 -270h-52zM866 1528l123 270h66l-137 -270h-52zM803 43q276 0 461 186q184 186 184 467t-184 467q-184 187 -460 187t-462 -186q-184 -186 -184 -468q0 -281 184 -467t461 -186zM803 -16q-299 0 -506 204t-207 508q0 305 207 509t506 204
t506 -204t207 -509q0 -304 -207 -508t-506 -204z" />
    <glyph glyph-name="ohungarumlaut" unicode="&#x151;" horiz-adv-x="811" 
d="M301 811l123 270h65l-137 -270h-51zM469 811l123 270h65l-137 -270h-51zM406 37q116 0 194 83t78 206q0 124 -78 206t-194 82t-195 -83q-78 -83 -78 -205t78 -206q78 -83 195 -83zM406 -16q-139 0 -238 99q-98 99 -98 243t98 242q98 100 238 100t237 -100
q98 -100 98 -242t-98 -242t-237 -100z" />
    <glyph glyph-name="OE" unicode="&#x152;" horiz-adv-x="1970" 
d="M838 59h194v1274h-194q-330 0 -505 -173t-175 -464t175 -464t505 -173zM827 0q-345 0 -541 191t-196 505t196 506q196 190 541 191h1008v-58h-737v-608h661v-57h-661v-613h766v-57h-1037z" />
    <glyph glyph-name="oe" unicode="&#x153;" horiz-adv-x="1398" 
d="M406 37q116 0 194 83t78 206q0 124 -78 206t-194 82t-195 -83q-78 -83 -78 -205t78 -206q78 -83 195 -83zM743 367h521q-12 111 -78 179t-176 68t-182 -69t-85 -178zM390 -16q-122 0 -222 99q-98 99 -98 243t98 242q98 100 221 100t204 -60t116 -155q35 96 114 155
q80 59 183 60q143 0 230 -98t91 -257h-586q4 -127 83 -201t196 -75q150 0 233 104l41 -37q-94 -121 -274 -120q-113 0 -195 57q-81 58 -116 156q-35 -97 -116 -155t-203 -58z" />
    <glyph glyph-name="Racute" unicode="&#x154;" horiz-adv-x="1153" 
d="M547 1528l123 270h67l-139 -270h-51zM268 672h318q178 0 273 90t95 237t-96 241t-272 95h-318v-663zM268 614v-614h-65v1393h391q202 0 314 -113q112 -114 112 -270t-86 -258t-244 -129l395 -623h-73l-389 614h-355z" />
    <glyph glyph-name="racute" unicode="&#x155;" horiz-adv-x="509" 
d="M250 811l123 270h67l-139 -270h-51zM125 0v651h61v-114q68 131 195 131q59 0 100 -23l-22 -51q-27 16 -93 16t-123 -68q-56 -68 -57 -165v-377h-61z" />
    <glyph glyph-name="Rcommaaccent" unicode="&#x156;" horiz-adv-x="1153" 
d="M524 -152q0 20 16 36q34 34 66 4t15 -66l-60 -144h-35l33 121q-35 8 -35 49zM268 672h318q178 0 273 90t95 237t-96 241t-272 95h-318v-663zM268 614v-614h-65v1393h391q202 0 314 -113q112 -114 112 -270t-86 -258t-244 -129l395 -623h-73l-389 614h-355z" />
    <glyph glyph-name="rcommaaccent" unicode="&#x157;" horiz-adv-x="509" 
d="M211 -148q0 -18 -6 -30l-60 -144h-34l32 121q-35 8 -34 49q0 20 15 36q34 34 70 0q16 -14 17 -32zM125 0v651h61v-114q68 131 195 131q59 0 100 -23l-22 -51q-27 16 -93 16t-123 -68q-56 -68 -57 -165v-377h-61z" />
    <glyph glyph-name="Rcaron" unicode="&#x158;" horiz-adv-x="1153" 
d="M573 1513l-188 230h53l137 -144l140 144h53l-188 -230h-7zM268 672h318q178 0 273 90t95 237t-96 241t-272 95h-318v-663zM268 614v-614h-65v1393h391q202 0 314 -113q112 -114 112 -270t-86 -258t-244 -129l395 -623h-73l-389 614h-355z" />
    <glyph glyph-name="rcaron" unicode="&#x159;" horiz-adv-x="509" 
d="M276 838l-188 229h53l138 -143l139 143h53l-188 -229h-7zM125 0v651h61v-114q68 131 195 131q59 0 100 -23l-22 -51q-27 16 -93 16t-123 -68q-56 -68 -57 -165v-377h-61z" />
    <glyph glyph-name="Sacute" unicode="&#x15a;" horiz-adv-x="1067" 
d="M487 1528l123 270h68l-139 -270h-52zM492 1409q242 0 364 -197l-49 -28q-104 168 -315 168q-119 0 -196 -71t-77 -179q-1 -108 59 -170q60 -61 209 -135l125 -62q180 -88 256 -177q76 -88 76 -236t-110 -243t-304 -95q-313 0 -458 272l55 31q129 -244 419 -244
q148 0 241 79t93 206q0 128 -66 202q-67 74 -228 152l-127 61q-160 78 -232 156q-71 78 -71 209t96 216t240 85z" />
    <glyph glyph-name="sacute" unicode="&#x15b;" horiz-adv-x="634" 
d="M283 811l123 270h67l-139 -270h-51zM334 -16q-197 0 -268 161l53 23q55 -131 215 -131q74 0 119 34t45 93t-44 91q-44 31 -146 65t-150 73q-47 39 -47 113t53 118t139 44q143 0 205 -115l-51 -27q-51 88 -154 88q-59 0 -96 -28t-37 -68q0 -39 9 -59q20 -44 143 -82
q123 -39 180 -82t57 -129q-1 -86 -63 -134t-162 -48z" />
    <glyph glyph-name="Scircumflex" unicode="&#x15c;" horiz-adv-x="1067" 
d="M326 1534l188 229h6l189 -229h-54l-137 143l-139 -143h-53zM492 1409q242 0 364 -197l-49 -28q-104 168 -315 168q-119 0 -196 -71t-77 -179q-1 -108 59 -170q60 -61 209 -135l125 -62q180 -88 256 -177q76 -88 76 -236t-110 -243t-304 -95q-313 0 -458 272l55 31
q129 -244 419 -244q148 0 241 79t93 206q0 128 -66 202q-67 74 -228 152l-127 61q-160 78 -232 156q-71 78 -71 209t96 216t240 85z" />
    <glyph glyph-name="scircumflex" unicode="&#x15d;" horiz-adv-x="634" 
d="M121 848l188 229h6l189 -229h-53l-138 143l-139 -143h-53zM334 -16q-197 0 -268 161l53 23q55 -131 215 -131q74 0 119 34t45 93t-44 91q-44 31 -146 65t-150 73q-47 39 -47 113t53 118t139 44q143 0 205 -115l-51 -27q-51 88 -154 88q-59 0 -96 -28t-37 -68q0 -39 9 -59
q20 -44 143 -82q123 -39 180 -82t57 -129q-1 -86 -63 -134t-162 -48z" />
    <glyph glyph-name="Scedilla" unicode="&#x15e;" horiz-adv-x="1067" 
d="M127 287q129 -244 419 -244q148 0 241 79t93 206q0 128 -66 202q-67 74 -228 152l-127 61q-160 78 -232 156q-71 78 -71 209t96 216t240 85q242 0 364 -197l-49 -28q-104 168 -315 168q-119 0 -196 -71t-77 -179q-1 -108 59 -170q60 -61 209 -135l125 -62
q180 -88 256 -177q76 -88 76 -236t-110 -242t-299 -96v-97q53 -4 89 -42t36 -97t-42 -94q-41 -35 -98 -35q-109 0 -147 92l45 25q29 -66 102 -66q35 0 59 20t23 60q0 90 -100 90h-19v146q-279 20 -411 270z" />
    <glyph glyph-name="scedilla" unicode="&#x15f;" horiz-adv-x="634" 
d="M311 -381q-109 0 -147 92l45 25q29 -66 102 -66q35 0 59 20t23 60q0 90 -100 90h-19v148q-147 23 -208 157l53 23q55 -131 215 -131q74 0 119 34t45 93t-44 91q-44 31 -146 65t-150 73q-47 39 -47 113t53 118t139 44q143 0 205 -115l-51 -27q-51 88 -154 88
q-59 0 -96 -28t-37 -68q0 -39 9 -59q20 -44 143 -82q123 -39 180 -82t57 -129t-62 -134t-163 -48h-8v-97q53 -4 89 -42t36 -97q1 -59 -41 -94t-99 -35z" />
    <glyph glyph-name="Scaron" unicode="&#x160;" horiz-adv-x="1067" 
d="M514 1513l-188 230h53l137 -144l139 144h54l-189 -230h-6zM492 1409q242 0 364 -197l-49 -28q-104 168 -315 168q-119 0 -196 -71t-77 -179q-1 -108 59 -170q60 -61 209 -135l125 -62q180 -88 256 -177q76 -88 76 -236t-110 -243t-304 -95q-313 0 -458 272l55 31
q129 -244 419 -244q148 0 241 79t93 206q0 128 -66 202q-67 74 -228 152l-127 61q-160 78 -232 156q-71 78 -71 209t96 216t240 85z" />
    <glyph glyph-name="scaron" unicode="&#x161;" horiz-adv-x="634" 
d="M309 838l-188 229h53l137 -143l140 143h53l-189 -229h-6zM334 -16q-197 0 -268 161l53 23q55 -131 215 -131q74 0 119 34t45 93t-44 91q-44 31 -146 65t-150 73q-47 39 -47 113t53 118t139 44q143 0 205 -115l-51 -27q-51 88 -154 88q-59 0 -96 -28t-37 -68q0 -39 9 -59
q20 -44 143 -82q123 -39 180 -82t57 -129q-1 -86 -63 -134t-162 -48z" />
    <glyph glyph-name="Tcommaaccent" unicode="&#x162;" horiz-adv-x="1064" 
d="M481 -152q-1 20 15 36q34 34 67 4q32 -30 15 -66l-60 -144h-35l33 121q-35 8 -35 49zM500 0v1335h-447v58h959v-58h-447v-1335h-65z" />
    <glyph glyph-name="tcommaaccent" unicode="&#x163;" horiz-adv-x="473" 
d="M211 -152q0 20 15 36q34 35 71 0q16 -14 16 -32t-6 -30l-59 -144h-35l33 121q-35 8 -35 49zM158 598h-92v53h92v269h61v-269h170v-53h-170v-457q0 -102 82 -102q43 0 84 33l31 -45q-47 -43 -115 -43q-67 0 -105 41t-38 108v465z" />
    <glyph glyph-name="Tcaron" unicode="&#x164;" horiz-adv-x="1064" 
d="M530 1513l-188 230h53l137 -144l140 144h53l-188 -230h-7zM500 0v1335h-447v58h959v-58h-447v-1335h-65z" />
    <glyph glyph-name="tcaron" unicode="&#x165;" horiz-adv-x="473" 
d="M158 598h-92v53h92v269h61v-269h170v-53h-170v-457q0 -102 82 -102q43 0 84 33l31 -45q-47 -43 -115 -43q-67 0 -105 41t-38 108v465zM311 1348q-1 25 17 41t41 16t40 -16q17 -17 17 -35t-6 -35l-68 -150h-39l37 125q-39 8 -39 54z" />
    <glyph glyph-name="Umacron" unicode="&#x16a;" horiz-adv-x="1298" 
d="M648 -16q-204 0 -332 125t-128 350v934h66v-928q0 -201 108 -313t285 -111q178 0 288 112t109 312v928h66v-934q0 -225 -129 -350t-333 -125zM446 1567v53h406v-53h-406z" />
    <glyph glyph-name="umacron" unicode="&#x16b;" 
d="M231 918v53h324v-53h-324zM350 -16q-98 0 -167 66t-68 196v405h61v-395q0 -217 195 -217q106 -1 173 65t66 177v370h62v-651h-62v123q-70 -139 -260 -139z" />
    <glyph glyph-name="Ubreve" unicode="&#x16c;" horiz-adv-x="1298" 
d="M649 1550q-67 0 -115 36t-67 97l53 19q31 -94 129 -94t129 94l56 -19q-18 -61 -68 -97t-117 -36zM648 -16q-204 0 -332 125t-128 350v934h66v-928q0 -201 108 -313t285 -111q178 0 288 112t109 312v928h66v-934q0 -225 -129 -350t-333 -125z" />
    <glyph glyph-name="ubreve" unicode="&#x16d;" 
d="M393 834q-67 0 -115 36t-67 97l53 18q31 -94 129 -94t129 94l56 -18q-18 -61 -68 -97t-117 -36zM350 -16q-98 0 -167 66t-68 196v405h61v-395q0 -217 195 -217q106 -1 173 65t66 177v370h62v-651h-62v123q-70 -139 -260 -139z" />
    <glyph glyph-name="Uring" unicode="&#x16e;" horiz-adv-x="1298" 
d="M649 1464q41 0 67 27t25 70q1 43 -25 71t-67 27q-41 0 -67 -28q-26 -29 -25 -71q-1 -42 25 -69t67 -27zM649 1415q-61 0 -104 43q-43 42 -43 102t43 104t104 44t105 -44t43 -103q0 -59 -43 -103q-44 -43 -105 -43zM648 -16q-204 0 -332 125t-128 350v934h66v-928
q0 -201 108 -313t285 -111q178 0 288 112t109 312v928h66v-934q0 -225 -129 -350t-333 -125z" />
    <glyph glyph-name="uring" unicode="&#x16f;" 
d="M393 829q41 0 67 27t25 70q1 42 -25 70t-67 28t-67 -28t-25 -70q-1 -42 25 -70q26 -27 67 -27zM393 780q-61 0 -104 43t-43 103t43 103q43 44 104 44t105 -44t43 -103q0 -59 -43 -103q-44 -43 -105 -43zM350 -16q-98 0 -167 66t-68 196v405h61v-395q0 -217 195 -217
q106 -1 173 65t66 177v370h62v-651h-62v123q-70 -139 -260 -139z" />
    <glyph glyph-name="Uhungarumlaut" unicode="&#x170;" horiz-adv-x="1298" 
d="M545 1528l123 270h65l-137 -270h-51zM713 1528l123 270h65l-137 -270h-51zM648 -16q-204 0 -332 125t-128 350v934h66v-928q0 -201 108 -313t285 -111q178 0 288 112t109 312v928h66v-934q0 -225 -129 -350t-333 -125z" />
    <glyph glyph-name="uhungarumlaut" unicode="&#x171;" 
d="M289 811l123 270h65l-137 -270h-51zM457 811l123 270h65l-137 -270h-51zM350 -16q-98 0 -167 66t-68 196v405h61v-395q0 -217 195 -217q106 -1 173 65t66 177v370h62v-651h-62v123q-70 -139 -260 -139z" />
    <glyph glyph-name="Uogonek" unicode="&#x172;" horiz-adv-x="1298" 
d="M647 -16q-203 0 -331 125t-128 350v934h66v-928q0 -201 108 -313t285 -111q178 0 288 112t109 312v928h66v-934q0 -270 -195 -400q-23 -16 -84 -54t-88 -64q-133 -133 -133 -246q0 -43 23 -65t53 -21q53 0 84 49l41 -33q-43 -69 -113 -69t-111 36q-40 36 -40 103
q0 147 184 295q-55 -6 -84 -6z" />
    <glyph glyph-name="uogonek" unicode="&#x173;" 
d="M438 -310q0 64 42 134t130 174v125q-34 -66 -98 -103t-143 -36q-117 0 -186 66t-68 196v405h61v-395q0 -217 195 -217q106 -1 173 65t66 177v370h62v-649q-104 -134 -140 -194t-34 -110q0 -50 22 -72t51 -21q53 0 84 49l41 -29q-44 -69 -114 -69t-107 34t-37 100z" />
    <glyph glyph-name="Ydieresis" unicode="&#x178;" horiz-adv-x="1155" 
d="M471 1548q-17 0 -33 14t-16 35t15 35q34 33 68 0q15 -14 15 -34t-16 -36q-16 -14 -33 -14zM684 1548q-18 0 -34 14t-15 35q0 21 15 35q34 33 68 0q15 -14 15 -34q1 -20 -15 -36q-16 -14 -34 -14zM610 0h-65v559l-488 834h74l447 -764l448 764h72l-488 -834v-559z" />
    <glyph glyph-name="Zacute" unicode="&#x179;" horiz-adv-x="1155" 
d="M557 1528l123 270h68l-140 -270h-51zM72 0v6l872 1329h-782v58h887v-7l-873 -1329h901v-57h-1005z" />
    <glyph glyph-name="zacute" unicode="&#x17a;" horiz-adv-x="651" 
d="M305 811l123 270h68l-140 -270h-51zM59 0v6l424 592h-377v53h482v-6l-424 -592h422v-53h-527z" />
    <glyph glyph-name="Zdotaccent" unicode="&#x17b;" horiz-adv-x="1155" 
d="M586 1556q-20 0 -36 16t-15 36q0 20 15 36q16 16 36 15q20 0 36 -15q16 -16 15 -36q1 -20 -15 -36t-36 -16zM72 0v6l872 1329h-782v58h887v-7l-873 -1329h901v-57h-1005z" />
    <glyph glyph-name="zdotaccent" unicode="&#x17c;" horiz-adv-x="651" 
d="M334 881q-20 0 -36 15q-15 16 -15 36t15 36q16 16 36 15q20 0 36 -15q16 -16 15 -36q0 -20 -15 -36q-16 -15 -36 -15zM59 0v6l424 592h-377v53h482v-6l-424 -592h422v-53h-527z" />
    <glyph glyph-name="Zcaron" unicode="&#x17d;" horiz-adv-x="1155" 
d="M584 1513l-189 230h54l137 -144l139 144h53l-188 -230h-6zM72 0v6l872 1329h-782v58h887v-7l-873 -1329h901v-57h-1005z" />
    <glyph glyph-name="zcaron" unicode="&#x17e;" horiz-adv-x="651" 
d="M332 838l-189 229h54l137 -143l139 143h53l-188 -229h-6zM59 0v6l424 592h-377v53h482v-6l-424 -592h422v-53h-527z" />
    <glyph glyph-name="florin" unicode="&#x192;" horiz-adv-x="659" 
d="M94 453v55h158l39 350q20 182 194 182q84 0 142 -79l-47 -37q-45 59 -107 59q-106 0 -123 -133l-39 -342h189v-55h-195l-98 -887h-60l99 887h-152z" />
    <glyph glyph-name="Scommaaccent" unicode="&#x218;" horiz-adv-x="1067" 
d="M465 -152q0 20 15 36q34 35 71 0q16 -14 16 -32t-6 -30l-59 -144h-35l33 121q-35 8 -35 49zM492 1409q242 0 364 -197l-49 -28q-104 168 -315 168q-119 0 -196 -71t-77 -179q-1 -108 59 -170q60 -61 209 -135l125 -62q180 -88 256 -177q76 -88 76 -236t-110 -243
t-304 -95q-313 0 -458 272l55 31q129 -244 419 -244q148 0 241 79t93 206q0 128 -66 202q-67 74 -228 152l-127 61q-160 78 -232 156q-71 78 -71 209t96 216t240 85z" />
    <glyph glyph-name="scommaaccent" unicode="&#x219;" horiz-adv-x="634" 
d="M260 -152q0 20 15 36q34 35 71 0q16 -14 16 -32t-6 -30l-59 -144h-35l33 121q-35 8 -35 49zM334 -16q-197 0 -268 161l53 23q55 -131 215 -131q74 0 119 34t45 93t-44 91q-44 31 -146 65t-150 73q-47 39 -47 113t53 118t139 44q143 0 205 -115l-51 -27q-51 88 -154 88
q-59 0 -96 -28t-37 -68q0 -39 9 -59q20 -44 143 -82q123 -39 180 -82t57 -129q-1 -86 -63 -134t-162 -48z" />
    <glyph glyph-name="uni021A" unicode="&#x21a;" horiz-adv-x="1064" 
d="M500 0v1335h-447v58h959v-58h-447v-1335h-8v-113q53 -4 89 -42t36 -97t-41 -94t-98 -35q-109 0 -148 92l45 25q29 -66 103 -66q35 0 59 20t23 60q0 90 -101 90h-18v160h-6z" />
    <glyph glyph-name="uni021B" unicode="&#x21b;" horiz-adv-x="473" 
d="M158 598h-92v53h92v269h61v-269h170v-53h-170v-457q0 -102 82 -102q43 0 84 33l31 -45q-47 -43 -115 -43q-14 0 -20 2v-99q53 -4 89 -42t36 -97t-41 -94t-99 -35q-109 0 -147 92l45 25q29 -66 102 -66q35 0 59 20t23 60q0 90 -100 90h-19v160q-72 35 -71 133v465z" />
    <glyph glyph-name="uni0237" unicode="&#x237;" horiz-adv-x="323" 
d="M52 -451q-62 0 -101 33l31 45q29 -23 63 -22q86 0 86 116v930h62v-936q0 -80 -39 -123q-40 -43 -102 -43z" />
    <glyph glyph-name="circumflex" unicode="&#x2c6;" horiz-adv-x="1024" 
d="M319 848l189 229h6l188 -229h-53l-137 143l-139 -143h-54z" />
    <glyph glyph-name="caron" unicode="&#x2c7;" horiz-adv-x="1024" 
d="M510 838l-188 229h53l137 -143l139 143h54l-189 -229h-6z" />
    <glyph glyph-name="breve" unicode="&#x2d8;" horiz-adv-x="1024" 
d="M512 834q-68 0 -116 36t-66 97l53 18q31 -94 129 -94t129 94l55 -18q-18 -61 -67 -97t-117 -36z" />
    <glyph glyph-name="dotaccent" unicode="&#x2d9;" horiz-adv-x="1024" 
d="M512 881q-20 0 -36 15q-15 16 -15 36t15 36q16 16 36 15q20 0 36 -15q16 -16 15 -36q0 -20 -15 -36q-16 -15 -36 -15z" />
    <glyph glyph-name="ring" unicode="&#x2da;" horiz-adv-x="1024" 
d="M512 829q41 0 67 27t25 70q0 42 -26 70t-66 28q-41 0 -67 -28q-25 -28 -25 -70t26 -70q26 -27 66 -27zM512 780q-61 0 -104 43t-43 103t43 103q43 44 104 44t104 -44t43 -103q0 -58 -43 -102t-104 -44z" />
    <glyph glyph-name="ogonek" unicode="&#x2db;" horiz-adv-x="1024" 
d="M385 -302q0 -50 22 -72t52 -21q53 0 84 49l41 -29q-44 -69 -114 -69t-108 34q-71 68 -10 200q27 56 57 96t91 114h57q-104 -136 -138 -194t-34 -108z" />
    <glyph glyph-name="tilde" unicode="&#x2dc;" horiz-adv-x="1024" 
d="M600 862q-43 0 -98 43t-80 43t-37 -19t-23 -63l-51 8q25 129 113 130q43 0 98 -43t80 -43t37 19t23 62l51 -8q-25 -129 -113 -129z" />
    <glyph glyph-name="hungarumlaut" unicode="&#x2dd;" horiz-adv-x="1024" 
d="M383 811l123 270h65l-137 -270h-51zM551 811l123 270h65l-137 -270h-51z" />
    <glyph glyph-name="endash" unicode="&#x2013;" horiz-adv-x="792" 
d="M80 328v53h633v-53h-633z" />
    <glyph glyph-name="emdash" unicode="&#x2014;" horiz-adv-x="1232" 
d="M80 328v53h1073v-53h-1073z" />
    <glyph glyph-name="quoteleft" unicode="&#x2018;" horiz-adv-x="290" 
d="M203 1214q1 -24 -17 -40t-41 -16t-40 16t-17 35t6 34l68 150h39l-37 -125q39 -8 39 -54z" />
    <glyph glyph-name="quoteright" unicode="&#x2019;" horiz-adv-x="290" 
d="M88 1348q0 25 17 41t40 16t45 -21t7 -65l-68 -150h-39l37 125q-39 8 -39 54z" />
    <glyph glyph-name="quotesinglbase" unicode="&#x201a;" horiz-adv-x="290" 
d="M88 45q0 25 17 41t40 16t45 -21t7 -65l-68 -149h-39l37 125q-39 8 -39 53z" />
    <glyph glyph-name="quotedblleft" unicode="&#x201c;" horiz-adv-x="499" 
d="M203 1214q1 -24 -17 -40t-41 -16t-40 16t-17 35t6 34l68 150h39l-37 -125q39 -8 39 -54zM412 1214q0 -24 -18 -40t-40 -16q-23 0 -40 16t-17 35t6 34l68 150h39l-37 -125q39 -8 39 -54z" />
    <glyph glyph-name="quotedblright" unicode="&#x201d;" horiz-adv-x="499" 
d="M88 1348q0 25 17 41t40 16t45 -21t7 -65l-68 -150h-39l37 125q-39 8 -39 54zM297 1348q0 25 17 41t40 16t45 -21t7 -65l-68 -150h-39l37 125q-39 8 -39 54z" />
    <glyph glyph-name="quotedblbase" unicode="&#x201e;" horiz-adv-x="499" 
d="M88 45q0 25 17 41t40 16t45 -21t7 -65l-68 -149h-39l37 125q-39 8 -39 53zM297 45q0 25 17 41t40 16t45 -21t7 -65l-68 -149h-39l37 125q-39 8 -39 53z" />
    <glyph glyph-name="dagger" unicode="&#x2020;" horiz-adv-x="503" 
d="M221 1135h-160v53h160v205h62v-205h159v-53h-159v-451h-62v451z" />
    <glyph glyph-name="daggerdbl" unicode="&#x2021;" horiz-adv-x="503" 
d="M221 1135h-160v53h160v205h62v-205h159v-53h-159v-193h159v-53h-159v-205h-62v205h-160v53h160v193z" />
    <glyph glyph-name="bullet" unicode="&#x2022;" horiz-adv-x="507" 
d="M254 307q-59 0 -101 42q-42 43 -42 103t42 101t101 41t101 -41t42 -101t-42 -102t-101 -43z" />
    <glyph glyph-name="ellipsis" unicode="&#x2026;" horiz-adv-x="888" 
d="M145 -12q-23 0 -40 16t-17 41t17 41t40 16t40 -16t17 -41t-16 -41q-18 -16 -41 -16zM444 -12q-23 0 -40 16t-17 41t17 41t40 16t40 -16q18 -16 18 -41t-18 -41t-40 -16zM743 -12q-23 0 -40 16t-17 41t17 41t40 16t40 -16t17 -41t-16 -41q-18 -16 -41 -16z" />
    <glyph glyph-name="perthousand" unicode="&#x2030;" horiz-adv-x="1755" 
d="M1442 37q80 0 133 54t53 137q0 84 -53 138t-133 54t-133 -54t-53 -138t52 -137q54 -54 134 -54zM1442 -16q-100 0 -173 70t-73 174q0 103 73 174t173 71t173 -71t73 -174q0 -104 -73 -174t-173 -70zM872 37q80 0 134 54q53 54 53 137q0 84 -53 138q-54 54 -134 54
t-133 -54t-53 -138t53 -137q53 -54 133 -54zM872 -16q-100 0 -173 70t-73 174q0 103 73 174t173 71t174 -71t72 -174q0 -103 -72 -174q-74 -70 -174 -70zM313 606q80 0 132 53q53 53 53 137t-54 137q-54 54 -132 54q-79 0 -132 -54t-53 -137q0 -82 53 -136t133 -54zM313 553
q-100 0 -173 71t-72 173q0 102 72 173q73 70 173 70t172 -70t72 -173q0 -102 -72 -173t-172 -71zM244 0l633 1024h65l-633 -1024h-65z" />
    <glyph glyph-name="guilsinglleft" unicode="&#x2039;" horiz-adv-x="358" 
d="M223 66l-157 251v9l157 247h70l-158 -251l158 -256h-70z" />
    <glyph glyph-name="guilsinglright" unicode="&#x203a;" horiz-adv-x="358" 
d="M66 66l157 251l-157 256h69l158 -251v-9l-158 -247h-69z" />
    <glyph glyph-name="fraction" unicode="&#x2044;" horiz-adv-x="657" 
d="M-20 0l632 1024h66l-633 -1024h-65z" />
    <glyph glyph-name="Euro" unicode="&#x20ac;" horiz-adv-x="1257" 
d="M80 586v55h178q41 176 182 288t324 111q240 0 399 -186l-45 -37q-143 166 -354 166q-160 0 -280 -94t-160 -248h557v-55h-568q-4 -49 -4 -84t6 -74h566v-55h-553q42 -150 160 -241t276 -91q111 0 207 48t157 130l46 -35q-156 -201 -410 -200q-180 0 -319 107
q-138 108 -185 282h-180v55h170q-6 41 -6 75t4 83h-168z" />
    <glyph glyph-name="trademark" unicode="&#x2122;" horiz-adv-x="1038" 
d="M195 1341h-129v52h311v-52h-127v-395h-55v395zM471 946v453h6l215 -248l215 248h6v-453h-53v328l-168 -199l-168 199v-328h-53z" />
    <glyph glyph-name="summation" unicode="&#x2211;" horiz-adv-x="1126" 
d="M92 0v6l537 692l-545 688v7h911v-58h-798l505 -635v-6l-497 -637h819v-57h-932z" />
    <glyph glyph-name="minus" unicode="&#x2212;" horiz-adv-x="638" 
d="M559 469h-479v57h479v-57z" />
    <glyph glyph-name="space_uni0326" horiz-adv-x="1024" 
d="M461 -152q0 20 15 36q34 35 71 0q16 -14 16 -32t-6 -30l-59 -144h-35l33 121q-35 8 -35 49z" />
    <glyph glyph-name="idotaccent" horiz-adv-x="323" 
d="M131 0v651h62v-651h-62zM162 881q-20 0 -36 15q-15 16 -15 36t15 36q16 16 36 15q20 0 36 -15q16 -16 15 -36q0 -20 -15 -36q-16 -15 -36 -15z" />
    <glyph glyph-name="L_A" horiz-adv-x="2314" 
d="M203 0v1393h65v-1336h682l-22 -57h-725zM1663 1276l-322 -807h639zM2167 0l-164 412h-684l-162 -412h-65l567 1427h8l567 -1427h-67z" />
    <glyph glyph-name="G.alt" horiz-adv-x="1568" 
d="M811 -16q-303 0 -512 202t-209 509q0 306 205 510t502 204q377 0 579 -276l-51 -37q-182 254 -528 254q-275 0 -457 -186t-182 -468q0 -281 185 -467t464 -186t431 148t175 382h-584v58h656q-15 -295 -193 -471t-481 -176z" />
    <glyph glyph-name="K.alt" horiz-adv-x="1105" 
d="M268 1393v-691l688 691h80l-690 -695l717 -698h-88l-707 686v-686h-65v1393h65z" />
    <glyph glyph-name="M.alt" horiz-adv-x="1669" 
d="M158 0l155 1421h9l512 -1024l514 1024h8l155 -1421h-61l-135 1227l-481 -953h-7l-475 955l-135 -1229h-59z" />
    <glyph glyph-name="Q.alt" horiz-adv-x="1605" 
d="M1448 692q0 285 -184 471q-184 187 -460 187t-462 -186q-184 -186 -184 -468q0 -281 184 -467t461 -186q233 0 407 137l-219 228l45 41l219 -228q193 186 193 471zM90 696q0 305 207 509t506 204t506 -204t207 -511t-218 -518l207 -215l-45 -41l-209 217
q-188 -154 -448 -153q-299 0 -506 204t-207 508z" />
    <glyph glyph-name="Q.alt1" horiz-adv-x="1605" 
d="M803 43q276 0 461 186q184 186 184 467t-184 467q-184 187 -460 187t-462 -186q-184 -186 -184 -468q0 -281 184 -467t461 -186zM1227 -236q115 0 205 74l38 -45q-96 -88 -258 -88t-366 160q-66 53 -111 84t-119 61t-141 29q-137 0 -233 -117l-43 35q96 117 227 131
q-154 90 -245 251t-91 357q0 305 207 509t506 204t506 -204t207 -510t-206 -507t-513 -200q-17 0 -27 2q56 -39 114 -84t97 -70q39 -24 107 -48t139 -24z" />
    <glyph glyph-name="W.alt" horiz-adv-x="1902" 
d="M922 821l-232 572h66l198 -490l197 490h61l-229 -566l287 -708l489 1274h64l-547 -1428h-8l-318 783l-315 -783h-8l-547 1428h65l492 -1276z" />
    <glyph glyph-name="AE.alt" horiz-adv-x="1863" 
d="M647 1272l-317 -803h598zM1343 1393v-58h-655l215 -608h563v-57h-542l217 -613h659v-57h-706l-146 412h-641l-162 -412h-65l553 1393h710z" />
    <glyph glyph-name="a.alt" horiz-adv-x="841" 
d="M397 39q117 0 190 81t72 206q-1 126 -73 206t-189 80t-191 -81t-73 -205q-1 -124 73 -206q74 -81 191 -81zM397 -16q-141 0 -234 98t-93 244t93 243q93 98 234 99q172 0 258 -158v141h62v-651h-62v141q-86 -157 -258 -157z" />
    <glyph glyph-name="g.alt" horiz-adv-x="698" 
d="M347 -403q124 0 206 53t82 149q0 182 -293 183q-135 0 -203 -54q-67 -54 -67 -143q0 -90 76 -139t199 -49zM344 215q86 0 140 56q54 57 54 145t-54 144t-140 56t-140 -56t-54 -144t54 -144t140 -57zM670 651v-53h-152q80 -76 80 -184t-74 -178q-74 -72 -180 -72
q-70 0 -123 31q-80 -12 -80 -70q0 -43 41 -63q42 -20 194 -24q152 -5 236 -70q84 -66 84 -176t-100 -180t-249 -69q-149 0 -242 65t-93 181q0 166 187 217q-113 16 -113 117q0 39 25 67t63 37q-84 74 -84 186q0 111 74 183t180 72q47 -1 92 -17h234z" />
    <glyph glyph-name="k.alt" horiz-adv-x="663" 
d="M186 0h-61v1454h61v-1112l336 309h76l-346 -321l379 -330h-90l-355 313v-313z" />
    <glyph glyph-name="u.alt" horiz-adv-x="778" 
d="M389 -16q-117 0 -195 72t-79 218v377h61v-366q0 -246 213 -246t213 246v366h62v-377q0 -146 -79 -218t-196 -72z" />
    <glyph glyph-name="Adieresis.alt" horiz-adv-x="1302" 
d="M922 1307q-18 0 -34 14q-16 15 -16 35t16 34t34 15q18 0 33 -14q15 -15 15 -35t-14 -34q-16 -14 -34 -15zM381 1307q-18 0 -34 14q-15 15 -15 35t15 34t33 15q18 0 34 -14q16 -15 16 -35t-15 -35q-16 -14 -34 -14zM651 1276l-321 -807h639zM1155 0l-164 412h-684
l-162 -412h-65l567 1427h8l568 -1427h-68z" />
    <glyph glyph-name="Aring.alt" horiz-adv-x="1302" 
d="M651 1597q61 0 105 -44t43 -97q0 -53 -28 -90t-71 -53l523 -1313h-68l-164 412h-684l-162 -412h-65l520 1313q-43 16 -70 53q-26 37 -26 90t43 97t104 44zM651 1354q41 0 67 26t25 70q0 43 -25 71q-26 27 -67 27t-67 -28t-25 -70q-1 -44 25 -70t67 -26zM651 1278
l-321 -809h639z" />
    <glyph glyph-name="Gbreve.alt" horiz-adv-x="1568" 
d="M799 1550q-68 0 -116 36t-67 97l54 19q31 -94 129 -94t129 94l55 -19q-18 -61 -67 -97t-117 -36zM811 -16q-303 0 -512 202t-209 509q0 306 205 510t502 204q377 0 579 -276l-51 -37q-182 254 -528 254q-275 0 -457 -186t-182 -468q0 -281 185 -467t464 -186t431 148
t175 382h-584v58h656q-15 -295 -193 -471t-481 -176z" />
    <glyph glyph-name="Gcircumflex.alt" horiz-adv-x="1568" 
d="M608 1534l189 229h6l188 -229h-53l-137 143l-139 -143h-54zM811 -16q-303 0 -512 202t-209 509q0 306 205 510t502 204q377 0 579 -276l-51 -37q-182 254 -528 254q-275 0 -457 -186t-182 -468q0 -281 185 -467t464 -186t431 148t175 382h-584v58h656q-15 -295 -193 -471
t-481 -176z" />
    <glyph glyph-name="Gcommaaccent.alt" horiz-adv-x="1568" 
d="M850 -148q0 -18 -6 -30l-60 -144h-34l32 121q-35 8 -34 49q0 20 15 36q35 34 71 0q16 -14 16 -32zM811 -16q-303 0 -512 202t-209 509q0 306 205 510t502 204q377 0 579 -276l-51 -37q-182 254 -528 254q-275 0 -457 -186t-182 -468q0 -281 185 -467t464 -186t431 148
t175 382h-584v58h656q-15 -295 -193 -471t-481 -176z" />
    <glyph glyph-name="Gdotaccent.alt" horiz-adv-x="1568" 
d="M799 1556q-19 0 -35 16t-16 36t15 36t35 15q20 0 36 -15q16 -16 16 -36t-16 -36t-35 -16zM811 -16q-303 0 -512 202t-209 509q0 306 205 510t502 204q377 0 579 -276l-51 -37q-182 254 -528 254q-275 0 -457 -186t-182 -468q0 -281 185 -467t464 -186t431 148t175 382
h-584v58h656q-15 -295 -193 -471t-481 -176z" />
    <glyph glyph-name="Kcommaaccent.alt" horiz-adv-x="1105" 
d="M518 -152q0 20 16 36q34 34 67 3t13 -65l-59 -144h-35l33 121q-35 8 -35 49zM268 1393v-691l688 691h80l-690 -695l717 -698h-88l-707 686v-686h-65v1393h65z" />
    <glyph glyph-name="Odieresis.alt" horiz-adv-x="1605" 
d="M803 43q276 0 461 186q184 186 184 467t-184 467q-184 187 -460 187t-462 -186q-184 -186 -184 -468q0 -281 184 -467t461 -186zM803 -16q-299 0 -506 204t-207 508q0 305 207 509t506 204t506 -204t207 -509q0 -304 -207 -508t-506 -204zM205 1307q-18 0 -34 14
q-15 15 -15 35t15 34t33 15q18 0 34 -14q16 -15 16 -35t-15 -35q-16 -14 -34 -14zM1401 1307q-18 0 -34 14q-15 15 -15 35t15 34t33 15q18 0 34 -14q16 -15 16 -35t-15 -35q-16 -14 -34 -14z" />
    <glyph glyph-name="Udieresis.alt" horiz-adv-x="1298" 
d="M648 -16q-204 0 -332 125t-128 350v934h66v-928q0 -201 108 -313t285 -111q178 0 288 112t109 312v928h66v-934q0 -225 -129 -350t-333 -125zM543 1307q-18 0 -34 14q-15 15 -15 35t15 34t33 15q18 0 34 -14q16 -15 16 -35t-15 -35q-16 -14 -34 -14zM756 1307
q-18 0 -34 14q-15 15 -15 35t15 34q16 14 34 15q18 0 34 -14q16 -15 15 -35q0 -20 -15 -35q-16 -14 -34 -14z" />
    <glyph glyph-name="Ydieresis.alt" horiz-adv-x="1155" 
d="M610 0h-65v559l-488 834h74l447 -764l448 764h72l-488 -834v-559zM481 1307q-18 0 -34 14q-15 15 -15 35t15 34t33 15q18 0 34 -14q16 -15 16 -35t-15 -35q-16 -14 -34 -14zM682 1307q-18 0 -34 14q-15 15 -15 35t15 34q16 14 34 15q18 0 34 -14q16 -15 15 -35
q0 -20 -15 -35q-16 -14 -34 -14z" />
    <glyph glyph-name="aacute.alt" horiz-adv-x="841" 
d="M389 811l123 270h68l-140 -270h-51zM397 39q117 0 190 81t72 206q-1 126 -73 206t-189 80t-191 -81t-73 -205q-1 -124 73 -206q74 -81 191 -81zM397 -16q-141 0 -234 98t-93 244t93 243q93 98 234 99q172 0 258 -158v141h62v-651h-62v141q-86 -157 -258 -157z" />
    <glyph glyph-name="abreve.alt" horiz-adv-x="841" 
d="M418 834q-68 0 -116 36t-66 97l53 18q31 -94 129 -94t129 94l55 -18q-18 -61 -67 -97t-117 -36zM397 39q117 0 190 81t72 206q-1 126 -73 206t-189 80t-191 -81t-73 -205q-1 -124 73 -206q74 -81 191 -81zM397 -16q-141 0 -234 98t-93 244t93 243q93 98 234 99
q172 0 258 -158v141h62v-651h-62v141q-86 -157 -258 -157z" />
    <glyph glyph-name="acircumflex.alt" horiz-adv-x="841" 
d="M227 848l189 229h6l188 -229h-53l-137 143l-139 -143h-54zM397 39q117 0 190 81t72 206q-1 126 -73 206t-189 80t-191 -81t-73 -205q-1 -124 73 -206q74 -81 191 -81zM397 -16q-141 0 -234 98t-93 244t93 243q93 98 234 99q172 0 258 -158v141h62v-651h-62v141
q-86 -157 -258 -157z" />
    <glyph glyph-name="adieresis.alt" horiz-adv-x="841" 
d="M311 883q-18 0 -33 14q-16 15 -16 35t16 34t33 15q17 0 33 -14q16 -15 16 -35t-15 -35q-16 -14 -34 -14zM524 883q-18 0 -34 14q-15 15 -15 35t15 34q16 14 34 15q18 0 34 -14q16 -15 15 -35q0 -20 -15 -35q-16 -14 -34 -14zM397 39q117 0 190 81t72 206q-1 126 -73 206
t-189 80t-191 -81t-73 -205q-1 -124 73 -206q74 -81 191 -81zM397 -16q-141 0 -234 98t-93 244t93 243q93 98 234 99q172 0 258 -158v141h62v-651h-62v141q-86 -157 -258 -157z" />
    <glyph glyph-name="agrave.alt" horiz-adv-x="841" 
d="M389 811l-139 270h67l123 -270h-51zM397 39q117 0 190 81t72 206q-1 126 -73 206t-189 80t-191 -81t-73 -205q-1 -124 73 -206q74 -81 191 -81zM397 -16q-141 0 -234 98t-93 244t93 243q93 98 234 99q172 0 258 -158v141h62v-651h-62v141q-86 -157 -258 -157z" />
    <glyph glyph-name="amacron.alt" horiz-adv-x="841" 
d="M256 918v53h324v-53h-324zM397 39q117 0 190 81t72 206q-1 126 -73 206t-189 80t-191 -81t-73 -205q-1 -124 73 -206q74 -81 191 -81zM397 -16q-141 0 -234 98t-93 244t93 243q93 98 234 99q172 0 258 -158v141h62v-651h-62v141q-86 -157 -258 -157z" />
    <glyph glyph-name="aogonek.alt" horiz-adv-x="841" 
d="M397 39q117 0 190 81t72 206q-1 126 -73 206t-189 80t-191 -81t-73 -205q-1 -124 73 -206q74 -81 191 -81zM483 -310q0 64 42 134t130 174v143q-86 -158 -258 -157q-141 0 -234 98t-93 244t93 243q93 98 234 99q172 0 258 -158v141h62v-649q-104 -134 -139 -194t-35 -110
q-1 -50 21 -72t52 -21q53 0 84 49l41 -29q-43 -69 -113 -69t-108 34q-37 34 -37 100z" />
    <glyph glyph-name="aring.alt" horiz-adv-x="841" 
d="M418 829q40 0 66 27t26 70q0 42 -26 70t-66 28t-67 -28q-25 -28 -25 -70t26 -70q26 -27 66 -27zM418 780q-61 0 -105 43q-43 43 -43 103t43 103q43 44 105 44t104 -44q43 -44 43 -103q0 -58 -43 -102t-104 -44zM397 39q117 0 190 81t72 206q-1 126 -73 206t-189 80
t-191 -81t-73 -205q-1 -124 73 -206q74 -81 191 -81zM397 -16q-141 0 -234 98t-93 244t93 243q93 98 234 99q172 0 258 -158v141h62v-651h-62v141q-86 -157 -258 -157z" />
    <glyph glyph-name="atilde.alt" horiz-adv-x="841" 
d="M506 862q-43 0 -98 43t-80 43t-37 -19t-23 -63l-51 8q25 129 113 130q41 0 97 -43t81 -43t37 19t22 62l51 -8q-24 -129 -112 -129zM397 39q117 0 190 81t72 206q-1 126 -73 206t-189 80t-191 -81t-73 -205q-1 -124 73 -206q74 -81 191 -81zM397 -16q-141 0 -234 98
t-93 244t93 243q93 98 234 99q172 0 258 -158v141h62v-651h-62v141q-86 -157 -258 -157z" />
    <glyph glyph-name="gbreve.alt" horiz-adv-x="698" 
d="M360 834q-68 0 -116 36t-66 97l53 18q31 -94 129 -94t129 94l56 -18q-17 -61 -67 -97t-118 -36zM347 -403q124 0 206 53t82 149q0 182 -293 183q-135 0 -203 -54q-67 -54 -67 -143q0 -90 76 -139t199 -49zM344 215q86 0 140 56q54 57 54 145t-54 144t-140 56t-140 -56
t-54 -144t54 -144t140 -57zM670 651v-53h-152q80 -76 80 -184t-74 -178q-74 -72 -180 -72q-70 0 -123 31q-80 -12 -80 -70q0 -43 41 -63q42 -20 194 -24q152 -5 236 -70q84 -66 84 -176t-100 -180t-249 -69q-149 0 -242 65t-93 181q0 166 187 217q-113 16 -113 117
q0 39 25 67t63 37q-84 74 -84 186q0 111 74 183t180 72q47 -1 92 -17h234z" />
    <glyph glyph-name="gcircumflex.alt" horiz-adv-x="698" 
d="M170 848l188 229h7l188 -229h-53l-138 143l-139 -143h-53zM347 -403q124 0 206 53t82 149q0 182 -293 183q-135 0 -203 -54q-67 -54 -67 -143q0 -90 76 -139t199 -49zM344 215q86 0 140 56q54 57 54 145t-54 144t-140 56t-140 -56t-54 -144t54 -144t140 -57zM670 651v-53
h-152q80 -76 80 -184t-74 -178q-74 -72 -180 -72q-70 0 -123 31q-80 -12 -80 -70q0 -43 41 -63q42 -20 194 -24q152 -5 236 -70q84 -66 84 -176t-100 -180t-249 -69q-149 0 -242 65t-93 181q0 166 187 217q-113 16 -113 117q0 39 25 67t63 37q-84 74 -84 186q0 111 74 183
t180 72q47 -1 92 -17h234z" />
    <glyph glyph-name="gcommaaccent.alt" horiz-adv-x="698" 
d="M406 915q0 -20 -16 -35q-35 -34 -71 0q-16 15 -16 32t6 30l60 143h34l-32 -120q35 -8 35 -50zM347 -403q124 0 206 53t82 149q0 182 -293 183q-135 0 -203 -54q-67 -54 -67 -143q0 -90 76 -139t199 -49zM344 215q86 0 140 56q54 57 54 145t-54 144t-140 56t-140 -56
t-54 -144t54 -144t140 -57zM670 651v-53h-152q80 -76 80 -184t-74 -178q-74 -72 -180 -72q-70 0 -123 31q-80 -12 -80 -70q0 -43 41 -63q42 -20 194 -24q152 -5 236 -70q84 -66 84 -176t-100 -180t-249 -69q-149 0 -242 65t-93 181q0 166 187 217q-113 16 -113 117
q0 39 25 67t63 37q-84 74 -84 186q0 111 74 183t180 72q47 -1 92 -17h234z" />
    <glyph glyph-name="gdotaccent.alt" horiz-adv-x="698" 
d="M360 881q-20 0 -35 15q-15 16 -15 36t14 36q16 16 36 15q20 0 36 -15q16 -16 16 -36t-16 -36t-36 -15zM347 -403q124 0 206 53t82 149q0 182 -293 183q-135 0 -203 -54q-67 -54 -67 -143q0 -90 76 -139t199 -49zM344 215q86 0 140 56q54 57 54 145t-54 144t-140 56
t-140 -56t-54 -144t54 -144t140 -57zM670 651v-53h-152q80 -76 80 -184t-74 -178q-74 -72 -180 -72q-70 0 -123 31q-80 -12 -80 -70q0 -43 41 -63q42 -20 194 -24q152 -5 236 -70q84 -66 84 -176t-100 -180t-249 -69q-149 0 -242 65t-93 181q0 166 187 217q-113 16 -113 117
q0 39 25 67t63 37q-84 74 -84 186q0 111 74 183t180 72q47 -1 92 -17h234z" />
    <glyph glyph-name="kcommaaccent.alt" horiz-adv-x="663" 
d="M303 -152q0 20 15 36q34 35 67 3q33 -31 14 -65l-59 -144h-35l33 121q-35 8 -35 49zM186 0h-61v1454h61v-1112l336 309h76l-346 -321l379 -330h-90l-355 313v-313z" />
    <glyph glyph-name="uacute.alt" horiz-adv-x="778" 
d="M360 811l123 270h68l-139 -270h-52zM389 -16q-117 0 -195 72t-79 218v377h61v-366q0 -246 213 -246t213 246v366h62v-377q0 -146 -79 -218t-196 -72z" />
    <glyph glyph-name="ubreve.alt" horiz-adv-x="778" 
d="M389 834q-68 0 -116 36t-66 97l53 18q31 -94 129 -94t129 94l55 -18q-18 -61 -67 -97t-117 -36zM389 -16q-117 0 -195 72t-79 218v377h61v-366q0 -246 213 -246t213 246v366h62v-377q0 -146 -79 -218t-196 -72z" />
    <glyph glyph-name="ucircumflex.alt" horiz-adv-x="778" 
d="M199 848l188 229h6l189 -229h-54l-137 143l-139 -143h-53zM389 -16q-117 0 -195 72t-79 218v377h61v-366q0 -246 213 -246t213 246v366h62v-377q0 -146 -79 -218t-196 -72z" />
    <glyph glyph-name="udieresis.alt" horiz-adv-x="778" 
d="M283 883q-18 0 -34 14q-15 15 -15 35t14 34q16 14 34 15q18 0 34 -14q16 -15 16 -35t-16 -34t-33 -15zM496 883q-18 0 -34 14q-16 15 -16 35t16 34t34 15q18 0 33 -14q15 -15 15 -35t-14 -34q-16 -14 -34 -15zM389 -16q-117 0 -195 72t-79 218v377h61v-366
q0 -246 213 -246t213 246v366h62v-377q0 -146 -79 -218t-196 -72z" />
    <glyph glyph-name="ugrave.alt" horiz-adv-x="778" 
d="M360 811l-139 270h68l123 -270h-52zM389 -16q-117 0 -195 72t-79 218v377h61v-366q0 -246 213 -246t213 246v366h62v-377q0 -146 -79 -218t-196 -72z" />
    <glyph glyph-name="uhungarumlaut.alt" horiz-adv-x="778" 
d="M285 811l123 270h65l-137 -270h-51zM453 811l122 270h66l-137 -270h-51zM389 -16q-117 0 -195 72t-79 218v377h61v-366q0 -246 213 -246t213 246v366h62v-377q0 -146 -79 -218t-196 -72z" />
    <glyph glyph-name="umacron.alt" horiz-adv-x="778" 
d="M227 918v53h324v-53h-324zM389 -16q-117 0 -195 72t-79 218v377h61v-366q0 -246 213 -246t213 246v366h62v-377q0 -146 -79 -218t-196 -72z" />
    <glyph glyph-name="uogonek.alt" horiz-adv-x="778" 
d="M287 -309q0 67 42 133t128 166q-31 -6 -68 -6q-117 0 -195 72t-79 218v377h61v-366q0 -246 213 -246t213 246v366h62v-377q0 -117 -58 -190q-27 -35 -74 -82q-186 -186 -186 -315q0 -39 22 -61t52 -21q53 0 84 49l41 -29q-43 -69 -113 -69t-108 34q-37 34 -37 101z" />
    <glyph glyph-name="uring.alt" horiz-adv-x="778" 
d="M389 829q41 0 67 27t25 70q1 42 -25 70t-67 28t-67 -28t-25 -70q-1 -42 25 -70q26 -27 67 -27zM389 780q-61 0 -104 43t-43 103t43 103q43 44 104 44t105 -44t43 -103q0 -59 -43 -103q-44 -43 -105 -43zM389 -16q-117 0 -195 72t-79 218v377h61v-366q0 -246 213 -246
t213 246v366h62v-377q0 -146 -79 -218t-196 -72z" />
    <glyph glyph-name="f_b.alt" horiz-adv-x="1275" 
d="M872 39q119 0 195 81t76 206q0 126 -76 206t-195 80q-118 0 -194 -81t-76 -205t76 -206q76 -81 194 -81zM219 598v-598h-61v598h-92v53h92v578q0 115 63 178t163 63t160 -62q62 -62 62 -179v-719q86 158 266 158q142 0 238 -98t96 -244t-95 -244t-239 -98
q-180 0 -266 157v-141h-61v1221q0 195 -162 194q-164 0 -164 -194v-570h170v-53h-170z" />
    <glyph glyph-name="f_f_b.alt" horiz-adv-x="1662" 
d="M1260 39q118 0 194 81t76 206q0 126 -76 206t-194 80t-195 -81q-76 -81 -76 -205t76 -206q76 -81 195 -81zM158 598h-92v53h92v637q0 88 44 135t124 47t129 -65l-41 -39q-39 49 -97 49q-98 0 -98 -135v-629h326v578q0 115 63 178q62 63 162 63t162 -62t61 -179v-719
q86 158 267 158q143 0 238 -98t95 -244t-95 -244t-238 -98q-180 0 -267 157v-141h-61v1221q0 195 -162 194q-164 0 -164 -194v-570h170v-53h-170v-598h-61v598h-326v-598h-61v598z" />
    <glyph glyph-name="f_f_h.alt" horiz-adv-x="1603" 
d="M606 598v-598h-61v598h-326v-598h-61v598h-92v53h92v637q0 88 44 135t124 47t129 -65l-41 -39q-39 49 -97 49q-98 0 -98 -135v-629h326v578q0 115 63 178q62 63 162 63t162 -62t61 -179v-701q82 139 242 140q113 0 183 -67t71 -195v-406h-62v395q0 217 -194 217
q-106 0 -173 -66t-67 -175v-371h-61v1221q0 195 -162 194q-164 0 -164 -194v-570h170v-53h-170z" />
    <glyph glyph-name="f_f_k.alt" horiz-adv-x="1470" 
d="M993 0h-61v1221q0 195 -162 194q-164 0 -164 -194v-570h170v-53h-170v-598h-61v598h-326v-598h-61v598h-92v53h92v637q0 88 44 135t124 47t129 -65l-41 -39q-39 49 -97 49q-98 0 -98 -135v-629h326v578q0 115 63 178q62 63 162 63t162 -62t61 -179v-887l336 309h76
l-346 -321l379 -330h-90l-355 313v-313z" />
    <glyph glyph-name="ffl.alt" horiz-adv-x="1124" 
d="M606 598v-598h-61v598h-326v-598h-61v598h-92v53h92v637q0 88 44 135t124 47t129 -65l-41 -39q-39 49 -97 49q-98 0 -98 -135v-629h326v578q0 115 63 178q62 63 162 63t162 -62t61 -179v-1229h-61v1221q0 195 -162 194q-164 0 -164 -194v-570h170v-53h-170z" />
    <glyph glyph-name="f_h.alt" horiz-adv-x="1216" 
d="M219 651h170v-53h-170v-598h-61v598h-92v53h92v578q0 115 63 178t163 63t160 -62q62 -62 62 -179v-701q82 139 242 140q114 0 184 -67t70 -195v-406h-62v395q0 217 -194 217q-106 0 -173 -66t-67 -175v-371h-61v1221q0 195 -162 194q-164 0 -164 -194v-570z" />
    <glyph glyph-name="f_k.alt" horiz-adv-x="1083" 
d="M606 0h-61v1221q0 195 -162 194q-164 0 -164 -194v-570h170v-53h-170v-598h-61v598h-92v53h92v578q0 115 63 178t163 63t160 -62q62 -62 62 -179v-887l336 309h76l-346 -321l379 -330h-90l-355 313v-313z" />
    <glyph glyph-name="fl.alt" horiz-adv-x="737" 
d="M219 598v-598h-61v598h-92v53h92v578q0 115 63 178t163 63t160 -62q62 -62 62 -179v-1229h-61v1221q0 195 -162 194q-164 0 -164 -194v-570h170v-53h-170z" />
    <glyph glyph-name="space.up" horiz-adv-x="454" 
 />
    <glyph glyph-name="dollar.up" horiz-adv-x="1056" 
d="M211 1100q0 -108 59 -168q59 -61 209 -135l10 -6v561q-121 -2 -199 -73t-79 -179zM872 331q0 125 -66 199t-228 152l-27 12v-651q153 8 237 86t84 202zM147 1107q-1 130 99 215t243 87v174h62v-178q197 -18 305 -193l-49 -28q-92 145 -256 164v-586l53 -27
q180 -88 256 -177q76 -88 76 -232t-102 -238t-283 -102v-224h-62v224q-289 14 -426 270l56 31q117 -227 370 -244v682l-38 18q-160 78 -232 156t-72 208z" />
    <glyph glyph-name="Euro.up" horiz-adv-x="1595" 
d="M946 -16q-264 0 -458 156t-242 407h-203v57h195q-8 114 -2 156h-193v57h199q41 262 233 427q193 165 459 165q332 0 541 -254l-50 -37q-186 231 -491 232q-240 0 -412 -148t-211 -385h713v-57h-721q-2 -20 -2 -74t4 -82h719v-57h-709q47 -225 221 -365t410 -139
q162 0 296 68t224 186l50 -37q-100 -132 -248 -204t-322 -72z" />
    <glyph glyph-name="sterling.up" horiz-adv-x="1058" 
d="M224 258q-60 0 -94 -29t-34 -79t35 -78q35 -29 90 -29t97 45t53 102q-87 68 -147 68zM100 610v58h164q-72 188 -72 350t116 276t298 115q268 0 385 -244l-55 -26q-104 211 -330 211q-156 0 -251 -98t-95 -242q0 -145 72 -342h405v-58h-385q82 -223 82 -387v-10
q50 -51 62 -57t40 -29t38 -28t55 -30q44 -25 128 -24q83 0 132 26t98 76l45 -41q-58 -61 -118 -92q-60 -30 -141 -30t-151 30t-101 56q-32 25 -99 80q-23 -70 -76 -118t-129 -48t-129 45t-53 121t51 120t130 45q79 0 159 -55q-8 143 -88 350h-187z" />
    <glyph glyph-name="yen.up" horiz-adv-x="1200" 
d="M143 594h402l-467 799h74l448 -768l447 768h71l-467 -799h402v-57h-422v-136h422v-57h-422v-344h-66v344h-422v57h422v136h-422v57z" />
    <glyph glyph-name="florin.up" horiz-adv-x="704" 
d="M111 555v55h161l68 617q20 182 194 182q84 0 142 -80l-47 -37q-45 59 -107 60q-104 0 -121 -133l-67 -609h182v-55h-188l-111 -989h-61l110 989h-155z" />
    <glyph glyph-name="zero.up" horiz-adv-x="1265" 
d="M633 43q191 0 325 148q68 75 108 205t40 300t-40 300q-71 232 -257 317q-82 37 -176 37t-176 -37q-187 -84 -257 -317q-40 -130 -40 -300t40 -300q72 -235 257 -316q82 -37 176 -37zM633 -16q-231 0 -386 177t-155 535t155 536t386 177q231 0 386 -177q155 -178 155 -536
t-155 -535t-386 -177z" />
    <glyph glyph-name="one.up" horiz-adv-x="565" 
d="M279 0v1335h-193v58h258v-1393h-65z" />
    <glyph glyph-name="two.up" horiz-adv-x="1038" 
d="M78 0v8l567 608q106 113 161 211q54 99 54 227t-85 212t-222 84t-229 -77t-127 -202l-60 19q41 143 150 231t271 88t264 -101q104 -102 104 -248t-65 -256t-179 -233l-479 -514h737v-57h-862z" />
    <glyph glyph-name="three.up" horiz-adv-x="1095" 
d="M518 -16q-160 0 -276 70t-179 179l52 33q127 -223 403 -223q198 0 312 108q114 107 114 285t-110 275q-111 96 -295 96q-113 0 -193 -27l-4 8l502 547h-672v58h786v-9l-485 -528q35 4 76 4q209 -4 335 -117t126 -309t-136 -322q-136 -128 -356 -128z" />
    <glyph glyph-name="four.up" horiz-adv-x="1077" 
d="M805 389v879l-664 -879h664zM868 389h142v-57h-142v-332h-63v332h-768v8l823 1087h8v-1038z" />
    <glyph glyph-name="five.up" horiz-adv-x="1067" 
d="M512 -16q-141 0 -262 62t-187 173l56 29q53 -94 159 -150t234 -55q186 0 295 115t109 290t-99 275q-98 100 -299 100t-325 -110l-9 4v676h711v-58h-651v-526q117 74 306 74t310 -118q121 -117 121 -317t-127 -332t-342 -132z" />
    <glyph glyph-name="six.up" horiz-adv-x="1085" 
d="M547 43q175 0 283 116q108 117 108 283t-108 282t-282 116t-284 -115q-108 -115 -108 -283t108 -284t283 -115zM547 -16q-199 0 -328 132t-129 307t105 318l464 652h72l-412 -574q100 80 234 80q195 0 323 -133t128 -326q0 -192 -129 -324t-328 -132z" />
    <glyph glyph-name="seven.up" horiz-adv-x="1064" 
d="M66 1335v58h944v-9l-711 -1384h-68l687 1335h-852z" />
    <glyph glyph-name="eight.up" horiz-adv-x="1107" 
d="M555 776q150 0 239 79t89 206t-90 208q-91 81 -239 81t-238 -81t-91 -208q0 -127 90 -206t240 -79zM555 43q182 0 290 92t107 244q0 152 -108 247q-109 95 -289 95t-290 -95q-109 -95 -109 -247t108 -244t291 -92zM553 1409q169 0 281 -99q112 -100 112 -236t-68 -216
t-180 -108q142 -33 232 -129t90 -256t-132 -271q-132 -110 -334 -110t-334 110t-132 270t89 256t231 130q-113 30 -180 108q-66 78 -66 216t111 236q112 99 280 99z" />
    <glyph glyph-name="nine.up" horiz-adv-x="1103" 
d="M147 943q0 -171 108 -289t289 -119t293 117q111 118 111 290t-109 290q-110 118 -291 118t-291 -118t-110 -289zM541 475q-199 0 -329 136t-130 332t132 331t334 135t334 -135t132 -330q0 -150 -107 -307l-434 -637h-72l379 557q-104 -82 -239 -82z" />
    <glyph glyph-name="percent.up" horiz-adv-x="1329" 
d="M956 39q96 -1 162 65t66 168t-66 168t-162 66t-162 -66t-65 -168q-1 -102 65 -168t162 -65zM956 -16q-116 0 -202 83t-86 205t86 206q86 83 202 83t203 -83q86 -83 86 -206q0 -124 -86 -206t-203 -82zM373 887q96 -1 162 65t65 168q0 102 -65 168q-66 66 -162 66
t-162 -66t-66 -168t66 -168t162 -65zM373 831q-117 0 -203 83t-86 206t86 206t203 83t203 -83t86 -206t-86 -206t-203 -83zM231 0l799 1393h68l-799 -1393h-68z" />
    <glyph glyph-name="perthousand.up" horiz-adv-x="1998" 
d="M1626 39q96 -1 162 65t65 168q0 102 -65 168q-66 66 -162 66t-162 -66t-66 -168t66 -168q66 -65 162 -65zM1626 -16q-117 0 -203 83t-86 205t86 206q86 83 203 83t203 -83t86 -206q0 -124 -86 -206t-203 -82zM956 39q96 -1 162 65t66 168t-66 168t-162 66t-162 -66
t-65 -168q-1 -102 65 -168t162 -65zM956 -16q-116 0 -202 83t-86 205t86 206q86 83 202 83t203 -83q86 -83 86 -206q0 -124 -86 -206t-203 -82zM373 887q96 -1 162 65t65 168q0 102 -65 168q-66 66 -162 66t-162 -66t-66 -168t66 -168t162 -65zM373 831q-117 0 -203 83
t-86 206t86 206t203 83t203 -83t86 -206t-86 -206t-203 -83zM231 0l799 1393h68l-799 -1393h-68z" />
    <glyph glyph-name="fraction.up" horiz-adv-x="866" 
d="M-41 0l883 1393h65l-882 -1393h-66z" />
    <glyph glyph-name="plus.up" horiz-adv-x="720" 
d="M391 633v-273h-61v273h-250v57h250v273h61v-273h250v-57h-250z" />
    <glyph glyph-name="minus.up" horiz-adv-x="679" 
d="M600 633h-520v57h520v-57z" />
    <glyph glyph-name="multiply.up" horiz-adv-x="663" 
d="M373 649l205 -205l-41 -41l-205 205l-205 -205l-41 41l205 205l-205 205l41 41l205 -205l205 205l41 -41z" />
    <glyph glyph-name="divide.up" horiz-adv-x="720" 
d="M360 371q-24 0 -40 16t-17 41t17 41t40 16t40 -16t18 -41t-18 -41t-40 -16zM360 838q-24 0 -40 16t-17 41t17 41t40 16t40 -16t18 -41t-18 -41t-40 -16zM641 633h-561v57h561v-57z" />
    <glyph glyph-name="equal.up" horiz-adv-x="761" 
d="M80 530v58h602v-58h-602zM80 735v58h602v-58h-602z" />
    <glyph glyph-name="less.up" horiz-adv-x="720" 
d="M641 367l-575 292v9l575 288v-63l-461 -231l461 -232v-63z" />
    <glyph glyph-name="greater.up" horiz-adv-x="720" 
d="M80 367v63l461 232l-461 231v63l575 -292v-9z" />
    <glyph glyph-name="degree.up" horiz-adv-x="649" 
d="M326 950q88 0 141 56t53 144q0 87 -53 144q-53 58 -141 58t-142 -58t-55 -144q1 -88 55 -144t142 -56zM326 893q-109 0 -185 75q-75 76 -75 184t76 182t184 75q110 0 184 -75q74 -74 74 -184t-74 -184t-184 -73z" />
    <glyph glyph-name="ordfeminine.up" horiz-adv-x="737" 
d="M561 1077h-213q-88 0 -145 -35t-58 -110q0 -152 201 -152q88 0 152 46q63 46 63 132v119zM561 1130v21q0 117 -46 160t-136 43q-125 0 -209 -113l-43 31q84 137 252 137q244 0 244 -248v-420h-62v86q-74 -102 -223 -102q-110 0 -182 54q-72 55 -72 153t74 148t182 50h221
z" />
    <glyph glyph-name="ordmasculine.up" horiz-adv-x="811" 
d="M406 778q116 0 194 83t78 206t-78 206t-194 83t-195 -83q-78 -83 -78 -206t78 -206t195 -83zM406 725q-139 0 -238 99q-98 98 -98 242t98 244t238 99q140 0 237 -99q98 -98 98 -242t-98 -244t-237 -99z" />
    <glyph glyph-name="comma.up" horiz-adv-x="290" 
d="M88 45q0 25 17 41t40 16t47 -23t5 -63l-68 -159h-39l37 135q-39 8 -39 53z" />
    <glyph glyph-name="hyphen.up" horiz-adv-x="454" 
d="M80 614v54h295v-54h-295z" />
    <glyph glyph-name="endash.up" horiz-adv-x="864" 
d="M80 608v58h704v-58h-704z" />
    <glyph glyph-name="emdash.up" horiz-adv-x="1325" 
d="M80 608v58h1165v-58h-1165z" />
    <glyph glyph-name="parenleft.up" horiz-adv-x="520" 
d="M82 664q0 512 334 874l43 -39q-311 -352 -311 -835t311 -836l-43 -39q-334 363 -334 875z" />
    <glyph glyph-name="parenright.up" horiz-adv-x="520" 
d="M438 664q0 -512 -334 -875l-43 39q311 352 311 836t-311 835l43 39q334 -362 334 -874z" />
    <glyph glyph-name="at.up" horiz-adv-x="1554" 
d="M755 399q109 0 185 84t76 205t-76 206t-186 85t-182 -85t-72 -206t72 -205t183 -84zM1077 567q1 -172 143 -172q76 0 129 85q52 85 52 245q0 258 -172 442q-171 185 -447 185t-452 -192t-176 -464t176 -464t446 -191q172 0 303 84l31 -51q-152 -90 -334 -90
q-294 0 -490 209t-196 505t197 503q197 208 493 208t490 -200q195 -200 194 -484q0 -186 -72 -288q-74 -101 -168 -101t-145 49t-61 135q-82 -176 -264 -176q-135 0 -228 100q-92 100 -92 244t92 244q92 102 228 102q88 0 156 -46t104 -126v154h63v-449z" />
    <glyph glyph-name="section.up" horiz-adv-x="1105" 
d="M961 372q1 78 -53 138t-187 117l-260 110q-121 51 -187 123q-129 -68 -129 -207q-1 -102 53 -160t179 -112l250 -107q120 -51 186 -114q68 27 108 81q40 53 40 131zM193 1081q0 143 102 235q103 92 245 93q142 0 236 -59t135 -150l-55 -26q-84 176 -307 176
q-129 0 -210 -76t-81 -191t57 -178t170 -112l260 -111q151 -63 215 -139q64 -75 64 -169q0 -176 -174 -253q61 -78 61 -178q0 -141 -94 -227t-257 -85q-163 0 -269 69t-158 171l55 29q104 -209 369 -209q133 1 211 69t78 176t-62 169q-62 62 -182 114l-250 107
q-145 61 -208 134q-62 73 -62 193q0 164 162 248q-51 78 -51 180z" />
    <glyph glyph-name="numbersign.up" horiz-adv-x="931" 
d="M637 1096h-258l-86 -342h258zM125 1096v53h209l61 244h58l-62 -244h258l62 244h57l-61 -244h180v-53h-193l-86 -342h199v-54h-213l-57 -231h-58l58 231h-258l-58 -231h-57l57 231h-176v54h191l86 342h-197z" />
    <glyph glyph-name="copyright.up" horiz-adv-x="1609" 
d="M819 254q-184 0 -313 125t-129 313t129 314t313 127q107 0 195 -43t141 -121l-47 -35q-98 141 -289 141q-159 1 -269 -109t-110 -274t110 -272t269 -109q195 0 297 148l49 -33q-55 -82 -146 -127t-200 -45zM805 41q272 0 462 187q189 187 189 468t-189 468
q-189 188 -461 188t-462 -188t-190 -468q0 -281 190 -468t461 -187zM805 -16q-293 0 -504 204t-211 508q0 303 211 508t504 205t504 -205t211 -508q0 -304 -211 -508t-504 -204z" />
    </font>
</defs>
</svg>
