<svg id="Layer_1" data-name="Layer 1" xmlns="http://www.w3.org/2000/svg" viewBox="0 0 539.7 60.21"><defs><style>.cls-1{fill:#fff;}.cls-2{fill:#e5bc19;}</style></defs><title>logo-top</title><path class="cls-1" d="M28.7,332.7c1.3-1.8,3.1-3,2.4-5.4-.5-1.4-.6-8.5.9-9.3,1.9-1.1,8.3-3.5,8.9-5.7,1-3.3,1.3-5.7,3.9-8.1-.6-.7-6.4,3-5.8-1.6.4-3.3-1.5-5.3.9-8.1.4.2.3.5-.1,1,.8-.5,1.6-.9,2.4-1.4,0,2.2.3,4.4-1.9,5.7-1.8,1-.1,4,2.1,3a61,61,0,0,0,13.8-8.5c2.4-2.2,4.9-4.3,7.3-6.5a22.82,22.82,0,0,1,5.9-1.6c.6,4.2,7.9,7,11.3,8.3-1.7,4.6-3.2,6.7-2,11.7.5,1.9,0,11.1,2.1,11.7,3.7,1,1.9,6.3,3.5,8.5,1,1.3,2.3,2.6,4,2.6,1.3,0,4,4.5,4.8,5.5-1.6.2-10.6,1-11.4-.4-.6-1.2.1-2.3-.3-3.5-.5-1.6-2.3-3.1-3.5-4.1-2.3-1.8-5.9-2.7-6.8-5.7-1.1-3.9-1.2-8.1-5.6-9.1,2.1,2.2,3.6,4.6,3.6,7.8-5-.3-7.5-1.4-11.8-4.1-2-1.2-3.5-1.6-3.8-4-.3-1.8-.7-2.1-2.4-2.9,2.7,5.8-1.3,13.8-8.2,14.5-2.8.3-8.2.1-7.6,4.7.4,3.1,2.7,4.3,4.1,7H33.9c-2.2-.2-5.2,1.1-5.2-2,.9-1.1,0,.6,0,0" transform="translate(-28.7 -274.7)"/><path class="cls-1" d="M114.7,332H104.6a4.78,4.78,0,0,1-.3-2.9c.5-2.2-.5-1.9-2.5-2.6a3.75,3.75,0,0,1-1.6-2.1c-1-1.2-2.8-1.5-4.2-2-2.7-.9-5.4-1.9-8.1-2.9,3.6-3.3,6-7.4,9.3-11.2,1.1,2.3,2,4.6,3,6.9,1,2.1,4.2,2.3,5.4,4.9s1.7,5,4.3,6.3c2.2,1.1,4.8,2.7,4.8,5.6h0" transform="translate(-28.7 -274.7)"/><path class="cls-1" d="M82.5,295.6c.7,3.2.7,3.8,3.9,4.7-1.2-2.9-2.6-4.6-2.1-7.8.4-2.9,2-3.7.5-6.4,1-.8,8.8,1.6,10.1,2.2,3.4,1.5,1,6.5,3.3,8.8,2.9,3-2.4,2.3-4.1,3.8-2.6,2.2-2.8,5.2-5.7,7.2.8.3,1.5.5,2.3.8-1.6,1.3-2.4,3-4.5,2.2s-.6-3.2-2.1-3.9c-5-2.3-4.2-7.3-1.6-11.6.3,1.2-.1.2,0,0" transform="translate(-28.7 -274.7)"/><path class="cls-1" d="M48.5,322.2c3.6-1.5,3.7-4.2,5.2-7.6l7.5,4.5c-4.8,2.7-4.4,3-1.2,7.2,1,1.3,3.2.1,4,1.2s2.8,3.3,2.9,4.5c-2.1,0-4.2,0-6.3-.1-3.5,0-2.5-.7-3.7-3.1-1.9-3.2-5.3-4.6-8.4-6.6.8-.4.3.1,0,0" transform="translate(-28.7 -274.7)"/><path class="cls-1" d="M113,284.5c.2,2.2.4,4.3.6,6.5.3,2.8-1.8,3.8-3.8,5.6-1,.9-12.2,1.1-11.8-1.5.7-4.8,1.7-5.1,6.6-4.6,1,.1,5.6,1.2,6,.1.3-.6,2.1-6.2,2.4-6.1.1,1.7-.1,0,0,0" transform="translate(-28.7 -274.7)"/><path class="cls-1" d="M81.4,292.8c-3-.9-9.4-2.7-10.4-6.2-.3-1-1.9-4.8-1.2-5.6,1.2-1.6,3.2-5.4,5-6.3-.4,1.7-.7,3.5-1.1,5.2-.5,2.5,1.2,2.7,3.2,3.9,4.7,2.7,6.9,3.6,4.5,9-1.7-.5.3-.7,0,0" transform="translate(-28.7 -274.7)"/><path class="cls-1" d="M83.7,308.7c.4,2.1-2.9,3.1.9,5.2,1.3.7,3.7,1.3,4.9,0s-.9-2,.2-3.3c3.4,3.6-1.5,5.8-4.7,4.7-2.7-1-5.7-5.5-1.3-6.6,0,.3-2.2.5,0,0" transform="translate(-28.7 -274.7)"/><path class="cls-1" d="M97.6,300.8c-.6,2.4-1.6,2.9-4.1,2.6,1.4-2,1.7-2.1,4.1-2.6-.2.6-.9.2,0,0" transform="translate(-28.7 -274.7)"/><path class="cls-1" d="M81.8,314.9c2.3.7,4.6,1.4,6.8,2.1a4.4,4.4,0,0,1-6.8-2.1c2.3.8.3.7,0,0" transform="translate(-28.7 -274.7)"/><path class="cls-1" d="M125.3,293.5h12.1c5.5,0,9.1,2.5,9.1,7.2,0,3.3-1.6,5.2-3.8,6a6.34,6.34,0,0,1,5,6.6c0,5.1-3.7,8.1-10.6,8.1H125.4V293.5Zm11,10.9c2,0,2.8-.9,2.8-2.5s-.7-2.5-2.7-2.5h-3.9v5Zm.7,11.1c2.4,0,3.2-1.1,3.2-2.9s-.9-2.9-3.2-2.9h-4.5v5.8Z" transform="translate(-28.7 -274.7)"/><path class="cls-1" d="M151,310.6V293.5h7.4v17c0,3.1,1.5,4.9,4.6,4.9s4.6-1.8,4.6-4.9v-17H175v17.1c0,7.5-5.1,11.2-12.1,11.2C156.1,321.7,151,318,151,310.6Z" transform="translate(-28.7 -274.7)"/><path class="cls-1" d="M179.6,293.5H187V315h11.8v6.3H179.5V293.5Z" transform="translate(-28.7 -274.7)"/><path class="cls-1" d="M202.3,293.5h7.4V315h11.8v6.3H202.2V293.5Z" transform="translate(-28.7 -274.7)"/><path class="cls-1" d="M232.5,321.3H225V293.5h11.2c7.1,0,11,4.3,11,10s-3.9,9.9-11,9.9h-3.8v7.9Zm3.4-14.2c2.5,0,3.9-1.3,3.9-3.6s-1.3-3.7-3.9-3.7h-3.4v7.3h3.4Z" transform="translate(-28.7 -274.7)"/><path class="cls-1" d="M250.7,293.5h19.5v6.3H258.1v4.6h10.1v5.9H258.1v4.8h12.6v6.3H250.6V293.5Z" transform="translate(-28.7 -274.7)"/><path class="cls-1" d="M281.4,307.4v13.9h-7V293.1c0-.2.1-.4.6-.1l17.5,14.4V293.5h7v28.2c0,.3-.1.4-.6.1Z" transform="translate(-28.7 -274.7)"/><path class="cls-2" d="M303.5,307.4a13.8,13.8,0,0,1,14.1-14.2,13.11,13.11,0,0,1,10.9,5.2l-2,1.5a10.72,10.72,0,0,0-8.9-4.3c-6.5,0-11.2,5.1-11.2,11.8s4.9,11.8,11.4,11.8a11.38,11.38,0,0,0,9.4-4.6l2.1,1.5a13.82,13.82,0,0,1-11.6,5.6A14,14,0,0,1,303.5,307.4Z" transform="translate(-28.7 -274.7)"/><path class="cls-2" d="M331.7,307.4A14.3,14.3,0,1,1,346,321.6,14,14,0,0,1,331.7,307.4Zm25.7,0c0-6.7-4.9-11.8-11.5-11.8s-11.5,5.1-11.5,11.8,4.9,11.8,11.5,11.8S357.4,314.1,357.4,307.4Z" transform="translate(-28.7 -274.7)"/><path class="cls-2" d="M365.5,292.9h.2l13.1,16.2,13-16.2h.2v28.4h-2.5V299.5l-10.7,13.4h-.2L368,299.5v21.8h-2.5Z" transform="translate(-28.7 -274.7)"/><path class="cls-2" d="M401.7,321.3H399V293.5h8.2c6,0,9.3,3.6,9.3,8.4s-3.3,8.3-9.3,8.3h-5.5Zm5.4-13.4c4.5,0,6.7-2.4,6.7-6s-2.2-6-6.7-6h-5.4v12Z" transform="translate(-28.7 -274.7)"/><path class="cls-2" d="M421.7,293.5h16.8v2.4H424.4v10.3H437v2.3H424.4V319H439v2.4H421.7Z" transform="translate(-28.7 -274.7)"/><path class="cls-2" d="M450.8,295.9h-8.6v-2.4H462v2.4h-8.6v25.4h-2.7V295.9Z" transform="translate(-28.7 -274.7)"/><path class="cls-2" d="M466.8,293.5h2.7v27.8h-2.7Z" transform="translate(-28.7 -274.7)"/><path class="cls-2" d="M482.8,295.9h-8.6v-2.4h19.9v2.4h-8.6v25.4h-2.7V295.9Z" transform="translate(-28.7 -274.7)"/><path class="cls-2" d="M495,307.4a14.3,14.3,0,1,1,14.3,14.2A14,14,0,0,1,495,307.4Zm25.7,0c0-6.7-4.9-11.8-11.5-11.8s-11.5,5.1-11.5,11.8,4.9,11.8,11.5,11.8S520.7,314.1,520.7,307.4Z" transform="translate(-28.7 -274.7)"/><path class="cls-2" d="M531.5,321.3h-2.7V293.5h8.3c6,0,9.3,3.6,9.3,8.3a7.52,7.52,0,0,1-6,7.7l7.3,11.8h-3l-7-11.4h-6.3v11.4Zm5.4-13.7c4.5,0,6.7-2.2,6.7-5.8s-2.2-5.9-6.7-5.9h-5.5v11.7h5.5Z" transform="translate(-28.7 -274.7)"/><path class="cls-2" d="M552.2,314.8a7.9,7.9,0,0,0,7.3,4.4c3.8,0,6.1-1.9,6.1-4.8,0-3.1-1.9-4.4-5.2-6l-2.2-1.1c-4-1.9-6.5-3.7-6.5-7.6s3.1-6.6,7.3-6.6c3.6,0,6,1.3,7.7,4.1l-2,1.3a5.9,5.9,0,0,0-5.6-3.1c-2.8,0-4.7,1.8-4.7,4.2,0,2.7,1.5,3.7,4.9,5.3l2.2,1.1c4.5,2.1,6.9,4.1,6.9,8.3,0,4.6-3.5,7.3-8.7,7.3a10.37,10.37,0,0,1-9.6-5.6Z" transform="translate(-28.7 -274.7)"/></svg>