<svg id="Layer_1" data-name="Layer 1" xmlns="http://www.w3.org/2000/svg" viewBox="0 0 400 400"><defs><style>.cls-1{fill:#fff;}.cls-2{fill:#e5bc19;}</style></defs><title>Artboard 1</title><g id="c0PwL0.tif"><path class="cls-1" d="M73.86,201.79c.7-.92,1.41-1.85,2.09-2.78a.62.62,0,0,0,.06-.42,7.75,7.75,0,0,0-.24-1.15c-.46-1.43-.08-2.85,0-4.27.07-.89.2-1.77.28-2.66a.69.69,0,0,1,.4-.59q3.38-2,6.74-3.95a1.14,1.14,0,0,0,.46-.61c.43-1.48.82-3,1.25-4.46a1.68,1.68,0,0,1,.39-.69c.47-.48,1-.93,1.48-1.39l-.12-.15c-.64.26-1.26.57-1.91.78a1.86,1.86,0,0,1-2-.35,1.71,1.71,0,0,1-.68-1.61c.05-.43,0-.88,0-1.32a2.2,2.2,0,0,0-.35-1.47.63.63,0,0,1-.11-.38c0-.69.12-1.39.19-2.08A.48.48,0,0,1,82,172l.9-1.06.16.13-.24.64,2-1.11a23.65,23.65,0,0,1,0,2.49,2.76,2.76,0,0,1-1.47,2.11.67.67,0,0,0-.32.8c.09.49.14,1,.21,1.48a.6.6,0,0,0,.87.5,14.48,14.48,0,0,0,1.8-.85q4.47-2.66,8.91-5.36A9.58,9.58,0,0,0,96,170.72c2-1.74,3.91-3.49,5.88-5.22a1.73,1.73,0,0,1,.66-.35c1.32-.37,2.65-.71,4-1.06,0,.06.09.09.09.13a3.22,3.22,0,0,0,1.45,2.08c1.22.94,2.39,2,3.59,2.93a2.07,2.07,0,0,0,.55.31l3.51,1.35c-.06.15-.1.29-.16.42-.71,1.67-1.43,3.34-2.12,5a1.42,1.42,0,0,0-.06.81c.37,1.58.75,3.15,1.18,4.71a3,3,0,0,1,0,1.69,3.51,3.51,0,0,0,0,2c.34,1.21.61,2.44.93,3.65a.69.69,0,0,0,.36.45,2.35,2.35,0,0,1,1.75,2,11.78,11.78,0,0,0,.63,1.89,3.88,3.88,0,0,1,.28,2.29.92.92,0,0,0,.21.63c.23.3.55.53.77.83a3,3,0,0,0,2.45,1.29.57.57,0,0,1,.39.18c1.15,1.38,2.29,2.78,3.47,4.22-.17,0-.28,0-.39,0l-8.18,0a.56.56,0,0,1-.58-.36,3,3,0,0,1-.16-2,2,2,0,0,0-.47-1.64,12.92,12.92,0,0,0-4.35-3.76c-.61-.32-1.17-.75-1.78-1.09a3.51,3.51,0,0,1-1.72-2.27c-.52-1.83-1.15-3.64-1.61-5.48a1.55,1.55,0,0,0-1.24-1.31c-.56-.15-1.1-.4-1.69-.53.55.58,1.1,1.15,1.64,1.73a1.15,1.15,0,0,1,.29.45c.34,1.29.66,2.58,1,3.87a1.09,1.09,0,0,1,0,.22c-1.19-.06-2.36-.16-3.54-.17a4.08,4.08,0,0,1-2.27-.75c-2-1.33-4.12-2.61-6.19-3.89a.85.85,0,0,1-.45-.67c-.08-.69-.19-1.38-.3-2.06a.63.63,0,0,0-.17-.4,9.4,9.4,0,0,0-1.58-.87.73.73,0,0,0,.07.14A4.16,4.16,0,0,1,93,185a4.35,4.35,0,0,1-.22,1.28c-.51,1.47-1.05,2.93-1.6,4.39a.72.72,0,0,1-.32.34q-2.47,1.31-4.95,2.59a1.19,1.19,0,0,1-.43.13c-1.4.13-2.81.24-4.21.38a.7.7,0,0,0-.47.31c-.47.83-.91,1.68-1.33,2.53a1.1,1.1,0,0,0-.08.6c.06.45.16.89.26,1.34s0,.94.65,1c.06,0,.1.11.15.17L82.64,203a1.59,1.59,0,0,1,.12.24H73.86Z"/><path class="cls-1" d="M143.12,201.24h-8.17a4.32,4.32,0,0,1,.12-3.48c-.82-.34-1.59-.68-2.38-1a1.15,1.15,0,0,1-.77-.7,3.24,3.24,0,0,0-2.36-2c-2.58-.85-5.13-1.83-7.69-2.75l-.35-.14,1.44-1.3a6,6,0,0,1,.61-.54,2.1,2.1,0,0,0,1-1.89.66.66,0,0,1,.17-.4c1.42-1.62,2.84-3.23,4.3-4.88l.15.33c.75,1.73,1.5,3.47,2.26,5.2a1.19,1.19,0,0,0,.47.5c.92.53,1.86,1,2.78,1.54a1.31,1.31,0,0,1,.5.54c.83,1.76,1.64,3.54,2.47,5.31a1.33,1.33,0,0,0,.54.56c1,.56,2.1,1.08,3.14,1.64a1.24,1.24,0,0,1,.49.54c.44.94.84,1.91,1.26,2.86Z"/><path class="cls-1" d="M117.16,171.91c.22.95.42,1.8.61,2.67a.6.6,0,0,0,.5.54c.64.15,1.27.36,2,.57-.08-.21-.13-.34-.19-.47-.55-1.18-1.11-2.35-1.64-3.54a1.17,1.17,0,0,1-.1-.6q.22-1.71.5-3.41a1.47,1.47,0,0,1,.26-.54c.1-.15.26-.26.37-.4a1.17,1.17,0,0,0,.15-1.42,10.86,10.86,0,0,1-.62-1.1,1,1,0,0,1,1.07-.18,28.31,28.31,0,0,0,3,1.11,19.39,19.39,0,0,0,3.24.63,2,2,0,0,1,1.83,1.36,5,5,0,0,1,.41,4.07.77.77,0,0,0,.26.91c.66.62,1.28,1.29,1.92,1.94,0,0,0,.05,0,.07a2.54,2.54,0,0,1-2,1.13c-.19,0-.38.1-.58.12a3.52,3.52,0,0,0-2.46,1.46A8.73,8.73,0,0,0,124.2,180a1.46,1.46,0,0,1-.49.66c-.57.44-1.18.83-1.84,1.29l1.84.62c-.86.72-1.66,1.4-2.48,2.07a.42.42,0,0,1-.33,0c-.56-.2-1.11-.39-1.65-.63a.62.62,0,0,1-.3-.42c-.09-.64-.12-1.3-.22-1.94a.68.68,0,0,0-.33-.45c-.55-.25-1.13-.44-1.68-.69a.83.83,0,0,1-.4-.42c-.36-1-.68-2-1-3a.77.77,0,0,1,0-.47c.57-1.52,1.15-3,1.72-4.54A1.94,1.94,0,0,1,117.16,171.91Z"/><path class="cls-1" d="M89.81,193.27c.6-.25,1.13-.5,1.68-.7a1,1,0,0,0,.66-.67c.52-1.43,1.08-2.86,1.62-4.29.06-.15.13-.3.21-.5l6,3.64c-1,.55-1.9,1.07-2.83,1.57a.62.62,0,0,0-.37.74,3,3,0,0,0,.86,1.88A17.55,17.55,0,0,1,99,196.6a1.26,1.26,0,0,0,1,.54c.59.05,1.17.12,1.76.21a.71.71,0,0,1,.45.24c.79,1.16,1.57,2.34,2.34,3.51,0,0,0,.06,0,.14h-.48l-6.18-.08a1.46,1.46,0,0,1-1.23-1.05,7.13,7.13,0,0,1-.1-.81,1.11,1.11,0,0,0-.59-1,1.21,1.21,0,0,1-.38-.72,1.82,1.82,0,0,0-.9-1.17c-1.47-.9-2.91-1.85-4.37-2.78Z"/><path class="cls-1" d="M141.71,163l.4,4c.08.81.17,1.63.23,2.44a.77.77,0,0,1-.19.54c-1,.93-2,1.84-3,2.75a.94.94,0,0,1-.52.23c-1.6.13-3.2.24-4.8.34a1.15,1.15,0,0,1-.44-.06c-1.14-.4-2.28-.81-3.43-1.2-.26-.09-.35-.21-.31-.49.13-.88.23-1.77.36-2.65a1.22,1.22,0,0,1,.2-.38s0,0,.07-.06c1.23-1,1.23-1,3.2-.8s3.92.39,5.87.6c.31,0,.38-.12.46-.35q.8-2.27,1.62-4.53c0-.14.11-.27.16-.41Z"/><path class="cls-1" d="M116.25,169.67c-1.36-.41-2.67-.8-4-1.21a1.36,1.36,0,0,1-.4-.29c-1.21-1-2.43-2-3.64-3a1.08,1.08,0,0,1-.33-.51q-.55-2-1.06-4.08a.6.6,0,0,1,.07-.45c1.28-1.69,2.58-3.36,3.88-5,0,0,.05,0,.14-.07l-.66,3.2c-.14.68-.26,1.37-.43,2a.46.46,0,0,0,.27.6c2.15,1.24,4.28,2.51,6.43,3.75a1.52,1.52,0,0,1,.63.77A2.63,2.63,0,0,1,117,168,14.64,14.64,0,0,0,116.25,169.67Z"/><path class="cls-1" d="M118.1,182.43l.16.79-.3.14a1.22,1.22,0,0,0-.61,1.93,4.55,4.55,0,0,0,4.41,1.83c1.32-.32,1.66-1.25.84-2.32l-.19-.24.53-.62a2.67,2.67,0,0,1,.89,2.16,2,2,0,0,1-1.3,1.67,3.88,3.88,0,0,1-2.31.21,5.1,5.1,0,0,1-3.47-2.11A2.12,2.12,0,0,1,118.1,182.43Z"/><path class="cls-1" d="M129.72,175.61c-.16.67-.31,1.25-.46,1.83a.24.24,0,0,1-.1.14,8.7,8.7,0,0,1-1.87.89,5.67,5.67,0,0,1-1.77-.2c.49-.7.94-1.35,1.4-2a.5.5,0,0,1,.28-.12Z"/><path class="cls-1" d="M116.61,187.46l5.51,1.73c-.48.29-.85.54-1.24.75a.51.51,0,0,1-.35,0l-3-.81a.46.46,0,0,1-.28-.19C117,188.5,116.85,188,116.61,187.46Z"/></g><path class="cls-1" d="M163.17,177.22a4.63,4.63,0,0,1,2.08,1.41,3.35,3.35,0,0,1,.74,2.16,3.45,3.45,0,0,1-.75,2.21,3.75,3.75,0,0,1-2,1.29,4,4,0,0,1,2.43,1.4,4.13,4.13,0,0,1,.89,2.67,3.89,3.89,0,0,1-.76,2.38,4.71,4.71,0,0,1-2.16,1.56,9.12,9.12,0,0,1-3.29.54h-8V176.72H160A9.17,9.17,0,0,1,163.17,177.22Zm-2,5.5a1.46,1.46,0,0,0,.51-1.18,1.37,1.37,0,0,0-.51-1.14,2.07,2.07,0,0,0-1.38-.38h-3.22v3.13h3.22A2.08,2.08,0,0,0,161.16,182.71Zm.37,6.41a1.49,1.49,0,0,0,.64-1.29,1.4,1.4,0,0,0-.64-1.21,2.91,2.91,0,0,0-1.75-.43h-3.22v3.38h3.22A3,3,0,0,0,161.53,189.12Z"/><path class="cls-1" d="M174.11,188.64a3,3,0,0,0,2.28.92,2.85,2.85,0,0,0,2.2-.91,3.47,3.47,0,0,0,.84-2.45v-9.48h4.21v9.48a7.37,7.37,0,0,1-.89,3.67,6,6,0,0,1-2.53,2.43,8.28,8.28,0,0,1-3.85.85,8.42,8.42,0,0,1-3.88-.85,6.1,6.1,0,0,1-2.58-2.43,7.21,7.21,0,0,1-.91-3.67v-9.48h4.21v9.48A3.34,3.34,0,0,0,174.11,188.64Z"/><path class="cls-1" d="M187,176.72h4.21v12.54H198v3.59H187Z"/><path class="cls-1" d="M200.37,176.72h4.21v12.54h6.83v3.59h-11Z"/><path class="cls-1" d="M225.65,178.21a5.24,5.24,0,0,1,1.7,4.17,5.73,5.73,0,0,1-1.7,4.43,6.78,6.78,0,0,1-4.78,1.58H218v4.46h-4.21V176.72h7.08A7.05,7.05,0,0,1,225.65,178.21Zm-3,6.18a2.4,2.4,0,0,0,.7-1.86,2.31,2.31,0,0,0-.7-1.81,2.87,2.87,0,0,0-2-.63H218V185h2.67A2.84,2.84,0,0,0,222.65,184.38Z"/><path class="cls-1" d="M229.88,176.72H242.6v3.36h-8.51v3h7.68v3.33l-7.68,0v3h8.74v3.36H229.88Z"/><path class="cls-1" d="M256.88,176.72h3.91v16.12h-3.68l-7.31-9.64v9.64h-3.93V176.72h3.7l7.34,9.71Z"/><path class="cls-2" d="M274.66,179.1a6.2,6.2,0,0,0-7.89,2.53,6.26,6.26,0,0,0,0,6.22,6.17,6.17,0,0,0,5.38,3.08,6.3,6.3,0,0,0,2.48-.52A7.2,7.2,0,0,0,276.8,189l1.33,1.45a9,9,0,0,1-2.83,1.87,8.45,8.45,0,0,1-7.47-.41,8.12,8.12,0,0,1-4.12-7.14,7.92,7.92,0,0,1,1.12-4.13,8.07,8.07,0,0,1,3-3,8.57,8.57,0,0,1,4.25-1.08,8.67,8.67,0,0,1,3.25.63,8.07,8.07,0,0,1,2.73,1.78l-1.31,1.59A6.65,6.65,0,0,0,274.66,179.1Z"/><path class="cls-2" d="M292.61,177.69a8.12,8.12,0,0,1,3.07,3,7.87,7.87,0,0,1,1.13,4.13,8,8,0,0,1-1.13,4.15,8.15,8.15,0,0,1-3.07,3,8.88,8.88,0,0,1-8.53,0,8.15,8.15,0,0,1-3.07-3,8,8,0,0,1-1.13-4.15,7.87,7.87,0,0,1,1.13-4.13,8.15,8.15,0,0,1,3.06-3,9,9,0,0,1,8.54,0Zm-7.36,1.73a6.3,6.3,0,0,0-2.29,2.24,5.93,5.93,0,0,0-.85,3.12,6,6,0,0,0,.85,3.13,6.35,6.35,0,0,0,2.29,2.27,6.07,6.07,0,0,0,3.12.84,5.94,5.94,0,0,0,3.09-.84,6.33,6.33,0,0,0,2.25-2.27,6.06,6.06,0,0,0,.84-3.13,6,6,0,0,0-.84-3.12,6.27,6.27,0,0,0-2.25-2.24,6,6,0,0,0-3.09-.83A6.14,6.14,0,0,0,285.25,179.41Z"/><path class="cls-2" d="M300.44,176.75h2.62L309,188.06l5.84-11.32h2.64v16.1h-2.07l0-12.86-5.73,11.15h-1.36L302.49,180v12.86h-2Z"/><path class="cls-2" d="M333.37,178.17a5,5,0,0,1,1.64,4,5.32,5.32,0,0,1-1.66,4.17,6.72,6.72,0,0,1-4.65,1.48h-4v5H322.5v-16.1h6.21A6.89,6.89,0,0,1,333.37,178.17Zm-1.58,6.75a3.27,3.27,0,0,0,1.1-2.68,3.15,3.15,0,0,0-1.1-2.61,5,5,0,0,0-3.17-.89l-3.91,0v7.06h3.91A4.88,4.88,0,0,0,331.79,184.92Z"/><path class="cls-2" d="M338.39,176.75h11.18v2h-9v5h8v2h-8v5.13h9.25v2H338.39Z"/><path class="cls-2" d="M351.8,176.75h12.58v2h-5.2v14.08H357V178.77H351.8Z"/><path class="cls-2" d="M367.37,176.75h2.21v16.1h-2.21Z"/><path class="cls-2" d="M372.57,176.75h12.58v2H380v14.08h-2.21V178.77h-5.17Z"/><path class="cls-2" d="M398.43,177.69a8.12,8.12,0,0,1,3.07,3,7.87,7.87,0,0,1,1.13,4.13,8,8,0,0,1-1.13,4.15,8.15,8.15,0,0,1-3.07,3,8.88,8.88,0,0,1-8.53,0,8.15,8.15,0,0,1-3.07-3,8,8,0,0,1-1.13-4.15,7.87,7.87,0,0,1,1.13-4.13,8.15,8.15,0,0,1,3.06-3,9,9,0,0,1,8.54,0Zm-7.36,1.73a6.3,6.3,0,0,0-2.29,2.24,5.93,5.93,0,0,0-.85,3.12,6,6,0,0,0,.85,3.13,6.35,6.35,0,0,0,2.29,2.27,6.07,6.07,0,0,0,3.12.84,5.94,5.94,0,0,0,3.09-.84,6.33,6.33,0,0,0,2.25-2.27,6.06,6.06,0,0,0,.84-3.13,6,6,0,0,0-.84-3.12,6.27,6.27,0,0,0-2.25-2.24,6,6,0,0,0-3.09-.83A6.14,6.14,0,0,0,391.07,179.41Z"/></svg>