<svg id="Layer_1" data-name="Layer 1" xmlns="http://www.w3.org/2000/svg" viewBox="0 0 400 400"><title>Artboard 1</title><g id="c0PwL0.tif"><path d="M-24.32,347c4.53-6,9.09-11.93,13.53-18a4,4,0,0,0,.38-2.72A50.08,50.08,0,0,0-12,318.82c-3-9.25-.52-18.42.23-27.6.47-5.75,1.32-11.47,1.82-17.21a4.44,4.44,0,0,1,2.6-3.8q21.82-12.66,43.53-25.51a7.34,7.34,0,0,0,3-3.93c2.8-9.57,5.31-19.21,8.07-28.79a10.88,10.88,0,0,1,2.53-4.44c3-3.12,6.35-6,9.55-9l-.75-.94c-4.11,1.71-8.14,3.66-12.35,5.06-4.5,1.5-8.76,1.23-12.7-2.25-3.28-2.9-4.9-6-4.37-10.38.34-2.8,0-5.67.09-8.51.16-3.4-.18-6.6-2.24-9.47a4.05,4.05,0,0,1-.72-2.45c.32-4.49.76-9,1.21-13.44a3.1,3.1,0,0,1,.73-1.54c1.92-2.31,3.88-4.57,5.83-6.85l1,.85-1.54,4.13,12.7-7.19c0,5.76.44,11-.11,16.07-.66,6-4.28,10.55-9.53,13.61-2.13,1.24-2.5,2.94-2.1,5.19.57,3.17.9,6.39,1.38,9.58.45,3,2.8,4.45,5.64,3.25a93.55,93.55,0,0,0,11.62-5.52Q82,170.6,110.68,153.12c3.05-1.86,5.66-4.49,8.36-6.88,12.67-11.23,25.28-22.53,38-33.72a11.17,11.17,0,0,1,4.27-2.29c8.55-2.37,17.15-4.58,25.7-6.84.29.39.57.6.6.85.89,6.05,4.73,9.88,9.37,13.45,7.91,6.08,15.46,12.62,23.21,18.91a13.35,13.35,0,0,0,3.54,2c7.46,2.91,14.94,5.74,22.7,8.71-.37,1-.67,1.86-1,2.71-4.58,10.8-9.23,21.56-13.69,32.41a9.17,9.17,0,0,0-.4,5.25c2.39,10.18,4.86,20.34,7.62,30.43A19.14,19.14,0,0,1,239,229a22.67,22.67,0,0,0,.13,13.19c2.22,7.79,3.91,15.74,6,23.57.3,1.12,1.34,2.62,2.32,2.88,6.74,1.82,9.85,6.44,11.28,12.95a76.1,76.1,0,0,0,4.06,12.23,25.07,25.07,0,0,1,1.79,14.82,6,6,0,0,0,1.35,4.08c1.46,1.94,3.54,3.42,5,5.37,4,5.35,9.11,8.26,15.83,8.36a3.71,3.71,0,0,1,2.5,1.15c7.43,8.95,14.79,18,22.44,27.29-1.1.12-1.81.26-2.52.26-17.62.08-35.24.12-52.85.25-1.92,0-2.82-.58-3.76-2.35-2.24-4.22-1.71-8.57-1-12.86S251,333,248.44,329.6a83.5,83.5,0,0,0-28.12-24.29c-4-2.09-7.57-4.87-11.51-7-6-3.26-9.31-8.23-11.14-14.67-3.37-11.84-7.43-23.5-10.4-35.43-1.21-4.89-3.43-7.23-8-8.44-3.63-1-7.09-2.57-10.91-3.45,3.54,3.72,7.12,7.42,10.61,11.19a7.42,7.42,0,0,1,1.85,2.89c2.19,8.31,4.27,16.66,6.37,25a7,7,0,0,1,0,1.39c-7.69-.39-15.28-1-22.87-1.08-5.53,0-10.07-1.9-14.64-4.87-13.2-8.58-26.61-16.85-40-25.14a5.47,5.47,0,0,1-2.92-4.33c-.55-4.46-1.22-8.9-1.94-13.34a4.09,4.09,0,0,0-1.11-2.56,60.71,60.71,0,0,0-10.2-5.65,4.73,4.73,0,0,0,.45.93,26.9,26.9,0,0,1,5.69,18A28.09,28.09,0,0,1,98.22,247c-3.29,9.51-6.81,18.94-10.35,28.37a4.67,4.67,0,0,1-2.09,2.21q-15.94,8.44-32,16.73a7.7,7.7,0,0,1-2.77.83c-9.06.83-18.13,1.54-27.17,2.47a4.54,4.54,0,0,0-3,2C17.84,305,15,310.45,12.24,316a7.1,7.1,0,0,0-.51,3.9c.39,2.9,1,5.77,1.68,8.63.61,2.68.18,6.06,4.19,6.67.36.06.65.69.95,1.08q7,9.27,13.9,18.56a10.28,10.28,0,0,1,.8,1.55H-24.32Z"/><path d="M423.2,343.43H370.4c-3.44-7.73-2.08-15,.8-22.5-5.31-2.21-10.29-4.39-15.36-6.34-2.33-.89-4.17-2.09-5-4.5-2.51-7.4-8-10.81-15.25-13.2-16.7-5.49-33.12-11.8-49.66-17.79-.62-.23-1.23-.5-2.29-.93l9.29-8.39a38.51,38.51,0,0,1,4-3.49c4.36-3,6.69-6.88,6.56-12.23a4.23,4.23,0,0,1,1.07-2.59c9.14-10.45,18.34-20.85,27.77-31.54.4.84.72,1.47,1,2.11,4.86,11.21,9.67,22.44,14.63,33.6a7.67,7.67,0,0,0,3,3.26c5.93,3.41,12,6.55,17.94,10a8.46,8.46,0,0,1,3.22,3.49c5.39,11.4,10.58,22.89,16,34.28a8.61,8.61,0,0,0,3.47,3.61c6.7,3.64,13.56,7,20.26,10.6a8,8,0,0,1,3.18,3.47c2.84,6.1,5.46,12.31,8.16,18.49Z"/><path d="M255.51,153.92c1.41,6.11,2.74,11.66,3.94,17.24.41,1.89,1.12,3,3.2,3.51,4.16,1,8.23,2.31,12.93,3.67-.53-1.35-.83-2.21-1.21-3-3.55-7.62-7.15-15.21-10.62-22.85a7.57,7.57,0,0,1-.64-3.9q1.45-11,3.23-22A9.47,9.47,0,0,1,268,123c.64-1,1.67-1.65,2.39-2.57,1.81-2.33,3.28-6,1-9.17a70.19,70.19,0,0,1-4-7.08c2.27-1.78,4.27-2.25,6.91-1.18a182.9,182.9,0,0,0,19.51,7.17,125.3,125.3,0,0,0,20.93,4.09c6.09.62,9.17,3.06,11.85,8.8,4.09,8.75,6.14,17.07,2.65,26.29-.9,2.39-.16,4.12,1.71,5.88,4.26,4,8.27,8.32,12.38,12.51.12.12.12.35.15.46-3.28,4.1-7.09,7.18-12.64,7.32-1.25,0-2.47.65-3.72.75-6.88.53-11.42,4.26-15.87,9.43-5.27,6.12-7.87,13.1-10.26,20.44a9.43,9.43,0,0,1-3.14,4.25c-3.7,2.84-7.64,5.37-11.9,8.32l11.87,4c-5.54,4.65-10.73,9.07-16,13.38a2.68,2.68,0,0,1-2.14,0c-3.59-1.26-7.19-2.52-10.67-4a4,4,0,0,1-1.93-2.7c-.6-4.16-.79-8.37-1.42-12.52a4.4,4.4,0,0,0-2.13-2.89c-3.54-1.64-7.27-2.84-10.82-4.45a5.36,5.36,0,0,1-2.61-2.71c-2.29-6.33-4.41-12.73-6.49-19.14a5,5,0,0,1-.07-3c3.65-9.79,7.41-19.54,11.14-29.3A12.55,12.55,0,0,1,255.51,153.92Z"/><path d="M78.75,291.93c3.88-1.63,7.33-3.21,10.87-4.5a6.51,6.51,0,0,0,4.26-4.32c3.38-9.27,7-18.47,10.47-27.69.38-1,.81-1.95,1.35-3.22l38.9,23.55c-6.37,3.55-12.29,6.95-18.31,10.13-2.12,1.12-2.62,2.31-2.4,4.78a19.38,19.38,0,0,0,5.54,12.16,113.39,113.39,0,0,1,8.78,10.63,8.13,8.13,0,0,0,6.32,3.5c3.8.33,7.59.77,11.35,1.35a4.61,4.61,0,0,1,2.89,1.54c5.13,7.51,10.12,15.11,15.15,22.69.09.14,0,.36.09.9-1,0-2.07,0-3.09,0L131,342.92c-3.27,0-7.42-3.54-8-6.79a46.07,46.07,0,0,1-.65-5.24c-.13-2.89-1-5-3.8-6.61-1.31-.76-2.06-3-2.48-4.68a11.78,11.78,0,0,0-5.84-7.55c-9.5-5.83-18.82-11.94-28.21-18C81.08,293.48,80.12,292.83,78.75,291.93Z"/><path d="M414.11,96.18q1.28,13,2.56,25.92c.52,5.26,1.12,10.51,1.47,15.77a5,5,0,0,1-1.21,3.52c-6.3,6-12.71,11.91-19.17,17.75a6.05,6.05,0,0,1-3.33,1.47c-10.34.82-20.69,1.53-31,2.21a7.44,7.44,0,0,1-2.85-.41c-7.39-2.56-14.74-5.23-22.14-7.74-1.71-.58-2.29-1.34-2-3.16.84-5.71,1.48-11.44,2.31-17.15a7.87,7.87,0,0,1,1.31-2.44c.09-.16.29-.26.44-.38,7.93-6.71,7.92-6.6,20.65-5.19s25.31,2.51,38,3.87c2,.22,2.48-.79,3-2.27q5.18-14.66,10.44-29.28c.32-.89.68-1.77,1-2.66Z"/><path d="M249.58,139.41c-8.76-2.65-17.26-5.18-25.73-7.82a8.81,8.81,0,0,1-2.6-1.87c-7.85-6.48-15.71-12.94-23.49-19.5a7,7,0,0,1-2.16-3.29Q192,93.77,188.76,80.54a3.86,3.86,0,0,1,.46-2.9c8.29-10.9,16.68-21.73,25-32.57.1-.14.33-.18.9-.47l-4.27,20.65c-.91,4.4-1.69,8.84-2.79,13.19-.5,2,0,2.89,1.73,3.91,13.88,8,27.67,16.22,41.54,24.25a9.83,9.83,0,0,1,4.07,5c2.84,6.09,2.48,11.64-1,17.35C252.49,132,251.3,135.61,249.58,139.41Z"/><path d="M261.56,221.89l1,5.09-2,.89c-5.65,2.47-7.13,7.12-4,12.45,5,8.37,18.85,14.12,28.49,11.81,8.55-2,10.73-8.07,5.46-15l-1.2-1.58,3.42-4c3.85,4,6.26,8.44,5.72,14-.51,5.25-3.67,8.77-8.39,10.81a25.08,25.08,0,0,1-15,1.37c-9.18-1.75-17.09-5.69-22.43-13.62C246.54,234.78,250.46,224.71,261.56,221.89Z"/><path d="M336.62,177.81c-1.06,4.3-2,8.07-2.94,11.83a1.56,1.56,0,0,1-.65.94c-4,2-7.85,4.79-12.1,5.75-3.36.76-7.23-.71-11.46-1.27,3.14-4.5,6-8.72,9-12.87a3.22,3.22,0,0,1,1.82-.8C325.55,180.22,330.78,179.09,336.62,177.81Z"/><path d="M252,254.35l35.58,11.15c-3.07,1.88-5.51,3.46-8,4.87a3.32,3.32,0,0,1-2.24.14q-9.75-2.53-19.46-5.21A3,3,0,0,1,256,264C254.67,261.08,253.48,258,252,254.35Z"/></g></svg>