<svg id="Layer_1" data-name="Layer 1" xmlns="http://www.w3.org/2000/svg" viewBox="0 0 358.65 48.23"><defs><style>.cls-1{fill:#fff;}.cls-2{fill:#e5bc19;}</style></defs><title>VectorSmartObject_c372574d-43be-4708-9c9b-41ed57796696</title><g id="c0PwL0.tif"><path class="cls-1" d="M20.68,50.73a17.62,17.62,0,0,1,1.81-2.78.62.62,0,0,0,.06-.42,7.75,7.75,0,0,0-.24-1.15c-.46-1.43-.08-2.85,0-4.27.07-.89.2-1.77.28-2.66a.69.69,0,0,1,.4-.59q3.38-2,6.74-3.95a1.14,1.14,0,0,0,.46-.61c.43-1.48.82-3,1.25-4.46a1.68,1.68,0,0,1,.39-.69c.47-.48,1-.93,1.48-1.39l-.12-.15c-.64.26-1.26.57-1.91.78a1.86,1.86,0,0,1-2-.35,1.71,1.71,0,0,1-.68-1.61,11.62,11.62,0,0,0,0-1.32,2.2,2.2,0,0,0-.35-1.47.63.63,0,0,1-.11-.38,20.87,20.87,0,0,1,.19-2.08.48.48,0,0,1,.21-.24l.9-1.06.16.13-.24.64,2-1.11a23.65,23.65,0,0,1,0,2.49,2.76,2.76,0,0,1-1.47,2.11.67.67,0,0,0-.32.8c.09.49.14,1,.21,1.48a.6.6,0,0,0,.87.5,14.48,14.48,0,0,0,1.8-.85q4.47-2.66,8.91-5.36a9.58,9.58,0,0,0,1.18-1.05c2-1.74,3.91-3.49,5.88-5.22a1.73,1.73,0,0,1,.66-.35c1.32-.37,2.65-.71,4-1.06,0,.06.09.09.09.13a3.22,3.22,0,0,0,1.45,2.08c1.22.94,2.39,2,3.59,2.93a2.07,2.07,0,0,0,.55.31l3.51,1.35c-.06.15-.1.29-.16.42-.71,1.67-1.43,3.34-2.12,5a1.42,1.42,0,0,0-.06.81c.37,1.58.75,3.15,1.18,4.71a3,3,0,0,1,0,1.69,3.51,3.51,0,0,0,0,2c.34,1.21.61,2.44.93,3.65a.69.69,0,0,0,.36.45,2.35,2.35,0,0,1,1.75,2,11.78,11.78,0,0,0,.63,1.89,3.88,3.88,0,0,1,.28,2.29.92.92,0,0,0,.21.63c.23.3.55.53.77.83a3,3,0,0,0,2.45,1.29.57.57,0,0,1,.39.18,18.54,18.54,0,0,0,3.47,3.56H63.79c-.25.69-.49.54-.58.3a3,3,0,0,1-.16-2,2,2,0,0,0-.47-1.64,12.92,12.92,0,0,0-4.35-3.76c-.61-.32-1.17-.75-1.78-1.09a3.51,3.51,0,0,1-1.72-2.27c-.52-1.83-1.15-3.64-1.61-5.48A1.55,1.55,0,0,0,51.88,34c-.56-.15-1.1-.4-1.69-.53.55.58,1.1,1.15,1.64,1.73a1.15,1.15,0,0,1,.29.45c.34,1.29.66,2.58,1,3.87a1.09,1.09,0,0,1,0,.22c-1.19-.06-2.36-.16-3.54-.17a4.08,4.08,0,0,1-2.27-.75c-2-1.33-4.12-2.61-6.19-3.89a.85.85,0,0,1-.45-.67c-.08-.69-.19-1.38-.3-2.06a.63.63,0,0,0-.17-.4,9.4,9.4,0,0,0-1.58-.87.73.73,0,0,0,.07.14,4.16,4.16,0,0,1,.86,2.89,4.35,4.35,0,0,1-.22,1.28c-.51,1.47-1.05,2.93-1.6,4.39a.72.72,0,0,1-.32.34q-2.47,1.31-4.95,2.59a1.19,1.19,0,0,1-.43.13c-1.4.13-2.81.24-4.21.38a.7.7,0,0,0-.47.31c-.47.83-.91,1.68-1.33,2.53a1.1,1.1,0,0,0-.08.6c.06.45.16.89.26,1.34s0,.94.65,1c.06,0,.1.11.15.17l2.19,2.94a1,1,0,0,1,.12.29H20.68Z" transform="translate(-20.68 -4)"/><path class="cls-1" d="M89.67,50.23H81.5a4.32,4.32,0,0,1,.12-3.48c-.82-.34-1.59-.68-2.38-1a1.15,1.15,0,0,1-.77-.7,3.24,3.24,0,0,0-2.36-2c-2.58-.85-5.13-1.83-7.69-2.75l-.35-.14,1.44-1.3a6,6,0,0,1,.61-.54,2.1,2.1,0,0,0,1-1.89.66.66,0,0,1,.17-.4l4.3-4.88.15.33c.75,1.73,1.5,3.47,2.26,5.2a1.19,1.19,0,0,0,.47.5c.92.53,1.86,1,2.78,1.54a1.31,1.31,0,0,1,.5.54c.83,1.76,1.64,3.54,2.47,5.31a1.33,1.33,0,0,0,.54.56c1,.56,2.1,1.08,3.14,1.64a1.24,1.24,0,0,1,.49.54c.44.94.84,1.91,1.26,2.86Z" transform="translate(-20.68 -4)"/><path class="cls-1" d="M64.11,20.85c.22.95.42,1.8.61,2.67a.6.6,0,0,0,.5.54c.64.15,1.27.36,2,.57-.08-.21-.13-.34-.19-.47-.56-1.21-1.14-2.41-1.68-3.62a.88.88,0,0,1-.07-.47q.22-1.73.51-3.46a1.47,1.47,0,0,1,.26-.54c.1-.15.26-.26.37-.4a1.17,1.17,0,0,0,.15-1.42,10.86,10.86,0,0,1-.62-1.1A1,1,0,0,1,67,13a28.31,28.31,0,0,0,3,1.11,19.39,19.39,0,0,0,3.24.63,2,2,0,0,1,1.83,1.36,5,5,0,0,1,.41,4.07.77.77,0,0,0,.26.91c.66.62,1.28,1.29,1.92,1.94v.44a1.08,1.08,0,0,1-1.73.85c-.28-.19-.55,0-.85,0a3.52,3.52,0,0,0-2.46,1.46,8.73,8.73,0,0,0-1.49,3.17,1.46,1.46,0,0,1-.49.66c-.57.44-1.18.83-1.84,1.29l1.84.62c-.86.72-1.66,1.4-2.48,2.07a.42.42,0,0,1-.33,0c-.56-.2-1.11-.39-1.65-.63a.62.62,0,0,1-.3-.42c-.09-.64-.12-1.3-.22-1.94a.68.68,0,0,0-.33-.45c-.55-.25-1.13-.44-1.68-.69a.83.83,0,0,1-.4-.42c-.36-1-.68-2-1-3a.77.77,0,0,1,0-.47c.57-1.52,1.15-3,1.72-4.54Z" transform="translate(-20.68 -4)"/><path class="cls-1" d="M35.94,42.26c.6-.25,1.13-.5,1.68-.7a1,1,0,0,0,.66-.67c.52-1.43,1.08-2.86,1.62-4.29l.21-.5,6,3.64c-1,.55-1.9,1.07-2.83,1.57a.62.62,0,0,0-.37.74,3,3,0,0,0,.86,1.88,17.55,17.55,0,0,1,1.36,1.66,1.26,1.26,0,0,0,1,.54c.59.05,1.17.12,1.76.21a.71.71,0,0,1,.45.24c.79,1.16,1.57,2.34,2.34,3.51v.14H50.2L44,50.15a1.46,1.46,0,0,1-1.23-1.05,7.13,7.13,0,0,1-.1-.81,1.11,1.11,0,0,0-.59-1,1.21,1.21,0,0,1-.38-.72,1.82,1.82,0,0,0-.9-1.17c-1.47-.9-2.91-1.85-4.37-2.78Z" transform="translate(-20.68 -4)"/><path class="cls-1" d="M88.26,11.94l.4,4c.08.81.17,1.63.23,2.44a.77.77,0,0,1-.19.54c-1,.93-2,1.84-3,2.75a.94.94,0,0,1-.52.23c-1.6.13-3.2.24-4.8.34a1.15,1.15,0,0,1-.44-.06c-1.14-.4-2.28-.81-3.43-1.2a.38.38,0,0,1-.31-.49c.13-.88.23-1.77.36-2.65a1.22,1.22,0,0,1,.2-.38l.07-.06c1.23-1,1.23-1,3.2-.8s3.92.39,5.87.6c.31,0,.38-.12.46-.35q.8-2.27,1.62-4.53c0-.14.11-.27.16-.41Z" transform="translate(-20.68 -4)"/><path class="cls-1" d="M62.8,18.61l-4-1.21a1.36,1.36,0,0,1-.4-.29l-3.64-3a1.08,1.08,0,0,1-.33-.51q-.55-2-1.06-4.08a.6.6,0,0,1,.07-.45c1.28-1.69,2.58-3.36,3.88-5A.27.27,0,0,0,57.46,4L56.8,7.2c-.14.68-.26,1.37-.43,2a.46.46,0,0,0,.26.6h0c2.15,1.24,4.28,2.51,6.43,3.75a1.52,1.52,0,0,1,.63.77,2.63,2.63,0,0,1-.15,2.62A14.64,14.64,0,0,0,62.8,18.61Z" transform="translate(-20.68 -4)"/><path class="cls-1" d="M64.65,31.37l.16.79-.3.14a1.22,1.22,0,0,0-.61,1.93,4.55,4.55,0,0,0,4.41,1.83c1.32-.32,1.66-1.25.84-2.32L69,33.5l.53-.62A2.67,2.67,0,0,1,70.38,35a2,2,0,0,1-1.3,1.67,3.88,3.88,0,0,1-2.31.21,5.1,5.1,0,0,1-3.47-2.11,2.12,2.12,0,0,1,1.35-3.44Z" transform="translate(-20.68 -4)"/><path class="cls-1" d="M76.27,24.55c-.16.67-.31,1.25-.46,1.83a.24.24,0,0,1-.1.14,8.7,8.7,0,0,1-1.87.89,5.67,5.67,0,0,1-1.77-.2l1.4-2a.5.5,0,0,1,.28-.12Z" transform="translate(-20.68 -4)"/><path class="cls-1" d="M63.16,36.4l5.51,1.73c-.48.29-.85.54-1.24.75a.51.51,0,0,1-.35,0l-3-.81a.46.46,0,0,1-.28-.19C63.55,37.44,63.4,36.94,63.16,36.4Z" transform="translate(-20.68 -4)"/></g><path class="cls-1" d="M108.42,25.72a4.6,4.6,0,0,1,2.07,1.4,3.33,3.33,0,0,1,.73,2.15,3.42,3.42,0,0,1-.74,2.19,3.72,3.72,0,0,1-2,1.28,3.93,3.93,0,0,1,2.41,1.39,4.1,4.1,0,0,1,.88,2.65,3.86,3.86,0,0,1-.75,2.36,4.68,4.68,0,0,1-2.15,1.55,9.05,9.05,0,0,1-3.26.54h-7.9v-16h7.6A9.1,9.1,0,0,1,108.42,25.72Zm-2.33,6.1a1.41,1.41,0,0,0,.49-1.14,1.32,1.32,0,0,0-.49-1.09,2,2,0,0,0-1.32-.36h-3.09v3h3.09A2,2,0,0,0,106.09,31.82Zm.76,6.15a1.49,1.49,0,0,0,.64-1.29,1.4,1.4,0,0,0-.64-1.21,2,2,0,0,0-1.75-.24h-3.43v3h3.43A2,2,0,0,0,106.86,38Z" transform="translate(-20.68 -4)"/><path class="cls-1" d="M119.55,37.14a2.89,2.89,0,0,0,2.2.92,2.71,2.71,0,0,0,2.12-.91,3.54,3.54,0,0,0,.81-2.45V25.23h4V34.7a7.22,7.22,0,0,1-.91,3.67,6.08,6.08,0,0,1-2.59,2.43,8.68,8.68,0,0,1-4,.85,8.82,8.82,0,0,1-4-.85,6.2,6.2,0,0,1-2.64-2.43,7.07,7.07,0,0,1-.93-3.67V25.23h5V34.7A3.41,3.41,0,0,0,119.55,37.14Z" transform="translate(-20.68 -4)"/><path class="cls-1" d="M132.68,25.23h4v13h7v3h-11Z" transform="translate(-20.68 -4)"/><path class="cls-1" d="M145.68,25.23h4v13h7v3h-11Z" transform="translate(-20.68 -4)"/><path class="cls-1" d="M171.9,26.75a5.4,5.4,0,0,1,1.75,4.3,5.9,5.9,0,0,1-1.75,4.56A7,7,0,0,1,167,37.23h-3.29v4h-4v-16H167A7.26,7.26,0,0,1,171.9,26.75Zm-3.5,6.82a2.43,2.43,0,0,0,.71-1.88,2.33,2.33,0,0,0-.71-1.83,2.9,2.9,0,0,0-2-.64h-2.7v5h2.7A2.87,2.87,0,0,0,168.39,33.57Z" transform="translate(-20.68 -4)"/><path class="cls-1" d="M175.68,26.23h12v3h-9v3h8v3l-7,0v3h9v3h-13Z" transform="translate(-20.68 -4)"/><path class="cls-1" d="M202.66,25.23h3v16H202l-7.32-9.56v9.56h-3v-16h3.69l7.31,9.63Z" transform="translate(-20.68 -4)"/><path class="cls-2" d="M220,27.95a6.2,6.2,0,0,0-7.89,2.53,6.26,6.26,0,0,0,0,6.22,6.17,6.17,0,0,0,5.38,3.08,6.3,6.3,0,0,0,2.48-.52,7.2,7.2,0,0,0,2.16-1.41l1.33,1.45a9,9,0,0,1-2.83,1.87,8.45,8.45,0,0,1-7.47-.41A8.12,8.12,0,0,1,209,33.62a7.92,7.92,0,0,1,1.12-4.13,8.07,8.07,0,0,1,3-3,8.57,8.57,0,0,1,4.25-1.08,8.67,8.67,0,0,1,3.25.63,8.07,8.07,0,0,1,2.73,1.78l-1.31,1.59A6.65,6.65,0,0,0,220,27.95Z" transform="translate(-20.68 -4)"/><path class="cls-2" d="M237.95,26.53a8.12,8.12,0,0,1,3.07,3,7.87,7.87,0,0,1,1.13,4.13A8,8,0,0,1,241,37.77a8.15,8.15,0,0,1-3.07,3,8.88,8.88,0,0,1-8.53,0,8.15,8.15,0,0,1-3.07-3,8,8,0,0,1-1.13-4.15,7.87,7.87,0,0,1,1.13-4.13,8.15,8.15,0,0,1,3.06-3,9,9,0,0,1,8.54,0Zm-7.36,1.73a6.3,6.3,0,0,0-2.29,2.24,5.93,5.93,0,0,0-.85,3.12,6,6,0,0,0,.85,3.13A6.35,6.35,0,0,0,230.59,39a6.07,6.07,0,0,0,3.12.84A5.94,5.94,0,0,0,236.8,39a6.33,6.33,0,0,0,2.25-2.27,6.06,6.06,0,0,0,.84-3.13,6,6,0,0,0-.84-3.12,6.27,6.27,0,0,0-2.25-2.24,6,6,0,0,0-3.09-.83A6.14,6.14,0,0,0,230.59,28.26Z" transform="translate(-20.68 -4)"/><path class="cls-2" d="M245.68,25.23h2.62l5.89,11.95L260,25.23h2.64v17h-2V28.83L255,40.23H253.6l-5.91-11.39V42.23h-2Z" transform="translate(-20.68 -4)"/><path class="cls-2" d="M278.47,26.64a5,5,0,0,1,1.63,4,5.27,5.27,0,0,1-1.64,4.14,6.67,6.67,0,0,1-4.61,1.47h-4.16v5h-2v-16h6.16A6.84,6.84,0,0,1,278.47,26.64Zm-1.78,6.69a3.23,3.23,0,0,0,1.09-2.65,3.11,3.11,0,0,0-1.09-2.58,4.91,4.91,0,0,0-3.14-.88l-3.86,0v7h3.86A4.82,4.82,0,0,0,276.68,33.33Z" transform="translate(-20.68 -4)"/><path class="cls-2" d="M283.68,25.23h11v2h-9v5h8v2h-8v5h9v2h-11Z" transform="translate(-20.68 -4)"/><path class="cls-2" d="M296.68,25.23h13v2h-5v14h-2v-14h-6Z" transform="translate(-20.68 -4)"/><path class="cls-2" d="M312.68,25.23h2v16h-2Z" transform="translate(-20.68 -4)"/><path class="cls-2" d="M317.68,25.23h13v2h-5v14h-2v-14h-6Z" transform="translate(-20.68 -4)"/><path class="cls-2" d="M343.77,26.53a8.12,8.12,0,0,1,3.07,3A7.87,7.87,0,0,1,348,33.62a8,8,0,0,1-1.13,4.15,8.15,8.15,0,0,1-3.07,3,8.88,8.88,0,0,1-8.53,0,8.15,8.15,0,0,1-3.07-3A8,8,0,0,1,331,33.62a7.87,7.87,0,0,1,1.13-4.13,8.15,8.15,0,0,1,3.06-3,9,9,0,0,1,8.54,0Zm-7.36,1.73a6.3,6.3,0,0,0-2.29,2.24,5.93,5.93,0,0,0-.85,3.12,6,6,0,0,0,.85,3.13A6.35,6.35,0,0,0,336.41,39a6.07,6.07,0,0,0,3.12.84,5.94,5.94,0,0,0,3.09-.84,6.33,6.33,0,0,0,2.25-2.27,6.06,6.06,0,0,0,.84-3.13,6,6,0,0,0-.84-3.12,6.27,6.27,0,0,0-2.25-2.24,6,6,0,0,0-3.09-.83A6.14,6.14,0,0,0,336.41,28.26Z" transform="translate(-20.68 -4)"/><path class="cls-2" d="M361.85,41.23l-3.19-5q-.55,0-.89,0h-4.08v5h-2v-16h5.71a6.05,6.05,0,0,1,4.28,1.41,5.18,5.18,0,0,1,1.51,4,6.09,6.09,0,0,1-.82,3.27A4.67,4.67,0,0,1,360,35.81l3.4,5.42Zm-4.12-7a4.82,4.82,0,0,0,3.14-.9A3.23,3.23,0,0,0,362,30.68a3.11,3.11,0,0,0-1.09-2.58,4.91,4.91,0,0,0-3.14-.88h-4v7Z" transform="translate(-20.68 -4)"/><path class="cls-2" d="M375.76,27.88a7.9,7.9,0,0,0-2.22-.36,4.1,4.1,0,0,0-2.24.54,1.68,1.68,0,0,0-.84,1.48,2,2,0,0,0,.51,1.39,3.58,3.58,0,0,0,1.24.85q.74.31,2,.72a23.18,23.18,0,0,1,2.64,1,4.58,4.58,0,0,1,1.73,1.37,3.79,3.79,0,0,1,.71,2.4,4,4,0,0,1-.75,2.42,4.79,4.79,0,0,1-2.09,1.6,8,8,0,0,1-3.09.56,9,9,0,0,1-3.45-.69,9.35,9.35,0,0,1-2.9-1.84l1-1.91a8.3,8.3,0,0,0,2.59,1.74,7.14,7.14,0,0,0,2.79.61A4.46,4.46,0,0,0,376,39.1a2,2,0,0,0,.93-1.71,2,2,0,0,0-.51-1.4,3.57,3.57,0,0,0-1.28-.87A21.82,21.82,0,0,0,373,34.4a21.14,21.14,0,0,1-2.62-.94,4.53,4.53,0,0,1-1.71-1.36,3.74,3.74,0,0,1-.7-2.37,3.79,3.79,0,0,1,.71-2.28,4.5,4.5,0,0,1,2-1.52,7.83,7.83,0,0,1,3-.53,9.66,9.66,0,0,1,2.84.43A9.52,9.52,0,0,1,379,27l-.92,2A9.28,9.28,0,0,0,375.76,27.88Z" transform="translate(-20.68 -4)"/></svg>